<svg version="1.1" xmlns="http://www.w3.org/2000/svg" style="display: block;" viewBox="0 0 2048 1117" width="1408" height="768" preserveAspectRatio="none">
<defs>
	<linearGradient id="Gradient1" gradientUnits="userSpaceOnUse" x1="532.43" y1="698.4" x2="533.142" y2="704.534">
		<stop class="stop0" offset="0" stop-opacity="0.964706" stop-color="rgb(198,196,197)"/>
		<stop class="stop1" offset="1" stop-opacity="1" stop-color="rgb(199,198,199)"/>
	</linearGradient>
	<linearGradient id="Gradient2" gradientUnits="userSpaceOnUse" x1="1715.09" y1="823.702" x2="1746.88" y2="864.537">
		<stop class="stop0" offset="0" stop-opacity="1" stop-color="rgb(138,51,138)"/>
		<stop class="stop1" offset="1" stop-opacity="1" stop-color="rgb(57,116,188)"/>
	</linearGradient>
	<linearGradient id="Gradient3" gradientUnits="userSpaceOnUse" x1="1720.98" y1="764.635" x2="1750.05" y2="787.597">
		<stop class="stop0" offset="0" stop-opacity="1" stop-color="rgb(136,47,142)"/>
		<stop class="stop1" offset="1" stop-opacity="1" stop-color="rgb(85,101,172)"/>
	</linearGradient>
	<linearGradient id="Gradient4" gradientUnits="userSpaceOnUse" x1="1667.22" y1="300.754" x2="1649.46" y2="314.914">
		<stop class="stop0" offset="0" stop-opacity="1" stop-color="rgb(254,210,9)"/>
		<stop class="stop1" offset="1" stop-opacity="1" stop-color="rgb(252,177,18)"/>
	</linearGradient>
	<linearGradient id="Gradient5" gradientUnits="userSpaceOnUse" x1="1426.48" y1="222.009" x2="1471.49" y2="178.017">
		<stop class="stop0" offset="0" stop-opacity="1" stop-color="rgb(55,111,191)"/>
		<stop class="stop1" offset="1" stop-opacity="1" stop-color="rgb(25,157,213)"/>
	</linearGradient>
	<linearGradient id="Gradient6" gradientUnits="userSpaceOnUse" x1="688.384" y1="912.964" x2="687.532" y2="952.97">
		<stop class="stop0" offset="0" stop-opacity="1" stop-color="rgb(250,146,35)"/>
		<stop class="stop1" offset="1" stop-opacity="1" stop-color="rgb(241,109,49)"/>
	</linearGradient>
	<linearGradient id="Gradient7" gradientUnits="userSpaceOnUse" x1="1643.03" y1="312.526" x2="1612.98" y2="356.929">
		<stop class="stop0" offset="0" stop-opacity="1" stop-color="rgb(248,144,44)"/>
		<stop class="stop1" offset="1" stop-opacity="1" stop-color="rgb(212,91,73)"/>
	</linearGradient>
	<linearGradient id="Gradient8" gradientUnits="userSpaceOnUse" x1="1543.13" y1="414.435" x2="1580.61" y2="381.674">
		<stop class="stop0" offset="0" stop-opacity="1" stop-color="rgb(171,78,62)"/>
		<stop class="stop1" offset="1" stop-opacity="1" stop-color="rgb(213,100,69)"/>
	</linearGradient>
	<linearGradient id="Gradient9" gradientUnits="userSpaceOnUse" x1="1029.35" y1="801.964" x2="1126.41" y2="806.822">
		<stop class="stop0" offset="0" stop-opacity="1" stop-color="rgb(166,197,59)"/>
		<stop class="stop1" offset="1" stop-opacity="1" stop-color="rgb(101,183,88)"/>
	</linearGradient>
	<linearGradient id="Gradient10" gradientUnits="userSpaceOnUse" x1="1147.11" y1="800.019" x2="1234.51" y2="808.923">
		<stop class="stop0" offset="0" stop-opacity="1" stop-color="rgb(98,183,80)"/>
		<stop class="stop1" offset="1" stop-opacity="1" stop-color="rgb(23,175,127)"/>
	</linearGradient>
	<linearGradient id="Gradient11" gradientUnits="userSpaceOnUse" x1="897.718" y1="804.733" x2="809.716" y2="805.236">
		<stop class="stop0" offset="0" stop-opacity="1" stop-color="rgb(252,193,21)"/>
		<stop class="stop1" offset="1" stop-opacity="1" stop-color="rgb(249,150,36)"/>
	</linearGradient>
	<linearGradient id="Gradient12" gradientUnits="userSpaceOnUse" x1="919.905" y1="799.763" x2="1018.2" y2="810.248">
		<stop class="stop0" offset="0" stop-opacity="1" stop-color="rgb(248,206,19)"/>
		<stop class="stop1" offset="1" stop-opacity="1" stop-color="rgb(154,199,69)"/>
	</linearGradient>
	<linearGradient id="Gradient13" gradientUnits="userSpaceOnUse" x1="580.651" y1="533.278" x2="466.373" y2="645.73">
		<stop class="stop0" offset="0" stop-opacity="1" stop-color="rgb(113,76,158)"/>
		<stop class="stop1" offset="1" stop-opacity="1" stop-color="rgb(29,128,197)"/>
	</linearGradient>
	<linearGradient id="Gradient14" gradientUnits="userSpaceOnUse" x1="783.37" y1="810.255" x2="681.467" y2="803.063">
		<stop class="stop0" offset="0" stop-opacity="1" stop-color="rgb(249,151,35)"/>
		<stop class="stop1" offset="1" stop-opacity="1" stop-color="rgb(243,107,45)"/>
	</linearGradient>
	<linearGradient id="Gradient15" gradientUnits="userSpaceOnUse" x1="1667.25" y1="807.422" x2="1558.06" y2="803.292">
		<stop class="stop0" offset="0" stop-opacity="1" stop-color="rgb(26,94,165)"/>
		<stop class="stop1" offset="1" stop-opacity="1" stop-color="rgb(21,118,183)"/>
	</linearGradient>
	<linearGradient id="Gradient16" gradientUnits="userSpaceOnUse" x1="1405.85" y1="806.098" x2="1531.25" y2="802.925">
		<stop class="stop0" offset="0" stop-opacity="1" stop-color="rgb(11,180,162)"/>
		<stop class="stop1" offset="1" stop-opacity="1" stop-color="rgb(24,130,194)"/>
	</linearGradient>
	<linearGradient id="Gradient17" gradientUnits="userSpaceOnUse" x1="357.501" y1="733.572" x2="352.904" y2="757.969">
		<stop class="stop0" offset="0" stop-opacity="1" stop-color="rgb(251,186,29)"/>
		<stop class="stop1" offset="1" stop-opacity="1" stop-color="rgb(248,161,42)"/>
	</linearGradient>
	<linearGradient id="Gradient18" gradientUnits="userSpaceOnUse" x1="307.82" y1="801.869" x2="263.516" y2="861.677">
		<stop class="stop0" offset="0" stop-opacity="1" stop-color="rgb(247,127,38)"/>
		<stop class="stop1" offset="1" stop-opacity="1" stop-color="rgb(236,63,62)"/>
	</linearGradient>
	<linearGradient id="Gradient19" gradientUnits="userSpaceOnUse" x1="399.231" y1="748.109" x2="309.911" y2="854.384">
		<stop class="stop0" offset="0" stop-opacity="1" stop-color="rgb(253,204,24)"/>
		<stop class="stop1" offset="1" stop-opacity="1" stop-color="rgb(240,89,47)"/>
	</linearGradient>
	<linearGradient id="Gradient20" gradientUnits="userSpaceOnUse" x1="638.546" y1="342.674" x2="636.211" y2="309.914">
		<stop class="stop0" offset="0" stop-opacity="1" stop-color="rgb(164,137,112)"/>
		<stop class="stop1" offset="1" stop-opacity="1" stop-color="rgb(109,150,160)"/>
	</linearGradient>
	<linearGradient id="Gradient21" gradientUnits="userSpaceOnUse" x1="632.592" y1="193.956" x2="635.525" y2="259.664">
		<stop class="stop0" offset="0" stop-opacity="1" stop-color="rgb(180,138,102)"/>
		<stop class="stop1" offset="1" stop-opacity="1" stop-color="rgb(108,151,157)"/>
	</linearGradient>
	<linearGradient id="Gradient22" gradientUnits="userSpaceOnUse" x1="616.687" y1="309.478" x2="638.38" y2="261.067">
		<stop class="stop0" offset="0" stop-opacity="1" stop-color="rgb(49,160,203)"/>
		<stop class="stop1" offset="1" stop-opacity="1" stop-color="rgb(107,151,155)"/>
	</linearGradient>
	<linearGradient id="Gradient23" gradientUnits="userSpaceOnUse" x1="729.105" y1="254.589" x2="582.932" y2="404.195">
		<stop class="stop0" offset="0" stop-opacity="1" stop-color="rgb(251,171,27)"/>
		<stop class="stop1" offset="1" stop-opacity="1" stop-color="rgb(235,72,54)"/>
	</linearGradient>
	<linearGradient id="Gradient24" gradientUnits="userSpaceOnUse" x1="1452.6" y1="539.315" x2="1334.78" y2="687.127">
		<stop class="stop0" offset="0" stop-opacity="1" stop-color="rgb(245,104,45)"/>
		<stop class="stop1" offset="1" stop-opacity="1" stop-color="rgb(204,39,119)"/>
	</linearGradient>
	<linearGradient id="Gradient25" gradientUnits="userSpaceOnUse" x1="1816.28" y1="529.842" x2="1633.34" y2="652.082">
		<stop class="stop0" offset="0" stop-opacity="1" stop-color="rgb(250,162,29)"/>
		<stop class="stop1" offset="1" stop-opacity="1" stop-color="rgb(246,125,38)"/>
	</linearGradient>
	<linearGradient id="Gradient26" gradientUnits="userSpaceOnUse" x1="1634.65" y1="506.137" x2="1471.88" y2="676.363">
		<stop class="stop0" offset="0" stop-opacity="1" stop-color="rgb(253,152,21)"/>
		<stop class="stop1" offset="1" stop-opacity="1" stop-color="rgb(231,73,71)"/>
	</linearGradient>
	<linearGradient id="Gradient27" gradientUnits="userSpaceOnUse" x1="1126.81" y1="516.224" x2="954.71" y2="668.747">
		<stop class="stop0" offset="0" stop-opacity="1" stop-color="rgb(201,24,110)"/>
		<stop class="stop1" offset="1" stop-opacity="1" stop-color="rgb(158,39,147)"/>
	</linearGradient>
	<linearGradient id="Gradient28" gradientUnits="userSpaceOnUse" x1="898.221" y1="509.421" x2="737.328" y2="668.08">
		<stop class="stop0" offset="0" stop-opacity="1" stop-color="rgb(185,24,129)"/>
		<stop class="stop1" offset="1" stop-opacity="1" stop-color="rgb(105,77,163)"/>
	</linearGradient>
	<linearGradient id="Gradient29" gradientUnits="userSpaceOnUse" x1="722.77" y1="501.85" x2="567.179" y2="678.342">
		<stop class="stop0" offset="0" stop-opacity="1" stop-color="rgb(155,44,142)"/>
		<stop class="stop1" offset="1" stop-opacity="1" stop-color="rgb(58,112,183)"/>
	</linearGradient>
	<linearGradient id="Gradient30" gradientUnits="userSpaceOnUse" x1="1289.64" y1="511.696" x2="1121.89" y2="668.805">
		<stop class="stop0" offset="0" stop-opacity="1" stop-color="rgb(230,77,74)"/>
		<stop class="stop1" offset="1" stop-opacity="1" stop-color="rgb(178,15,152)"/>
	</linearGradient>
	<linearGradient id="Gradient31" gradientUnits="userSpaceOnUse" x1="535.678" y1="634.651" x2="422.814" y2="343.029">
		<stop class="stop0" offset="0" stop-opacity="1" stop-color="rgb(54,56,150)"/>
		<stop class="stop1" offset="1" stop-opacity="1" stop-color="rgb(27,159,216)"/>
	</linearGradient>
</defs>
<path transform="translate(0,0)" fill="url(#Gradient31)" d="M 559.936 257.255 C 579.534 278.115 578.679 293.844 575.33 319.551 C 574.901 320.542 574.779 321.543 574.562 322.617 L 575.835 323.408 C 581.842 321.196 588.293 313.79 592.592 308.992 C 593.003 308.136 595.738 304.208 596.431 303.171 C 602.613 301.383 627.181 310.42 629.863 316.975 C 628.443 322.495 625.628 337.945 620.665 340.561 L 619.081 337.129 C 615.785 342.337 606.82 357.767 603.391 361.37 C 581.5 384.371 549.471 386.869 521.465 405.423 C 504.526 419.213 483.274 439.621 486.342 463.74 C 488.172 460.781 488.978 454.83 490.842 451.484 C 497.645 439.487 509.744 437.033 521.938 442.279 C 529.123 445.37 537.255 453.322 545.012 450.377 C 548.017 448.345 548.792 444.764 550.075 441.24 C 554.698 440.911 560.563 441.001 565.29 440.939 L 566.994 441.587 C 571.025 441.335 575.032 440.641 578.526 442.493 C 579.27 443.42 580.363 444.667 580.932 445.653 C 584.924 464.577 573.012 479.598 564.602 494.551 C 562.844 497.676 565.122 502.216 562.537 506.359 L 561.051 506.087 C 559.569 499.257 559.07 494.38 553.175 490.403 L 551.719 490.928 C 548.855 489.195 546.309 488.068 544.998 484.977 L 544.959 483.794 L 545.004 483.301 C 549.935 481.778 554.277 480.974 556.75 476.629 C 548.132 477.83 536.331 479.252 528.572 474.23 C 523.638 471.038 518.779 464.68 512.772 465.767 C 511.07 468.89 511.419 467.473 511.68 471.254 L 515.753 472.592 C 518.791 475.734 518.436 474.452 518.808 478.244 C 515.225 484.267 508.251 482.856 502.028 482.474 L 501.59 482.796 C 496.877 486.215 488.254 487.749 486.81 488.858 C 483.358 491.508 474.067 524.998 473.153 531.013 C 472.969 532.223 473.032 533.092 473.346 534.275 C 468.76 543.769 466.956 557.107 463.286 567.466 C 456.812 585.738 453.079 604.888 445.408 622.784 C 436.825 646.745 430.98 671.687 422.15 695.557 C 421.342 697.741 419.183 703.482 416.82 703.832 C 402.37 705.975 386.957 704.242 372.318 704.513 C 368.178 704.59 364.254 704.086 360.422 702.537 L 359.257 700.897 C 369.18 691.86 405.331 706.081 413.458 692.566 C 399.355 689.433 377.97 692.18 366.202 689.856 L 356.023 688.481 L 302.845 520.598 C 295.713 498.186 281.732 458.221 276.949 436.622 C 290.585 435.467 314.211 435.911 328.846 435.607 C 330.454 440.749 331.983 445.103 333.861 450.13 C 338.234 456.782 345.972 483.898 350.728 494.384 C 353.199 494.823 352.188 494.298 353.978 495.77 C 354.625 502.894 355.075 515.869 358.838 521.686 L 359.996 521.18 C 360.83 518.141 361.589 515.387 362.599 512.394 C 363.249 513.169 363.536 525.848 366.548 531.998 C 380.579 548.903 375.267 550.548 380.596 566.559 L 376.703 565.658 C 376.858 568.367 376.901 579.489 377.369 580.79 C 379.206 588.969 383.377 591.589 384.711 597.903 C 385.611 593.702 388.91 584.054 390.311 579.561 L 391.916 573.509 C 393.062 568.979 402.12 548.681 404.716 541.052 C 413.177 516.187 421.669 476.74 431.328 453.687 C 432.861 445.959 435.75 438.732 437.683 431.62 C 449.648 387.597 475.937 364.301 509.604 336.189 C 522.267 325.615 534.192 314.591 543.379 300.367 C 552.786 285.804 554.105 273.138 559.936 257.255 z M 435.382 614.446 C 437.109 617.727 436.968 618.455 439.752 619.448 C 442.832 616.361 442.006 602.851 442.564 602.575 C 451.914 597.953 451.604 585.054 447.466 575.723 C 442.487 591.932 439.341 596.32 435.382 614.446 z"/>
<path transform="translate(0,0)" fill="rgb(254,253,254)" d="M 406.17 688.927 L 459.751 519.545 C 466.083 499.511 472.119 479.28 478.397 459.219 C 486.345 433.822 498.743 419.489 519.469 403.501 L 521.465 405.423 C 504.526 419.213 483.274 439.621 486.342 463.74 C 488.172 460.781 488.978 454.83 490.842 451.484 C 497.645 439.487 509.744 437.033 521.938 442.279 C 529.123 445.37 537.255 453.322 545.012 450.377 C 548.017 448.345 548.792 444.764 550.075 441.24 C 554.698 440.911 560.563 441.001 565.29 440.939 L 566.994 441.587 C 571.025 441.335 575.032 440.641 578.526 442.493 C 579.27 443.42 580.363 444.667 580.932 445.653 C 584.924 464.577 573.012 479.598 564.602 494.551 C 562.844 497.676 565.122 502.216 562.537 506.359 L 561.051 506.087 C 559.569 499.257 559.07 494.38 553.175 490.403 L 551.719 490.928 C 548.855 489.195 546.309 488.068 544.998 484.977 L 544.959 483.794 L 545.004 483.301 C 549.935 481.778 554.277 480.974 556.75 476.629 C 548.132 477.83 536.331 479.252 528.572 474.23 C 523.638 471.038 518.779 464.68 512.772 465.767 C 511.07 468.89 511.419 467.473 511.68 471.254 L 515.753 472.592 C 518.791 475.734 518.436 474.452 518.808 478.244 C 515.225 484.267 508.251 482.856 502.028 482.474 L 501.59 482.796 C 496.877 486.215 488.254 487.749 486.81 488.858 C 483.358 491.508 474.067 524.998 473.153 531.013 C 472.969 532.223 473.032 533.092 473.346 534.275 C 468.76 543.769 466.956 557.107 463.286 567.466 C 456.812 585.738 453.079 604.888 445.408 622.784 C 436.825 646.745 430.98 671.687 422.15 695.557 C 421.342 697.741 419.183 703.482 416.82 703.832 C 402.37 705.975 386.957 704.242 372.318 704.513 C 368.178 704.59 364.254 704.086 360.422 702.537 L 359.257 700.897 C 369.18 691.86 405.331 706.081 413.458 692.566 C 399.355 689.433 377.97 692.18 366.202 689.856 C 368.903 688.447 400.791 688.907 406.17 688.927 z M 435.382 614.446 C 437.109 617.727 436.968 618.455 439.752 619.448 C 442.832 616.361 442.006 602.851 442.564 602.575 C 451.914 597.953 451.604 585.054 447.466 575.723 C 442.487 591.932 439.341 596.32 435.382 614.446 z"/>
<path transform="translate(0,0)" fill="rgb(203,202,202)" d="M 511.68 471.254 L 515.753 472.592 C 518.791 475.734 518.436 474.452 518.808 478.244 C 515.225 484.267 508.251 482.856 502.028 482.474 L 501.59 482.796 C 496.877 486.215 488.254 487.749 486.81 488.858 C 483.358 491.508 474.067 524.998 473.153 531.013 C 472.969 532.223 473.032 533.092 473.346 534.275 C 468.76 543.769 466.956 557.107 463.286 567.466 C 456.812 585.738 453.079 604.888 445.408 622.784 C 436.825 646.745 430.98 671.687 422.15 695.557 C 421.342 697.741 419.183 703.482 416.82 703.832 C 402.37 705.975 386.957 704.242 372.318 704.513 C 368.178 704.59 364.254 704.086 360.422 702.537 L 359.257 700.897 C 369.18 691.86 405.331 706.081 413.458 692.566 C 423.079 666.025 427.972 641.026 435.382 614.446 C 437.109 617.727 436.968 618.455 439.752 619.448 C 442.832 616.361 442.006 602.851 442.564 602.575 C 451.914 597.953 451.604 585.054 447.466 575.723 L 447.615 574.419 C 447.698 574.394 449.235 573.949 449.295 573.826 C 457.513 557.036 475.657 496.216 480.454 481.272 C 492.918 482.243 509.991 487.392 511.68 471.254 z"/>
<path transform="translate(0,0)" fill="rgb(97,85,167)" d="M 486.342 463.74 C 488.172 460.781 488.978 454.83 490.842 451.484 C 497.645 439.487 509.744 437.033 521.938 442.279 C 529.123 445.37 537.255 453.322 545.012 450.377 C 548.017 448.345 548.792 444.764 550.075 441.24 C 554.698 440.911 560.563 441.001 565.29 440.939 C 561.149 503.148 518.711 459.912 507.743 462.465 C 504.387 465.464 503.94 469.447 503.164 473.836 L 485.607 473.892 C 485.761 472.124 486.484 465.056 486.342 463.74 z"/>
<path transform="translate(0,0)" fill="rgb(203,202,202)" d="M 566.994 441.587 C 571.025 441.335 575.032 440.641 578.526 442.493 C 579.27 443.42 580.363 444.667 580.932 445.653 C 584.924 464.577 573.012 479.598 564.602 494.551 C 562.844 497.676 565.122 502.216 562.537 506.359 L 561.051 506.087 C 559.569 499.257 559.07 494.38 553.175 490.403 L 551.719 490.928 C 548.855 489.195 546.309 488.068 544.998 484.977 L 544.959 483.794 L 545.004 483.301 C 549.935 481.778 554.277 480.974 556.75 476.629 L 559.015 476.372 C 567.802 469.836 575.009 453.455 572.825 442.772 L 566.994 441.587 z"/>
<path transform="translate(0,0)" fill="rgb(251,253,247)" d="M 544.998 484.977 C 549.698 484.564 551.342 487.987 553.496 487.918 C 573.074 487.292 578.386 459.891 580.932 445.653 C 584.924 464.577 573.012 479.598 564.602 494.551 C 562.844 497.676 565.122 502.216 562.537 506.359 L 561.051 506.087 C 559.569 499.257 559.07 494.38 553.175 490.403 L 551.719 490.928 C 548.855 489.195 546.309 488.068 544.998 484.977 z"/>
<path transform="translate(0,0)" fill="rgb(30,161,216)" d="M 559.936 257.255 C 579.534 278.115 578.679 293.844 575.33 319.551 L 573.508 320.174 C 569.442 314.39 580.236 294.014 568.555 288.248 L 565.059 288.743 C 561.265 295.992 558.627 304.379 555.178 312.01 C 545.227 334.024 527.42 351.586 508.976 367.05 C 477.936 393.075 458.962 424.037 448.063 462.982 C 447.821 463.801 447.697 464.199 447.366 465 C 446.796 462.299 453.212 445.999 450.73 442.418 C 446.238 440.228 442.428 439.364 437.66 438.095 C 436.606 441.695 434.292 451.061 432.292 453.553 L 431.328 453.687 C 432.861 445.959 435.75 438.732 437.683 431.62 C 449.648 387.597 475.937 364.301 509.604 336.189 C 522.267 325.615 534.192 314.591 543.379 300.367 C 552.786 285.804 554.105 273.138 559.936 257.255 z"/>
<path transform="translate(0,0)" fill="rgb(254,253,254)" d="M 333.861 450.13 C 338.234 456.782 345.972 483.898 350.728 494.384 C 353.199 494.823 352.188 494.298 353.978 495.77 C 354.625 502.894 355.075 515.869 358.838 521.686 L 359.996 521.18 C 360.83 518.141 361.589 515.387 362.599 512.394 C 363.249 513.169 363.536 525.848 366.548 531.998 C 380.579 548.903 375.267 550.548 380.596 566.559 L 376.703 565.658 C 376.858 568.367 376.901 579.489 377.369 580.79 C 379.206 588.969 383.377 591.589 384.711 597.903 C 383.746 601.397 382.312 605.441 381.167 608.939 C 369.715 571.987 358.478 534.969 347.456 497.887 C 344.602 488.384 334.699 458.1 333.861 450.13 z"/>
<path transform="translate(0,0)" fill="rgb(203,202,202)" d="M 366.548 531.998 C 380.579 548.903 375.267 550.548 380.596 566.559 L 376.703 565.658 C 373.636 559.459 368.549 539.511 366.548 531.998 z"/>
<path transform="translate(0,0)" fill="rgb(30,161,216)" d="M 596.431 303.171 C 602.613 301.383 627.181 310.42 629.863 316.975 C 628.443 322.495 625.628 337.945 620.665 340.561 L 619.081 337.129 C 620.013 334.058 617.815 328.555 616.785 325.151 C 615.285 331.023 612.814 342.619 609.094 347.082 C 607.983 341.997 615.599 329.938 613.946 324.847 C 607.902 324.983 596.137 326.712 591.688 322.588 C 590.751 319.53 592.32 313.255 592.592 308.992 C 593.003 308.136 595.738 304.208 596.431 303.171 z"/>
<path transform="translate(0,0)" fill="rgb(251,253,247)" d="M 609.094 347.082 C 612.814 342.619 615.285 331.023 616.785 325.151 C 617.815 328.555 620.013 334.058 619.081 337.129 C 615.785 342.337 606.82 357.767 603.391 361.37 C 581.5 384.371 549.471 386.869 521.465 405.423 L 519.469 403.501 C 545.98 385.345 596.585 378.039 609.094 347.082 z"/>
<path transform="translate(0,0)" fill="url(#Gradient30)" d="M 1136.05 493.08 C 1149.04 492.772 1165.43 493.666 1178 492.597 C 1180.46 494.08 1181.36 494.084 1181.92 497.395 C 1185.2 516.791 1184.45 545.167 1180.29 564.1 C 1185.26 568.395 1227.24 566.737 1236.21 566.36 C 1235.28 554.031 1235.23 504.953 1237.31 493.45 C 1247.11 492.46 1266.8 492.993 1277.02 493.126 C 1281.69 496.249 1283.19 496.961 1284.35 502.526 C 1284.5 503.244 1284.63 503.965 1284.75 504.688 C 1286.88 506.089 1290.04 507.476 1290.08 510.025 C 1290.44 533.392 1297.63 634.937 1289.02 651.807 C 1285.39 653.531 1284.27 652.146 1280.97 649.68 C 1280.46 659.493 1276.68 680.917 1282.47 687.983 L 1286.82 689.25 C 1293.32 685.547 1296.82 664.664 1299.52 655.825 C 1304.39 667.701 1325.6 670.585 1331.2 681.03 L 1332.26 681.013 C 1333.46 680.999 1333.02 680.911 1333.68 681.09 C 1336.55 674.434 1341.34 657.242 1343.71 649.613 C 1349.53 649.589 1354.41 649.332 1360.13 650.649 C 1356.28 651.047 1350.96 651.159 1347.9 653.219 L 1347.41 655.269 L 1349.36 657.583 C 1364.55 660.919 1398.88 657.109 1406.76 660.619 L 1407.08 662.01 C 1400.68 667.848 1385.09 665.323 1376.97 665.718 C 1371.22 666.201 1364.08 662.111 1359.16 665.74 C 1353.42 669.978 1349.28 702.539 1342.66 703.296 C 1314.64 706.501 1272.51 703.911 1243.36 704.459 C 1237.95 704.561 1236.13 700.194 1236.41 697.049 C 1237.26 694 1237.31 692.469 1237.54 689.392 C 1231.46 680.708 1238.7 627.683 1233.42 611.469 C 1231.07 610.516 1225.46 610.71 1222.66 610.67 C 1220.43 611.047 1211.69 612.2 1210.46 613.286 C 1213.05 614.423 1214.96 614.561 1217.73 614.992 C 1223.25 615.788 1227.25 615.866 1230.91 620.287 L 1230.89 622.251 C 1225.04 626.836 1201.13 621.667 1198.09 624.115 C 1185.96 633.861 1201.46 692.725 1189.28 703.429 C 1180.86 705.134 1170.95 705.005 1162.31 704.61 C 1134.96 703.356 1107.75 704.55 1080.4 704.503 C 1075.49 704.495 1072.1 702.251 1071.41 697.237 C 1087.6 696.282 1106.28 698.551 1122.27 696.2 C 1124.77 695.833 1126.15 693.042 1127.33 690.858 L 1131.2 691.689 L 1136.14 689.217 C 1135.85 666.17 1137.01 638.715 1137.01 614.746 L 1136.05 493.08 z"/>
<path transform="translate(0,0)" fill="rgb(254,253,254)" d="M 1277.02 493.126 C 1281.69 496.249 1283.19 496.961 1284.35 502.526 C 1284.5 503.244 1284.63 503.965 1284.75 504.688 C 1286.88 506.089 1290.04 507.476 1290.08 510.025 C 1290.44 533.392 1297.63 634.937 1289.02 651.807 C 1285.39 653.531 1284.27 652.146 1280.97 649.68 C 1280.46 659.493 1276.68 680.917 1282.47 687.983 L 1286.82 689.25 C 1293.32 685.547 1296.82 664.664 1299.52 655.825 C 1304.39 667.701 1325.6 670.585 1331.2 681.03 L 1332.26 681.013 C 1333.46 680.999 1333.02 680.911 1333.68 681.09 C 1336.55 674.434 1341.34 657.242 1343.71 649.613 C 1349.53 649.589 1354.41 649.332 1360.13 650.649 C 1356.28 651.047 1350.96 651.159 1347.9 653.219 L 1347.41 655.269 L 1349.36 657.583 C 1364.55 660.919 1398.88 657.109 1406.76 660.619 L 1407.08 662.01 C 1400.68 667.848 1385.09 665.323 1376.97 665.718 C 1371.22 666.201 1364.08 662.111 1359.16 665.74 C 1353.42 669.978 1349.28 702.539 1342.66 703.296 C 1314.64 706.501 1272.51 703.911 1243.36 704.459 C 1237.95 704.561 1236.13 700.194 1236.41 697.049 C 1237.26 694 1237.31 692.469 1237.54 689.392 C 1245.45 688.476 1267.61 688.949 1276.58 688.94 L 1276.52 548.46 C 1276.52 539.724 1275.96 498.686 1277.02 493.126 z"/>
<path transform="translate(0,0)" fill="rgb(203,202,202)" d="M 1349.36 657.583 C 1364.55 660.919 1398.88 657.109 1406.76 660.619 L 1407.08 662.01 C 1400.68 667.848 1385.09 665.323 1376.97 665.718 C 1371.22 666.201 1364.08 662.111 1359.16 665.74 C 1353.42 669.978 1349.28 702.539 1342.66 703.296 C 1314.64 706.501 1272.51 703.911 1243.36 704.459 C 1237.95 704.561 1236.13 700.194 1236.41 697.049 C 1248.45 696.995 1332.01 697.544 1336.03 695.251 C 1340.94 689.064 1348.01 665.689 1349.36 657.583 z"/>
<path transform="translate(0,0)" fill="rgb(203,202,202)" d="M 1284.75 504.688 C 1286.88 506.089 1290.04 507.476 1290.08 510.025 C 1290.44 533.392 1297.63 634.937 1289.02 651.807 C 1285.39 653.531 1284.27 652.146 1280.97 649.68 C 1280.65 647.15 1285.03 639.782 1284.98 630.389 C 1284.77 588.688 1284.12 546.327 1284.75 504.688 z"/>
<path transform="translate(0,0)" fill="rgb(193,56,114)" d="M 1299.52 655.825 C 1304.39 667.701 1325.6 670.585 1331.2 681.03 L 1332.26 681.013 C 1333.46 680.999 1333.02 680.911 1333.68 681.09 C 1332.32 685.811 1333.23 685.3 1330.02 688.084 C 1316.86 691.445 1293.45 687.268 1286.82 689.25 C 1293.32 685.547 1296.82 664.664 1299.52 655.825 z"/>
<path transform="translate(0,0)" fill="rgb(203,202,202)" d="M 1217.73 614.992 C 1223.25 615.788 1227.25 615.866 1230.91 620.287 L 1230.89 622.251 C 1225.04 626.836 1201.13 621.667 1198.09 624.115 C 1185.96 633.861 1201.46 692.725 1189.28 703.429 C 1180.86 705.134 1170.95 705.005 1162.31 704.61 C 1134.96 703.356 1107.75 704.55 1080.4 704.503 C 1075.49 704.495 1072.1 702.251 1071.41 697.237 C 1087.6 696.282 1106.28 698.551 1122.27 696.2 C 1124.77 695.833 1126.15 693.042 1127.33 690.858 L 1131.2 691.689 C 1130.28 692.018 1130.13 692.319 1129.32 692.995 L 1130.6 695.323 C 1135.28 698.863 1151.26 696.708 1157.52 696.794 C 1164.61 696.891 1178.64 698.798 1183.69 693.835 C 1187.37 683.602 1185.66 629.892 1185.28 615.939 C 1194.72 615.957 1208.9 616.377 1217.73 614.992 z"/>
<path transform="translate(0,0)" fill="rgb(254,253,254)" d="M 1177.52 608.002 C 1184.02 607.991 1229.39 607.547 1233.93 608.749 C 1230.46 610.527 1226.6 610.42 1222.66 610.67 C 1220.43 611.047 1211.69 612.2 1210.46 613.286 C 1213.05 614.423 1214.96 614.561 1217.73 614.992 C 1208.9 616.377 1194.72 615.957 1185.28 615.939 C 1185.66 629.892 1187.37 683.602 1183.69 693.835 C 1178.64 698.798 1164.61 696.891 1157.52 696.794 C 1151.26 696.708 1135.28 698.863 1130.6 695.323 L 1129.32 692.995 C 1130.13 692.319 1130.28 692.018 1131.2 691.689 L 1136.14 689.217 C 1146.92 688.412 1166.14 688.961 1177.53 688.939 L 1177.52 608.002 z"/>
<path transform="translate(0,0)" fill="rgb(254,253,254)" d="M 1178 492.597 C 1180.46 494.08 1181.36 494.084 1181.92 497.395 C 1185.2 516.791 1184.45 545.167 1180.29 564.1 C 1179.68 564.953 1179.96 564.569 1178.55 564.975 C 1176.83 562.74 1177.21 498.805 1178 492.597 z"/>
<path transform="translate(0,0)" fill="url(#Gradient29)" d="M 573.038 492.11 C 581.722 493.713 607.649 492.051 611.608 493.999 C 631.69 507.507 653.828 539.555 662.984 561.532 C 661.842 560.705 661.021 559.917 659.65 559.693 C 661.201 566.682 665.845 579.445 668.565 586.309 C 671.664 592.227 673.112 594.053 677.196 599.097 C 677.779 589.713 677.286 577.912 677.736 568.058 C 678.628 548.556 681.046 511.861 678.059 493.218 C 690.797 492.773 705.26 493.023 718.129 492.956 L 726.053 494.431 C 733.957 497.431 732.963 496.83 733.789 505.784 C 735.921 511.944 737.639 517.016 739.297 523.345 L 740.851 537.403 C 741.465 531.086 742.198 525.693 743.178 519.429 L 745.375 512.813 C 746.476 525.293 745.936 543.223 745.921 556.228 L 745.826 630.348 C 745.817 639.093 745.334 656.416 746.064 664.403 C 745.985 668.745 746.003 679.638 745.306 683.39 L 741.321 677.638 L 739.761 677.479 L 734.426 685.114 C 729.363 694.374 736.88 693.67 735.47 700.214 C 729.522 706.279 692.76 706.542 687.281 700.591 L 687.422 699.256 C 697.488 695.853 720.35 700.449 724.274 692.534 L 723.769 691.97 C 715.942 692.06 700.861 691.689 693.604 689.831 L 683.957 688.716 C 663.643 658.3 639.102 611.362 617.47 583.926 C 615.975 594.742 618.527 606.612 622.767 616.571 C 622.798 623.025 622.641 630.551 622.89 636.908 C 622.718 642.025 621.68 645.485 621.279 650.626 C 620.908 655.391 622.05 658.903 622.007 662.74 C 621.586 666.952 622.035 689.058 621.042 690.639 L 620.16 690.841 C 609.529 691.368 598.42 690.463 587.76 689.821 C 585.524 690.167 577.166 689.435 574.458 689.255 C 576.283 678.525 574.964 644.661 575.034 632.029 C 575.294 585.09 573.107 539.16 573.038 492.11 z"/>
<path transform="translate(0,0)" fill="rgb(254,253,254)" d="M 718.129 492.956 L 726.053 494.431 C 733.957 497.431 732.963 496.83 733.789 505.784 C 735.921 511.944 737.639 517.016 739.297 523.345 L 740.851 537.403 C 741.465 531.086 742.198 525.693 743.178 519.429 L 745.375 512.813 C 746.476 525.293 745.936 543.223 745.921 556.228 L 745.826 630.348 C 745.817 639.093 745.334 656.416 746.064 664.403 C 745.985 668.745 746.003 679.638 745.306 683.39 L 741.321 677.638 L 739.761 677.479 L 734.426 685.114 C 729.363 694.374 736.88 693.67 735.47 700.214 C 729.522 706.279 692.76 706.542 687.281 700.591 L 687.422 699.256 C 697.488 695.853 720.35 700.449 724.274 692.534 L 723.769 691.97 C 715.942 692.06 700.861 691.689 693.604 689.831 C 699.721 688.553 711.397 688.903 718.063 688.894 L 718.129 492.956 z"/>
<path transform="translate(0,0)" fill="rgb(254,253,254)" d="M 733.789 505.784 C 735.921 511.944 737.639 517.016 739.297 523.345 L 740.851 537.403 C 741.465 531.086 742.198 525.693 743.178 519.429 L 745.375 512.813 C 746.476 525.293 745.936 543.223 745.921 556.228 L 745.826 630.348 C 745.817 639.093 745.334 656.416 746.064 664.403 C 745.985 668.745 746.003 679.638 745.306 683.39 L 741.321 677.638 L 739.761 677.479 L 734.426 685.114 C 731.572 681.774 730.789 515.428 733.789 505.784 z"/>
<path transform="translate(0,0)" fill="rgb(203,202,202)" d="M 726.053 494.431 C 733.957 497.431 732.963 496.83 733.789 505.784 C 730.789 515.428 731.572 681.774 734.426 685.114 C 729.363 694.374 736.88 693.67 735.47 700.214 C 729.522 706.279 692.76 706.542 687.281 700.591 L 687.422 699.256 C 697.488 695.853 720.35 700.449 724.274 692.534 L 723.769 691.97 L 725.36 690.648 C 726.847 685.792 726.217 636.756 726.203 626.919 L 726.053 494.431 z"/>
<path transform="translate(0,0)" fill="rgb(254,253,254)" d="M 611.608 493.999 C 631.69 507.507 653.828 539.555 662.984 561.532 C 661.842 560.705 661.021 559.917 659.65 559.693 C 661.201 566.682 665.845 579.445 668.565 586.309 C 661.767 579.309 616.32 503.959 611.608 493.999 z"/>
<path transform="translate(0,0)" fill="rgb(254,253,254)" d="M 614.51 688.963 C 614.962 656.146 613.028 613.016 614.966 581.359 L 615.82 580.791 L 617.47 583.926 C 615.975 594.742 618.527 606.612 622.767 616.571 C 622.798 623.025 622.641 630.551 622.89 636.908 C 622.718 642.025 621.68 645.485 621.279 650.626 C 620.908 655.391 622.05 658.903 622.007 662.74 C 621.586 666.952 622.035 689.058 621.042 690.639 L 620.16 690.841 C 609.529 691.368 598.42 690.463 587.76 689.821 C 595.24 688.894 606.679 689.063 614.51 688.963 z"/>
<path transform="translate(0,0)" fill="url(#Gradient28)" d="M 846.938 493.184 C 859.461 492.701 874.281 493.023 886.976 492.986 C 889.318 493.218 893.004 493.706 895.238 493.591 C 899.804 494.513 898.463 493.664 901.873 496.618 C 903.767 507.095 902.442 545.488 902.522 557.904 L 902.595 634.131 C 902.749 650.146 903.695 671.296 903.063 686.73 C 902.867 692.001 902.179 697.242 901.01 702.385 C 893.98 707.593 866.641 703.336 857.093 704.466 C 853.889 704.845 850.658 703.875 848.362 701.439 L 847.445 697.092 C 848.043 693.903 847.821 692.205 847.623 689.04 C 845.354 682.71 846.861 636.33 843.739 626.969 C 843.339 625.77 841.795 625.835 840.196 625.501 C 833.44 625.118 827.65 624.699 820.933 623.891 C 818.557 623.854 815.32 623.988 812.93 623.594 C 798.773 621.266 803.516 641.783 802.691 649.417 C 801.457 660.85 806.204 692.955 801.293 702.29 C 796.117 706.749 752.831 706.09 747.028 700.005 C 745.899 696.689 745.922 698.158 747.529 694.276 L 746.369 688.97 C 746.075 686.893 745.775 685.435 745.306 683.39 C 746.003 679.638 745.985 668.745 746.064 664.403 C 745.334 656.416 745.817 639.093 745.826 630.348 L 745.921 556.228 C 745.936 543.223 746.476 525.293 745.375 512.813 C 746.282 505.402 746.837 500.458 746.911 493.007 L 788.034 492.965 C 791.852 494.181 793.145 494.335 795.825 497.332 C 797.577 496.914 799.338 496.53 801.106 496.181 C 803.654 499.359 803.649 553.115 802.497 557.995 C 799.874 558.956 798.133 558.158 795.348 557.462 C 794.384 560.296 793.42 562.963 792.773 565.896 C 808.397 565.108 827.276 567.564 846.35 566.477 C 847.864 548.981 846.859 511.883 846.938 493.184 z M 828.991 615.13 L 837.562 615.58 L 843.426 617.891 C 844.698 615.139 844.522 612.873 844.637 609.825 C 839.765 610.894 830.549 611.543 827.03 613.552 L 828.991 615.13 z"/>
<path transform="translate(0,0)" fill="rgb(203,202,202)" d="M 886.976 492.986 C 889.318 493.218 893.004 493.706 895.238 493.591 C 899.804 494.513 898.463 493.664 901.873 496.618 C 903.767 507.095 902.442 545.488 902.522 557.904 L 902.595 634.131 C 902.749 650.146 903.695 671.296 903.063 686.73 C 902.867 692.001 902.179 697.242 901.01 702.385 C 893.98 707.593 866.641 703.336 857.093 704.466 C 853.889 704.845 850.658 703.875 848.362 701.439 L 847.445 697.092 C 848.043 693.903 847.821 692.205 847.623 689.04 L 886.986 688.991 L 886.976 492.986 z"/>
<path transform="translate(0,0)" fill="rgb(254,253,254)" d="M 886.976 492.986 C 889.318 493.218 893.004 493.706 895.238 493.591 L 895.148 621.445 C 895.155 634.279 896.65 687.682 892.542 694.509 C 884.978 698.955 858.277 696.608 847.445 697.092 C 848.043 693.903 847.821 692.205 847.623 689.04 L 886.986 688.991 L 886.976 492.986 z"/>
<path transform="translate(0,0)" fill="rgb(203,202,202)" d="M 828.991 615.13 L 837.562 615.58 L 843.426 617.891 C 844.465 621.313 844.983 621.103 844.128 624.263 C 842.458 625.011 842.077 625.261 840.196 625.501 C 833.44 625.118 827.65 624.699 820.933 623.891 C 818.557 623.854 815.32 623.988 812.93 623.594 C 798.773 621.266 803.516 641.783 802.691 649.417 C 801.457 660.85 806.204 692.955 801.293 702.29 C 796.117 706.749 752.831 706.09 747.028 700.005 C 745.899 696.689 745.922 698.158 747.529 694.276 L 747.942 695.884 C 751.15 698.296 775.835 696.373 781.972 696.937 C 794.215 698.063 796.065 691.789 796.086 681.384 C 796.129 659.482 795.987 637.716 795.859 615.879 C 802.346 615.896 823.869 616.348 828.991 615.13 z"/>
<path transform="translate(0,0)" fill="rgb(254,253,254)" d="M 837.562 615.58 L 843.426 617.891 C 844.465 621.313 844.983 621.103 844.128 624.263 C 842.458 625.011 842.077 625.261 840.196 625.501 C 833.44 625.118 827.65 624.699 820.933 623.891 C 826.623 622.431 829.46 624.152 834.778 622.451 C 837.625 619.762 836.79 620.24 837.562 615.58 z"/>
<path transform="translate(0,0)" fill="rgb(254,253,254)" d="M 787.922 607.918 C 800.86 607.897 831.964 607.023 843.482 608.324 L 844.637 609.825 C 839.765 610.894 830.549 611.543 827.03 613.552 L 828.991 615.13 C 823.869 616.348 802.346 615.896 795.859 615.879 C 795.987 637.716 796.129 659.482 796.086 681.384 C 796.065 691.789 794.215 698.063 781.972 696.937 C 775.835 696.373 751.15 698.296 747.942 695.884 L 747.529 694.276 L 746.369 688.97 L 765.039 688.853 C 771.69 689.195 781.033 688.882 787.892 688.866 L 787.922 607.918 z"/>
<path transform="translate(0,0)" fill="rgb(254,253,254)" d="M 788.034 492.965 C 791.852 494.181 793.145 494.335 795.825 497.332 C 797.577 496.914 799.338 496.53 801.106 496.181 C 803.654 499.359 803.649 553.115 802.497 557.995 C 799.874 558.956 798.133 558.158 795.348 557.462 C 794.384 560.296 793.42 562.963 792.773 565.896 L 788.967 564.925 C 786.878 562.202 787.993 501.167 788.034 492.965 z"/>
<path transform="translate(0,0)" fill="rgb(203,202,202)" d="M 795.825 497.332 C 797.577 496.914 799.338 496.53 801.106 496.181 C 803.654 499.359 803.649 553.115 802.497 557.995 C 799.874 558.956 798.133 558.158 795.348 557.462 C 796.986 552.898 795.895 505.534 795.825 497.332 z"/>
<path transform="translate(0,0)" fill="rgb(97,85,167)" d="M 746.064 664.403 C 747.447 671.56 750.816 680.686 756.398 686.111 C 758.069 687.735 761.868 685.226 764.745 687.475 L 765.039 688.853 L 746.369 688.97 C 746.075 686.893 745.775 685.435 745.306 683.39 C 746.003 679.638 745.985 668.745 746.064 664.403 z"/>
<path transform="translate(0,0)" fill="url(#Gradient27)" d="M 968.882 493.126 C 977.119 493.002 1003.2 491.951 1009.91 494.073 C 1019.23 503.875 1006.47 564.172 1014.54 567.434 C 1018.76 564.762 1061.65 502.626 1069.83 493.221 C 1084.05 492.512 1099.35 493.783 1113.5 492.936 L 1121.24 496.189 C 1124.88 497.785 1123.65 496.762 1125.88 500.062 C 1127.42 508.341 1109.29 534.613 1103.67 538.25 C 1097.31 550.06 1070.54 580.508 1073.3 588.73 C 1078.28 603.595 1120.36 662.747 1121.99 673.516 C 1121.46 674.514 1121.28 675.211 1120.47 675.79 C 1118.18 682.96 1119.07 688.593 1127.33 690.858 C 1126.15 693.042 1124.77 695.833 1122.27 696.2 C 1106.28 698.551 1087.6 696.282 1071.41 697.237 C 1072.43 693.993 1073.15 692.649 1072.06 689.35 C 1069.12 687.236 1039.42 637.911 1033.72 629.534 C 1031.46 627.418 1030.37 623.466 1027.4 619.691 L 1024.54 628.818 C 1026.83 632.357 1027.14 632.96 1031 634.645 C 1031.28 637.072 1026.36 652.92 1025.11 657.814 C 1021.25 672.953 1035.38 709.083 1009.14 704.84 C 998.189 703.07 980.113 707.253 970.959 701.735 C 970.423 701.282 969.344 697.883 969.019 696.974 L 969.721 689.191 C 968.287 686.134 967.891 507.996 968.882 493.126 z M 1015.12 659.916 C 1016.81 653.969 1017.27 649.466 1016.18 643.435 C 1013 649.565 1013.93 653.075 1015.12 659.916 z M 1090.6 535.647 C 1082.58 543.281 1067.83 560.774 1064.56 571.104 C 1065.52 570.76 1067.98 570.023 1068.56 569.194 C 1072.36 563.744 1090.98 540.844 1090.6 535.647 z"/>
<path transform="translate(0,0)" fill="rgb(254,253,254)" fill-opacity="0.109804" d="M 1016.18 643.435 C 1017.27 649.466 1016.81 653.969 1015.12 659.916 C 1013.93 653.075 1013 649.565 1016.18 643.435 z"/>
<path transform="translate(0,0)" fill="rgb(254,253,254)" d="M 1113.5 492.936 L 1121.24 496.189 C 1124.88 497.785 1123.65 496.762 1125.88 500.062 C 1127.42 508.341 1109.29 534.613 1103.67 538.25 C 1097.31 550.06 1070.54 580.508 1073.3 588.73 C 1078.28 603.595 1120.36 662.747 1121.99 673.516 C 1121.46 674.514 1121.28 675.211 1120.47 675.79 C 1118.18 682.96 1119.07 688.593 1127.33 690.858 C 1126.15 693.042 1124.77 695.833 1122.27 696.2 C 1106.28 698.551 1087.6 696.282 1071.41 697.237 C 1072.43 693.993 1073.15 692.649 1072.06 689.35 C 1082.64 688.269 1107.73 688.967 1119.37 688.991 C 1097.03 654.08 1074.14 613.479 1052.82 577.467 C 1069.43 551.789 1095.25 518.212 1113.5 492.936 z M 1090.6 535.647 C 1082.58 543.281 1067.83 560.774 1064.56 571.104 C 1065.52 570.76 1067.98 570.023 1068.56 569.194 C 1072.36 563.744 1090.98 540.844 1090.6 535.647 z"/>
<path transform="translate(0,0)" fill="rgb(254,253,254)" fill-opacity="0.0117647" d="M 1064.56 571.104 C 1067.83 560.774 1082.58 543.281 1090.6 535.647 C 1090.98 540.844 1072.36 563.744 1068.56 569.194 C 1067.98 570.023 1065.52 570.76 1064.56 571.104 z"/>
<path transform="translate(0,0)" fill="rgb(203,202,202)" d="M 1121.24 496.189 C 1124.88 497.785 1123.65 496.762 1125.88 500.062 C 1127.42 508.341 1109.29 534.613 1103.67 538.25 C 1102.98 538.481 1102.14 538.76 1101.16 539.088 C 1091.98 552.049 1074.91 573.246 1066.92 585.528 C 1065.89 584.057 1064.74 581.885 1063.83 580.285 C 1063.91 576.382 1063.91 575.197 1066.09 571.806 L 1064.56 571.104 C 1065.52 570.76 1067.98 570.023 1068.56 569.194 C 1072.36 563.744 1090.98 540.844 1090.6 535.647 L 1092.16 535.405 C 1097.97 529.403 1115.36 504.246 1121.24 496.189 z"/>
<path transform="translate(0,0)" fill="rgb(230,230,230)" d="M 1066.92 585.528 C 1074.91 573.246 1091.98 552.049 1101.16 539.088 C 1102.14 538.76 1102.98 538.481 1103.67 538.25 C 1097.31 550.06 1070.54 580.508 1073.3 588.73 C 1078.28 603.595 1120.36 662.747 1121.99 673.516 C 1121.46 674.514 1121.28 675.211 1120.47 675.79 C 1117.57 669.389 1107.5 653.545 1103.51 646.854 L 1066.92 585.528 z"/>
<path transform="translate(0,0)" fill="rgb(203,202,202)" d="M 1016.18 643.435 C 1015.47 644.077 1023.71 630.073 1024.54 628.818 C 1026.83 632.357 1027.14 632.96 1031 634.645 C 1031.28 637.072 1026.36 652.92 1025.11 657.814 C 1021.25 672.953 1035.38 709.083 1009.14 704.84 C 998.189 703.07 980.113 707.253 970.959 701.735 C 970.423 701.282 969.344 697.883 969.019 696.974 C 981.941 696.808 994.987 697.415 1007.73 697.381 C 1020.36 697.346 1018.51 668.543 1016.57 660.607 L 1015.12 659.916 C 1016.81 653.969 1017.27 649.466 1016.18 643.435 z"/>
<path transform="translate(0,0)" fill="rgb(254,253,254)" d="M 1009.1 636.439 C 1012.28 631.88 1021 618.599 1025.2 615.896 L 1027.18 617.198 L 1027.4 619.691 L 1024.54 628.818 C 1023.71 630.073 1015.47 644.077 1016.18 643.435 C 1013 649.565 1013.93 653.075 1015.12 659.916 L 1016.57 660.607 C 1018.51 668.543 1020.36 697.346 1007.73 697.381 C 994.987 697.415 981.941 696.808 969.019 696.974 L 969.721 689.191 C 979.207 688.407 998.912 688.975 1009.12 688.976 L 1009.1 636.439 z"/>
<path transform="translate(0,0)" fill="url(#Gradient26)" d="M 1479.76 655.823 C 1483.12 627.137 1480.8 595.462 1481.87 566.511 C 1482.24 556.61 1479.87 497.94 1484.79 493.921 C 1489.19 492.863 1512.33 491.637 1515.26 493.529 C 1538.23 508.325 1556.45 551.416 1569.62 575.214 C 1574.96 584.867 1579.11 590.42 1582.92 599.229 C 1588.1 585.434 1585.79 571.045 1585.68 556.564 C 1585.48 535.388 1585.65 514.21 1586.18 493.04 C 1592.55 492.987 1622.6 492.359 1626.68 493.916 C 1630.01 499.745 1629.94 540.576 1630.07 550.195 C 1629.7 565.903 1629.57 581.616 1629.69 597.328 C 1629.26 607.727 1628.72 622.028 1629.11 632.298 C 1628.97 649.67 1628.94 667.043 1629.03 684.416 C 1628.79 685.625 1628.61 688.499 1627.44 688.935 C 1621.76 691.038 1596.62 692.102 1592.44 689.959 C 1586.62 686.165 1535.65 598.036 1526.04 585.116 C 1523.62 597.865 1524.55 609.361 1527.59 621.926 C 1527.76 622.159 1529.52 624.622 1529.52 624.622 C 1530.65 645.45 1530.37 666.683 1529.88 687.54 C 1529.78 691.739 1529.11 693.584 1526.03 696.155 L 1523.7 696.354 L 1523.19 694.915 C 1508.22 692.122 1493.3 697.462 1480.93 690.275 C 1479.22 686.969 1481.56 676.81 1479.09 672.683 L 1472.14 670.288 C 1471.22 665.626 1470.42 660.803 1469.58 656.114 L 1479.76 655.823 z"/>
<path transform="translate(0,0)" fill="rgb(254,253,254)" d="M 1521.94 688.939 C 1521.95 677.636 1521.51 582.93 1522.81 581.183 L 1526.04 585.116 C 1523.62 597.865 1524.55 609.361 1527.59 621.926 C 1527.76 622.159 1529.52 624.622 1529.52 624.622 C 1530.65 645.45 1530.37 666.683 1529.88 687.54 C 1529.78 691.739 1529.11 693.584 1526.03 696.155 L 1523.7 696.354 L 1523.19 694.915 C 1508.22 692.122 1493.3 697.462 1480.93 690.275 C 1486.65 688.033 1514.01 688.844 1521.94 688.939 z"/>
<path transform="translate(0,0)" fill="rgb(251,253,247)" d="M 1625.61 688.975 C 1626.29 642.971 1625.49 596.629 1625.74 550.626 C 1625.79 540.469 1625 500.729 1626.68 493.916 C 1630.01 499.745 1629.94 540.576 1630.07 550.195 C 1629.7 565.903 1629.57 581.616 1629.69 597.328 C 1629.26 607.727 1628.72 622.028 1629.11 632.298 C 1628.97 649.67 1628.94 667.043 1629.03 684.416 C 1628.79 685.625 1628.61 688.499 1627.44 688.935 C 1621.76 691.038 1596.62 692.102 1592.44 689.959 C 1596.46 688.521 1619.49 689.079 1625.61 688.975 z"/>
<path transform="translate(0,0)" fill="rgb(254,253,254)" d="M 1469.58 656.114 L 1479.76 655.823 C 1479.89 659.573 1480.67 669.784 1479.09 672.683 L 1472.14 670.288 C 1471.22 665.626 1470.42 660.803 1469.58 656.114 z"/>
<path transform="translate(0,0)" fill="url(#Gradient25)" d="M 1656.11 493.098 C 1663.83 492.817 1688.3 492.409 1694.97 493.658 C 1704.29 501.601 1695.59 556.679 1700.3 565.294 C 1707.11 568.354 1746.29 566.695 1755.84 566.091 C 1754.56 555.2 1754.8 503.348 1756.14 493.133 C 1768.66 492.593 1783.14 493.292 1796.11 493.021 C 1801.74 500.716 1799.02 533.744 1798.97 544.494 L 1798.67 629.346 C 1798.52 644.559 1800.23 675.913 1799.05 689.09 C 1794.6 693.377 1761.68 692.031 1757.01 689.634 C 1753.74 685.748 1755.45 650.399 1755.05 642.265 C 1754.56 632.134 1753.73 618.962 1754.1 609.051 C 1737.26 608.463 1720.03 609.469 1703.21 608.478 C 1700.51 610.762 1699.25 611.206 1699.19 615.356 C 1698.83 640.497 1699.95 665.223 1699.67 690.483 C 1691.69 690.516 1665.95 691.324 1660.52 689.82 C 1657.62 689.32 1656.22 689.59 1654.28 687.907 C 1653.03 676.176 1653.91 653.197 1653.77 640.075 C 1653.28 592.143 1652.43 540.682 1656.11 493.098 z"/>
<path transform="translate(0,0)" fill="rgb(251,253,247)" d="M 1796.11 493.021 C 1801.74 500.716 1799.02 533.744 1798.97 544.494 L 1798.67 629.346 C 1798.52 644.559 1800.23 675.913 1799.05 689.09 C 1794.6 693.377 1761.68 692.031 1757.01 689.634 C 1767.39 688.462 1784.75 688.928 1795.66 688.906 C 1796.54 644.034 1795.08 597.79 1795.75 552.82 C 1796.04 533.296 1795.09 512.408 1796.11 493.021 z"/>
<path transform="translate(0,0)" fill="rgb(254,253,254)" d="M 1695.99 689.056 L 1695.89 638.308 C 1695.88 630.272 1695.37 616.168 1696.52 608.916 C 1698.72 607.591 1700.54 608.173 1703.21 608.478 C 1700.51 610.762 1699.25 611.206 1699.19 615.356 C 1698.83 640.497 1699.95 665.223 1699.67 690.483 C 1691.69 690.516 1665.95 691.324 1660.52 689.82 C 1665.81 688.613 1689.23 689.039 1695.99 689.056 z"/>
<path transform="translate(0,0)" fill="url(#Gradient24)" d="M 1299.52 655.825 C 1307.81 640.109 1314.16 619.173 1320.05 602.133 L 1345.08 530.363 C 1362.63 479.658 1352.15 495.861 1399.94 492.71 C 1400.87 493.404 1402.07 494.297 1403.54 495.39 C 1407.47 503.904 1411.33 529.642 1419.41 533.876 L 1421.67 533.477 C 1423.27 531.049 1423.58 530.147 1424.6 527.406 C 1429.07 539.369 1420.19 544.688 1425.16 551.273 L 1426.88 551.698 C 1429.29 553.884 1429.4 554.415 1430.41 557.544 C 1427.92 561.976 1427.61 570.647 1433.89 570.797 L 1438.46 565.1 C 1441.29 574.244 1448.91 588.262 1447.51 594.951 C 1445.41 596.857 1444.94 596.432 1441.85 597.001 C 1440.22 602.099 1442.08 608.125 1446.86 610.763 C 1449.54 608.679 1450.38 607.52 1452.17 604.786 L 1452.48 605.331 L 1451.24 607.106 C 1456.17 609.501 1455.19 611.115 1459.92 615.68 C 1461.21 624.399 1461.07 627.143 1466.87 633.883 C 1466.22 643.504 1464.57 648.309 1469.58 656.114 C 1470.42 660.803 1471.22 665.626 1472.14 670.288 L 1470.33 671.734 C 1464.73 679.166 1467.81 685.308 1473.98 691.206 C 1475.67 691.751 1477.48 692.384 1479.2 692.786 C 1483.35 693.549 1484.34 694.296 1487.96 696.37 C 1479.67 697.655 1479.28 695.351 1474.95 695.81 C 1459.03 697.501 1441.34 696.267 1426.08 697.163 C 1427.68 693.203 1427.87 693.289 1427 689.689 C 1422.7 687.383 1414.08 659.902 1411.68 652.587 C 1393.97 649.338 1378.19 651.163 1360.13 650.649 C 1354.41 649.332 1349.53 649.589 1343.71 649.613 C 1341.34 657.242 1336.55 674.434 1333.68 681.09 C 1333.02 680.911 1333.46 680.999 1332.26 681.013 L 1331.2 681.03 C 1325.6 670.585 1304.39 667.701 1299.52 655.825 z M 1384.25 612.162 C 1389.76 612.047 1395.86 612.079 1401.29 611.407 C 1392.75 595.478 1385.34 561.028 1376.79 553.563 C 1375.02 566.046 1368.92 585.072 1364.71 597.349 C 1363.63 600.492 1359.3 608.291 1359.93 610.761 C 1364.64 612.793 1378.56 612.216 1384.25 612.162 z"/>
<path transform="translate(0,0)" fill="rgb(254,253,254)" d="M 1399.94 492.71 C 1400.87 493.404 1402.07 494.297 1403.54 495.39 C 1407.47 503.904 1411.33 529.642 1419.41 533.876 L 1421.67 533.477 C 1423.27 531.049 1423.58 530.147 1424.6 527.406 C 1429.07 539.369 1420.19 544.688 1425.16 551.273 L 1426.88 551.698 C 1429.29 553.884 1429.4 554.415 1430.41 557.544 C 1427.92 561.976 1427.61 570.647 1433.89 570.797 L 1438.46 565.1 C 1441.29 574.244 1448.91 588.262 1447.51 594.951 C 1445.41 596.857 1444.94 596.432 1441.85 597.001 C 1440.22 602.099 1442.08 608.125 1446.86 610.763 C 1449.54 608.679 1450.38 607.52 1452.17 604.786 L 1452.48 605.331 L 1451.24 607.106 C 1456.17 609.501 1455.19 611.115 1459.92 615.68 C 1461.21 624.399 1461.07 627.143 1466.87 633.883 C 1466.22 643.504 1464.57 648.309 1469.58 656.114 C 1470.42 660.803 1471.22 665.626 1472.14 670.288 L 1470.33 671.734 C 1464.73 679.166 1467.81 685.308 1473.98 691.206 C 1475.67 691.751 1477.48 692.384 1479.2 692.786 C 1483.35 693.549 1484.34 694.296 1487.96 696.37 C 1479.67 697.655 1479.28 695.351 1474.95 695.81 C 1459.03 697.501 1441.34 696.267 1426.08 697.163 C 1427.68 693.203 1427.87 693.289 1427 689.689 C 1431.14 688.442 1461.72 688.858 1467.57 688.872 L 1421.19 555.487 C 1415.5 538.893 1403.85 508.515 1399.94 492.71 z"/>
<path transform="translate(0,0)" fill="rgb(203,202,202)" d="M 1446.86 610.763 C 1449.54 608.679 1450.38 607.52 1452.17 604.786 L 1452.48 605.331 L 1451.24 607.106 C 1456.17 609.501 1455.19 611.115 1459.92 615.68 C 1461.21 624.399 1461.07 627.143 1466.87 633.883 C 1466.22 643.504 1464.57 648.309 1469.58 656.114 C 1470.42 660.803 1471.22 665.626 1472.14 670.288 L 1470.33 671.734 C 1468.85 668.295 1467.4 664.055 1466.2 660.496 C 1463.74 653.271 1463.72 653.811 1457.35 649.944 C 1452.55 642.346 1458.17 642.236 1457.57 634.7 C 1455.68 630.924 1456.34 632.065 1452.22 629.72 C 1449.27 623.29 1454.84 616.338 1446.86 610.763 z"/>
<path transform="translate(0,0)" fill="rgb(203,202,202)" d="M 1433.89 570.797 L 1438.46 565.1 C 1441.29 574.244 1448.91 588.262 1447.51 594.951 C 1445.41 596.857 1444.94 596.432 1441.85 597.001 C 1442.78 594.998 1442.53 595.735 1442.31 593.335 C 1437.52 589.43 1439.72 576.793 1433.89 570.797 z"/>
<path transform="translate(0,0)" fill="url(#Gradient23)" d="M 665.252 185.542 C 669.235 183.453 672.585 182.32 676.815 180.789 C 664.075 206.891 659.339 224.313 669.917 253.486 C 683.036 289.663 695.519 317.692 677.999 355.826 C 676.697 358.659 674.694 361.029 674.9 363.912 C 690.823 371.759 706.075 334.56 713.129 326.059 C 722.291 349.842 720.83 382.043 710.502 405.329 C 698.503 432.382 676.359 449.521 649.162 459.944 C 641.561 462.789 633.765 465.084 625.835 466.809 C 616.179 468.666 604.093 468.51 594.175 468.507 C 607.233 462.813 613.026 455.929 623.384 447.797 C 635.064 431.267 636.094 430.471 635.963 410.466 C 627.391 417.547 626.12 421.406 615.735 426.316 C 609.569 425.403 598.971 423.813 597.498 416.7 C 593.842 399.054 614.413 380.779 621.121 363.51 C 622.021 359.376 622.263 356.705 622.635 352.483 C 622.386 348.936 621.349 344.166 620.665 340.561 C 625.628 337.945 628.443 322.495 629.863 316.975 C 627.181 310.42 602.613 301.383 596.431 303.171 C 605.197 288.035 607.274 276.202 611.332 259.314 C 617.879 221.781 630.752 202.328 665.252 185.542 z"/>
<path transform="translate(0,0)" fill="url(#Gradient22)" d="M 611.332 259.314 C 618.544 259.668 634.995 257.575 637.647 263.682 L 638.477 261.213 C 640.906 271.917 645.232 286.709 646.932 296.927 C 644.668 314.152 633.759 299.427 629.863 316.975 C 627.181 310.42 602.613 301.383 596.431 303.171 C 605.197 288.035 607.274 276.202 611.332 259.314 z"/>
<path transform="translate(0,0)" fill="url(#Gradient21)" d="M 665.252 185.542 C 662.285 189.665 658.081 193.926 654.734 197.932 C 637.829 218.161 635.901 236.08 638.477 261.213 L 637.647 263.682 C 634.995 257.575 618.544 259.668 611.332 259.314 C 617.879 221.781 630.752 202.328 665.252 185.542 z"/>
<path transform="translate(0,0)" fill="url(#Gradient20)" d="M 646.932 296.927 C 651.515 313.907 653.073 328.293 649.972 345.915 C 643.028 342.848 628.178 340.738 622.992 347.918 L 622.635 352.483 C 622.386 348.936 621.349 344.166 620.665 340.561 C 625.628 337.945 628.443 322.495 629.863 316.975 C 633.759 299.427 644.668 314.152 646.932 296.927 z"/>
<path transform="translate(0,0)" fill="rgb(235,65,56)" d="M 623.384 447.797 C 631.155 446.179 626.917 441.364 633.975 445.19 C 630.897 454.113 637.03 449.522 639.253 455.396 C 636.426 459.978 633.856 458.137 630.479 463.651 C 627.878 463.996 626 463.912 624.077 465.575 L 625.835 466.809 C 616.179 468.666 604.093 468.51 594.175 468.507 C 607.233 462.813 613.026 455.929 623.384 447.797 z"/>
<path transform="translate(0,0)" fill="rgb(183,129,93)" d="M 622.635 352.483 L 622.992 347.918 C 628.178 340.738 643.028 342.848 649.972 345.915 C 649.133 349.856 647.323 358.467 644.333 361.258 C 645.057 357.969 645.59 356.722 646.844 353.713 C 643.425 351.164 629.147 351.328 625.261 353.12 C 623.724 359.615 625.242 359.735 621.121 363.51 C 622.021 359.376 622.263 356.705 622.635 352.483 z"/>
<path transform="translate(0,0)" fill="rgb(235,65,56)" d="M 629.512 408.892 L 629.494 411.506 C 625.464 419.834 616.739 423.945 607.79 423.538 C 615.65 418.916 608.384 410.609 623.915 414.324 C 627.027 413.412 627.776 411.59 629.512 408.892 z"/>
<path transform="translate(0,0)" fill="url(#Gradient19)" d="M 404.531 758.075 C 378.379 731.716 305.067 753.705 298.17 749.183 C 296.339 745.949 296.531 747.321 297.165 744.016 C 302.011 738.933 343.868 734.954 352.673 735.088 C 380.98 735.518 418.736 735.093 418.913 773.111 C 419.057 803.955 411.121 829.83 388.138 851.173 C 386.163 853.007 383.528 855.596 382.363 858.081 C 384.064 869.813 380.721 874.245 370.407 879.69 C 357.551 891.076 311.204 895.907 295.851 887.767 C 289.968 884.647 288.997 881.235 287.124 875.366 C 278.897 871.544 272.251 868.962 263.968 863.65 C 241.067 848.964 208.264 805.572 225.273 777.945 C 229.625 770.875 247.186 754.853 256.965 761.947 C 257.559 766.297 256.147 767.883 252.431 770.136 C 216.819 791.723 228.145 800.771 262.404 806.926 C 279.842 808.433 297.657 807.215 315.052 805.648 C 313.903 767.26 344.475 746.349 380.291 757.692 C 389.12 760.488 396.19 775.721 404.39 768.271 C 405.999 764.389 405.264 762.23 404.531 758.075 z M 297.54 864.118 L 297.262 862.324 C 286.424 856.574 275.721 851.421 266.792 842.774 C 260.671 836.847 250.901 819.453 244.801 818.263 C 237.137 834.657 270.183 856.274 283.209 861.857 C 288.703 864.212 291.684 864.524 297.54 864.118 z M 341.422 775.201 C 344.672 770.851 352.067 769.979 354.744 769.115 C 368.327 764.734 385.83 781.265 392.29 778.876 C 391.558 768.479 367.465 760.818 358.614 761.401 C 343.067 762.843 321.114 782.213 321.171 797.446 C 324.234 804.499 332.614 801.532 332.803 799.105 C 333.84 785.757 329.483 784.402 341.422 775.201 z M 353.165 784.004 L 354.052 783.788 C 366.07 780.946 372.048 789.412 379.856 785.302 C 377.388 777.187 362.922 775.189 355.918 775.096 C 348.694 779.749 338.005 786.731 339.207 796.736 C 341.19 798.846 340.005 798.255 342.875 798.578 C 349.623 793.668 341.836 789.434 353.165 784.004 z"/>
<path transform="translate(0,0)" fill="url(#Gradient18)" d="M 287.124 875.366 C 278.897 871.544 272.251 868.962 263.968 863.65 C 241.067 848.964 208.264 805.572 225.273 777.945 C 229.625 770.875 247.186 754.853 256.965 761.947 C 257.559 766.297 256.147 767.883 252.431 770.136 C 216.819 791.723 228.145 800.771 262.404 806.926 C 268.091 811.062 266.597 807.307 269.219 810.434 C 267.43 814.694 266.778 814.431 267.294 818.413 C 270.264 821.917 281.124 824.87 286.905 828.089 C 295.39 832.815 302.422 842.338 309.108 847.034 C 318.561 853.672 346.478 869.029 346.584 883.309 C 351.036 883.697 364.395 880.468 368.58 878.687 L 370.407 879.69 C 357.551 891.076 311.204 895.907 295.851 887.767 C 289.968 884.647 288.997 881.235 287.124 875.366 z M 297.54 864.118 L 297.262 862.324 C 286.424 856.574 275.721 851.421 266.792 842.774 C 260.671 836.847 250.901 819.453 244.801 818.263 C 237.137 834.657 270.183 856.274 283.209 861.857 C 288.703 864.212 291.684 864.524 297.54 864.118 z"/>
<path transform="translate(0,0)" fill="url(#Gradient17)" d="M 404.531 758.075 C 378.379 731.716 305.067 753.705 298.17 749.183 C 296.339 745.949 296.531 747.321 297.165 744.016 C 302.011 738.933 343.868 734.954 352.673 735.088 C 380.98 735.518 418.736 735.093 418.913 773.111 C 419.057 803.955 411.121 829.83 388.138 851.173 C 386.163 853.007 383.528 855.596 382.363 858.081 L 382.413 859.307 L 381.348 859.876 C 379.151 854.123 386.961 849.177 391.23 844.547 C 400.538 834.387 407.516 822.317 411.678 809.181 C 415.444 797.471 419.111 770.044 414.034 760.114 C 411.293 757.869 408.139 758.202 404.531 758.075 z"/>
<path transform="translate(0,0)" fill="rgb(97,85,167)" d="M 1288.37 242.191 C 1260.75 233.483 1239.36 226.879 1210.88 220.746 C 1089.59 194.654 963.354 203.929 847.177 247.468 C 813.324 259.863 780.596 275.362 749.391 293.148 C 744.558 295.903 738.05 298.653 732.942 295.447 C 728.734 281.471 790.065 253.749 802.453 247.81 C 925.368 188.676 1063.24 167.915 1198.12 188.231 C 1217.63 191.188 1253.99 197.224 1272.5 203.733 C 1272.69 203.991 1272.87 204.258 1273.08 204.508 C 1275.87 207.929 1332.95 221.816 1335.37 225.377 C 1335.59 225.702 1336.19 237.351 1337.22 240.091 C 1339.24 245.517 1337.9 253.017 1338.05 258.848 C 1333.64 257.564 1325.9 253.482 1320.57 251.324 C 1308.25 246.335 1296.04 242.414 1283.71 237.796 L 1284.02 239.395 C 1285.67 240.303 1286.98 240.897 1288.37 242.191 z"/>
<path transform="translate(0,0)" fill="url(#Gradient16)" d="M 1462.49 739.687 C 1498.94 735.273 1532.07 761.239 1536.49 797.687 C 1540.91 834.135 1514.95 867.267 1478.5 871.694 C 1442.04 876.122 1408.9 850.154 1404.48 813.697 C 1400.06 777.239 1426.03 744.102 1462.49 739.687 z M 1431.75 806.151 C 1435.98 828.897 1447.87 846.466 1473.21 846.153 C 1484.94 843.884 1492.19 840.887 1500.11 829.481 C 1517.48 804.471 1501.68 761.951 1468.01 763.988 C 1467.8 764.035 1467.59 764.082 1467.39 764.129 C 1437.38 774.246 1442.09 781.097 1431.75 806.151 z"/>
<path transform="translate(0,0)" fill="rgb(21,176,141)" d="M 1315.89 739.685 C 1352.41 735.804 1385.14 762.321 1388.92 798.854 C 1392.7 835.386 1366.09 868.042 1329.55 871.719 C 1293.15 875.382 1260.65 848.901 1256.89 812.513 C 1253.12 776.124 1279.51 743.551 1315.89 739.685 z M 1283.92 808.758 C 1290.89 830.931 1299.57 845.855 1325.55 846.296 C 1379.49 835.678 1362.49 760.999 1321.69 764.174 C 1290.38 772.709 1292.23 781.345 1283.92 808.758 z"/>
<path transform="translate(0,0)" fill="url(#Gradient15)" d="M 1569.75 741.348 C 1583.55 740.59 1598.22 741.856 1612.01 741.672 C 1669.58 740.901 1691.49 820.914 1650.14 855.758 C 1644.48 860.163 1637.9 864.121 1631.07 866.397 C 1621.22 869.681 1571.73 871.484 1563.22 866.79 C 1561 865.564 1560.34 864.839 1559.64 862.449 C 1556.38 851.416 1556.49 753.786 1560.54 747.095 C 1562.84 743.292 1565.71 742.348 1569.75 741.348 z M 1585.1 842.851 C 1598.26 848.186 1619.56 844.836 1630.23 835.447 C 1646.6 821.043 1647.59 794.093 1633.45 777.984 C 1621.46 764.324 1605.1 766.001 1589.01 765.358 C 1581.46 776.832 1589.49 830.927 1585.1 842.851 z"/>
<path transform="translate(0,0)" fill="rgb(251,253,247)" d="M 1585.1 842.851 L 1584.2 842.09 C 1583.4 839.973 1583.43 839.766 1583.46 836.453 C 1583.63 813.259 1583.06 789.952 1583.53 766.765 C 1584.02 766.269 1584.51 765.773 1585 765.277 L 1589.01 765.358 C 1581.46 776.832 1589.49 830.927 1585.1 842.851 z"/>
<path transform="translate(0,0)" fill="url(#Gradient14)" d="M 691.065 742.218 C 708.563 740.577 732.946 741.448 750.095 742.534 C 775.422 744.138 790.285 769.126 785.507 792.757 C 782.262 808.803 774.204 814.429 761.884 823.048 C 767.463 831.751 790.079 853.136 783.293 865.136 C 778.246 874.06 766.877 871.574 759.429 865.994 C 757.402 863.492 756.041 860.799 754.021 858.258 C 745.959 848.116 738.041 828.367 723.949 826.31 C 716.838 825.272 710.129 828.184 709.886 836.03 C 709.558 846.649 713.852 860.759 704.881 869.06 C 696.763 876.462 684.313 867.235 683.357 857.853 C 682.867 853.046 683.979 846.876 683.631 841.932 C 682.977 819.376 684.152 796.819 683.548 774.276 C 683.225 762.213 680.073 750.348 691.065 742.218 z M 710.436 802.152 C 722.37 803.062 738.002 804.758 749.085 800.143 C 754.397 795.98 756.918 794.796 757.853 787.853 C 761.306 762.21 731.389 765.549 714.444 765.138 C 711.742 767.139 710.134 767.572 709.655 771.04 C 708.303 780.822 710.921 792.755 710.436 802.152 z"/>
<path transform="translate(0,0)" fill="url(#Gradient13)" d="M 551.719 490.928 L 553.175 490.403 C 559.07 494.38 559.569 499.257 561.051 506.087 C 555.85 517.695 564.005 526.168 552.886 533.784 C 552.721 539.374 553.91 539.021 549.75 542.522 C 546.931 554.805 549.253 607.23 549.083 621.777 C 548.949 633.257 548.951 647.596 548.25 659.551 C 547.872 666.006 550.245 685.148 546.825 689.486 C 541.883 692.005 536.322 690.513 530.816 689.686 C 525.993 690.301 509.221 689.312 503.822 688.879 C 504.503 681.719 504.199 668.255 504.256 660.622 C 504.077 607.955 505.777 543.891 502.652 492.035 L 545.001 491.974 L 551.719 490.928 z"/>
<path transform="translate(0,0)" fill="rgb(254,253,254)" d="M 551.719 490.928 L 553.175 490.403 C 559.07 494.38 559.569 499.257 561.051 506.087 C 555.85 517.695 564.005 526.168 552.886 533.784 C 552.721 539.374 553.91 539.021 549.75 542.522 C 546.931 554.805 549.253 607.23 549.083 621.777 C 548.949 633.257 548.951 647.596 548.25 659.551 C 547.872 666.006 550.245 685.148 546.825 689.486 C 541.883 692.005 536.322 690.513 530.816 689.686 C 534.44 689.186 541.011 689.211 544.876 689.11 L 545.001 491.974 L 551.719 490.928 z"/>
<path transform="translate(0,0)" fill="rgb(203,202,202)" d="M 553.175 490.403 C 559.07 494.38 559.569 499.257 561.051 506.087 C 555.85 517.695 564.005 526.168 552.886 533.784 C 551.976 525.831 553.097 500.245 553.175 490.403 z"/>
<path transform="translate(0,0)" fill="rgb(47,139,200)" d="M 504.256 660.622 L 505.638 656.012 C 506.883 658.188 506.498 667.414 506.511 670.527 C 509.549 673.34 511.055 674.392 512.494 678.28 C 512.014 685.598 508.213 684.577 503.822 688.879 C 504.503 681.719 504.199 668.255 504.256 660.622 z"/>
<path transform="translate(0,0)" fill="url(#Gradient12)" d="M 939.187 741.375 C 961.039 740.958 983.17 740.853 1005 741.351 C 1011.08 741.489 1017.19 748.767 1017.39 754.77 C 1017.48 757.465 1016.46 760.079 1014.57 761.998 C 1007.65 768.877 976.9 765.64 966.245 765.328 C 946.945 764.764 951.253 773.437 951.111 791.687 C 961.298 792.686 1002.05 790.112 1005.83 797.132 C 1023.41 829.738 963.556 810.137 951.437 818.71 C 949.975 821.5 950.08 822.062 950.224 825.244 C 951.37 832.387 951.154 837.394 951.063 844.603 C 966.62 845.732 997.274 842.084 1010.27 847.125 C 1013.61 848.421 1017.19 850.684 1018.49 854.204 C 1019.23 856.209 1018.84 858.608 1018.02 860.528 C 1016.46 864.156 1014.14 867.344 1010.38 868.825 C 1005.56 870.717 947.154 870.608 938.745 869.918 C 935.116 869.62 932.005 868.871 928.658 867.448 C 919.469 859.281 925.152 773.448 923.793 756.861 C 922.78 744.489 928.507 742.637 939.187 741.375 z"/>
<path transform="translate(0,0)" fill="url(#Gradient11)" d="M 825.094 741.457 C 835.08 741.358 891.182 739.21 896.916 743.737 C 899.663 745.906 903.531 751.656 903.583 755.23 C 903.885 776.27 846.273 758.555 836.428 767.888 C 835.329 771.714 835.721 786.411 835.581 791.707 C 851.897 794.017 868.501 790.956 884.767 793.164 C 894.529 794.024 896.654 813.113 887.418 815.709 C 876.72 818.716 845.288 813.252 836.797 818.184 C 835.244 821.064 835.589 819.768 835.705 823.243 C 836.075 830.1 835.657 836.273 836.276 843.487 C 850.491 852.177 915.158 830.745 900.668 865.091 C 897.011 873.759 867.111 868.986 858.77 869.424 C 847.722 870.005 834.881 869.872 823.754 869.54 C 807.174 869.045 808.45 856.784 808.784 844.096 C 809.614 815.138 808.057 785.888 808.881 756.918 C 809.251 743.893 813.523 742.425 825.094 741.457 z"/>
<path transform="translate(0,0)" fill="rgb(47,139,200)" d="M 1272.5 203.733 C 1343.77 219.093 1421.26 259.377 1481.3 299.925 C 1495.68 309.635 1531.03 331.298 1507.2 350.255 C 1503.68 353.053 1494.55 354.588 1489.79 353.058 C 1469.7 340.605 1445.87 321.342 1425.66 308.445 C 1379.98 279.296 1338.55 260.769 1288.37 242.191 C 1286.98 240.897 1285.67 240.303 1284.02 239.395 L 1283.71 237.796 C 1296.04 242.414 1308.25 246.335 1320.57 251.324 C 1325.9 253.482 1333.64 257.564 1338.05 258.848 C 1337.9 253.017 1339.24 245.517 1337.22 240.091 C 1336.19 237.351 1335.59 225.702 1335.37 225.377 C 1332.95 221.816 1275.87 207.929 1273.08 204.508 C 1272.87 204.258 1272.69 203.991 1272.5 203.733 z"/>
<path transform="translate(0,0)" fill="rgb(235,65,56)" d="M 497.783 739.284 C 498.3 739.252 498.817 739.226 499.334 739.205 C 515.475 738.557 546.937 743.299 546.521 764.409 C 545.24 780.601 523.292 769.973 515.06 766.837 C 506.366 763.597 496.473 760.686 489.043 768.205 C 475.451 781.96 496.101 787.563 505.986 790.606 C 518.383 794.423 531.334 797.342 540.86 806.599 C 556.134 821.441 555.189 846.496 539.92 860.946 C 529.584 870.734 519.577 871.415 506.25 871.154 C 488.204 871.11 477.831 868.862 462.164 858.254 C 452.657 851.817 450.985 836.836 463.244 833.739 C 473.371 832.428 483.9 841.183 493.119 844.132 C 528.337 855.396 538.041 824.658 499.404 817.467 C 483.544 813.562 459.92 805.078 458.23 785.961 C 455.542 755.555 471.087 743.968 497.783 739.284 z"/>
<path transform="translate(0,0)" fill="url(#Gradient10)" d="M 1168.2 741.441 C 1175.05 741.49 1231.16 740.53 1235.15 741.716 C 1238.51 742.704 1241.33 744.997 1242.98 748.08 C 1244.86 751.599 1244.89 754.801 1244 758.355 C 1239.95 774.594 1192.83 759.713 1180.78 766.488 C 1178.86 767.57 1177.41 786.853 1176.05 792.602 C 1191.23 795.862 1206.88 793.051 1222.25 794.409 C 1235.66 795.594 1241 805.218 1234.07 816.945 C 1221.7 822.332 1197.78 816.579 1184.93 818.762 C 1166.12 821.959 1191.05 869.429 1166.58 870.966 C 1155.65 871.653 1151.13 865.589 1151 855.325 C 1150.67 821.837 1151.71 788.467 1150.32 754.993 C 1149.86 744.025 1159.93 741.934 1168.2 741.441 z"/>
<path transform="translate(0,0)" fill="rgb(132,189,75)" d="M 1735.52 232.476 C 1742.73 233.371 1758.39 236.352 1762.43 231.548 C 1775.22 216.299 1758.33 196.921 1740.81 211.647 C 1737.78 214.186 1734.95 213.976 1731.68 212.704 C 1730.45 210.892 1729.45 209.68 1730.41 207.291 C 1738.26 187.701 1770.65 192.124 1777.08 210.948 C 1781.94 225.179 1776.34 239.971 1762.26 245.678 C 1750.65 250.45 1740.5 239.236 1730.77 250.537 C 1727.84 253.931 1720.95 258.95 1724.32 264.269 C 1734.78 280.761 1744.32 287.02 1721.11 299.229 C 1717.58 309.17 1712.96 323.032 1699.45 320.129 C 1691.21 319.761 1682.6 304.386 1678.2 297.955 C 1677.37 296.722 1674.2 293.826 1672.96 292.63 C 1663.68 282.583 1643.4 278.734 1652.09 262.721 C 1655.55 259.872 1665.15 254.263 1669.4 251.657 C 1670.52 246.6 1670.98 243.326 1673.74 238.867 C 1693.09 224.225 1702.6 256.25 1716.48 247.119 C 1720.83 244.257 1726.03 237.29 1732.98 233.715 L 1733.84 233.263 C 1734.4 233.001 1734.96 232.738 1735.52 232.476 z"/>
<path transform="translate(0,0)" fill="rgb(15,127,67)" d="M 1672.96 292.63 C 1663.68 282.583 1643.4 278.734 1652.09 262.721 C 1656.92 271.06 1664.45 275.121 1672.45 280.488 C 1675.99 283.501 1678.35 285.468 1681.43 289.014 C 1686.71 295.091 1692.03 309.709 1701.31 308.96 C 1705.79 307.228 1707.2 303.97 1709.09 299.73 L 1709.49 298.81 C 1714.08 292.175 1717.7 289.703 1725.81 289.471 L 1726.68 290.565 C 1718.83 301.93 1718.07 297.417 1712.49 312.867 C 1707.09 316.945 1705.76 317.691 1699.45 320.129 C 1691.21 319.761 1682.6 304.386 1678.2 297.955 C 1677.37 296.722 1674.2 293.826 1672.96 292.63 z"/>
<path transform="translate(0,0)" fill="rgb(82,167,79)" d="M 1669.4 251.657 C 1670.52 246.6 1670.98 243.326 1673.74 238.867 C 1677.9 252.367 1663.49 256.712 1662.8 258.863 L 1663.7 260.252 C 1673.29 255.71 1679.69 256.516 1690.41 258.83 C 1694.88 259.342 1698.12 259.358 1701.95 261.676 L 1702.76 263.281 C 1700.77 265.385 1697.12 265.749 1694.12 266.089 L 1693.23 266.301 C 1685.33 268.119 1674.42 266.694 1668.26 269.293 C 1666.36 272.839 1670.29 276.788 1673.14 278.807 C 1676.99 281.456 1679.84 283.923 1683.43 286.859 C 1687.18 289.927 1688.53 290.767 1691.96 287.288 C 1696.36 292.985 1696.67 303.702 1702.4 306.242 C 1706.31 303.39 1704.57 301.547 1709.49 298.81 L 1709.09 299.73 C 1707.2 303.97 1705.79 307.228 1701.31 308.96 C 1692.03 309.709 1686.71 295.091 1681.43 289.014 C 1678.35 285.468 1675.99 283.501 1672.45 280.488 C 1664.45 275.121 1656.92 271.06 1652.09 262.721 C 1655.55 259.872 1665.15 254.263 1669.4 251.657 z"/>
<path transform="translate(0,0)" fill="rgb(15,127,67)" d="M 1690.41 258.83 C 1694.88 259.342 1698.12 259.358 1701.95 261.676 L 1702.76 263.281 C 1700.77 265.385 1697.12 265.749 1694.12 266.089 C 1685.7 266.325 1674.91 267.435 1667.42 263.492 L 1667.17 262.005 C 1672.89 258.209 1683.54 258.864 1690.41 258.83 z"/>
<path transform="translate(0,0)" fill="rgb(15,127,67)" d="M 1691.86 276.269 C 1697.3 275.893 1715.98 275.572 1718.09 280.785 C 1716.15 282.732 1713.79 282.648 1710.92 283.042 C 1702.76 284.227 1690.52 284.88 1683.03 280.986 L 1682.58 279.222 C 1684.92 276.785 1688.44 276.748 1691.86 276.269 z"/>
<path transform="translate(0,0)" fill="url(#Gradient9)" d="M 1045.87 741.443 C 1070.12 741.495 1094.31 741.024 1118.57 741.311 C 1127.09 741.411 1134.89 746.887 1133.68 756.307 C 1131.19 775.707 1106.27 761.381 1097.08 768.375 C 1095.41 772.559 1095.49 836.036 1095.14 846.032 C 1095.4 855.346 1096.55 868.433 1083.8 871.039 C 1078.84 872.053 1069.47 868.604 1069.11 862.746 C 1067.16 831.06 1068.59 799.111 1067.54 767.248 C 1062.33 766.834 1052.91 766.724 1047.53 766.975 C 1033.77 767.618 1022.54 758.585 1033.27 745.393 C 1036.59 741.311 1040.68 741.762 1045.87 741.443 z"/>
<path transform="translate(0,0)" fill="rgb(235,65,56)" d="M 577.386 741.373 C 599.522 741.848 638.837 739.86 658.636 742.237 C 660.981 744.481 663.751 747.862 665.054 750.805 C 674.376 771.86 638.351 763.62 628.783 768.167 C 625.431 772.342 627.096 831.565 627.185 842.75 C 627.021 848.043 627.465 854.419 627.698 859.789 C 627.12 861.066 626.508 862.328 625.862 863.572 C 621.21 872.426 614.431 872.844 605.365 868.337 C 599.877 865.609 600.494 854.981 600.442 849.314 C 600.193 821.955 601.886 794.328 599.516 767.005 C 586.351 765.862 553.676 771.866 563.583 747.421 C 565.732 742.119 572.478 741.899 577.386 741.373 z"/>
<path transform="translate(0,0)" fill="url(#Gradient8)" d="M 1547.1 362.787 C 1550.99 358.403 1555.26 352.872 1561.04 351.526 C 1567.89 352.246 1571.37 361.108 1574.99 361.951 C 1584.37 366.653 1578.51 372.346 1586.84 370.395 C 1589.84 373.257 1592.42 375.767 1595.22 378.818 L 1591.84 383.769 C 1602.14 390.723 1603.77 395.662 1607.58 398.659 C 1608.77 400.902 1610.79 404.77 1609.39 407.277 C 1603.61 417.646 1593.64 430.639 1582.68 435.528 C 1571.19 440.652 1556.62 428.249 1547.96 421.312 C 1540.4 429.709 1519.62 451.384 1510.08 455.681 L 1509.23 456.441 C 1504.92 456.39 1503.04 458.295 1499.56 457.094 C 1500.72 448.019 1532.68 420.891 1540.19 413.907 C 1539.16 411.815 1536.01 408.151 1534.53 406.135 C 1515.25 379.837 1526.39 377.682 1547.1 362.787 z"/>
<path transform="translate(0,0)" fill="rgb(15,127,67)" d="M 1547.1 362.787 C 1550.99 358.403 1555.26 352.872 1561.04 351.526 C 1567.89 352.246 1571.37 361.108 1574.99 361.951 C 1584.37 366.653 1578.51 372.346 1586.84 370.395 C 1589.84 373.257 1592.42 375.767 1595.22 378.818 L 1591.84 383.769 C 1602.14 390.723 1603.77 395.662 1607.58 398.659 C 1607.2 401.327 1606.8 403.992 1606.38 406.654 C 1604.3 406.93 1601.96 402.392 1599.17 400.144 C 1590.76 393.368 1581.04 389.81 1573.58 381.798 C 1567.59 375.364 1566.32 364.493 1558.58 360.121 C 1554.79 359.603 1550.78 361.463 1547.1 362.787 z"/>
<path transform="translate(0,0)" fill="rgb(82,167,79)" d="M 1591.84 383.769 C 1585.97 381.343 1574.43 368.53 1574.99 361.951 C 1584.37 366.653 1578.51 372.346 1586.84 370.395 C 1589.84 373.257 1592.42 375.767 1595.22 378.818 L 1591.84 383.769 z"/>
<path transform="translate(0,0)" fill="rgb(15,127,67)" d="M 1540.19 413.907 L 1545.79 419.998 C 1538.57 428.175 1518.82 447.489 1510.42 454.173 L 1510.08 455.681 L 1509.23 456.441 C 1504.92 456.39 1503.04 458.295 1499.56 457.094 C 1500.72 448.019 1532.68 420.891 1540.19 413.907 z"/>
<path transform="translate(0,0)" fill="rgb(143,57,41)" d="M 1546.5 392.167 C 1553.6 391.924 1573.42 390.292 1578.5 395.469 L 1577.85 397.113 L 1574.77 398.394 C 1567.86 399.181 1547.29 400.741 1542.16 395.994 C 1543.12 393.141 1543.16 393.857 1546.5 392.167 z"/>
<path transform="translate(0,0)" fill="rgb(143,57,41)" d="M 1563.5 407.219 C 1569.46 406.992 1586.49 405.454 1589.92 410.594 C 1588.09 413.224 1587.91 412.64 1584.44 413.826 C 1577.91 414.079 1563.16 415.309 1558.67 410.693 C 1560.33 408.022 1560.32 408.63 1563.5 407.219 z"/>
<path transform="translate(0,0)" fill="rgb(143,57,41)" d="M 1542.4 377.224 C 1548.35 376.887 1559.7 375.707 1563.85 380.219 C 1562.77 382.551 1562.75 381.932 1559.76 383.397 C 1554.04 383.834 1541.72 385.245 1537.97 380.725 C 1539.41 378.106 1539.17 378.856 1542.4 377.224 z"/>
<path transform="translate(0,0)" fill="rgb(47,139,200)" d="M 973.463 900.971 C 981.672 899.769 1010.28 900.027 1020.22 899.958 C 1054.05 899.75 1087.88 899.76 1121.71 899.988 C 1160.17 900.454 1198.61 901.836 1237 904.131 C 1242.68 904.451 1267.65 905.654 1271.66 906.732 C 1282.95 913.601 1328.44 907.08 1338.26 917.748 C 1337.44 918.753 1336.97 919.538 1336.51 920.755 C 1338.25 923.416 1340.51 924.161 1343.41 925.627 C 1333.31 926.817 1281.65 918.879 1278.31 922.043 L 1278.16 922.844 C 1262.26 923.092 1229.62 919.657 1211.6 918.762 C 1194.24 917.876 1176.87 917.093 1159.51 916.411 C 1148.23 916.026 1135.74 916.148 1124.66 915.07 C 1079.14 915.03 1033.68 914.612 988.188 916.184 C 981.493 916.415 974.455 916.242 967.75 916.171 C 972.11 912.109 997.605 913.903 1005.88 914 L 1005.47 902.442 C 997.418 902.207 980.434 902.829 973.463 900.971 z"/>
<path transform="translate(0,0)" fill="rgb(133,59,147)" d="M 973.463 900.971 C 981.672 899.769 1010.28 900.027 1020.22 899.958 C 1054.05 899.75 1087.88 899.76 1121.71 899.988 C 1112.01 904.411 1065.66 898.831 1061.27 902.595 C 1064.07 924.354 1112.73 905.253 1124.66 915.07 C 1079.14 915.03 1033.68 914.612 988.188 916.184 C 981.493 916.415 974.455 916.242 967.75 916.171 C 972.11 912.109 997.605 913.903 1005.88 914 L 1005.47 902.442 C 997.418 902.207 980.434 902.829 973.463 900.971 z"/>
<path transform="translate(0,0)" fill="rgb(30,148,162)" d="M 1271.66 906.732 C 1301.12 908.144 1330.12 911.353 1359.43 914.5 C 1405.64 919.269 1451.69 925.465 1497.51 933.078 C 1510.53 935.065 1573.78 943.151 1579.75 952.048 C 1580.97 953.862 1580.66 955.227 1580 957.167 C 1579.39 958.949 1577.83 961.162 1576.06 961.967 C 1571.49 964.041 1502.09 950.034 1490.81 947.677 C 1484.13 947.356 1468.24 944.528 1461.1 943.468 C 1441.36 940.442 1421.58 937.686 1401.77 935.202 C 1378.54 932.251 1355.27 929.664 1331.97 927.44 C 1314.56 925.9 1295.28 925 1278.16 922.844 L 1278.31 922.043 C 1281.65 918.879 1333.31 926.817 1343.41 925.627 C 1340.51 924.161 1338.25 923.416 1336.51 920.755 C 1336.97 919.538 1337.44 918.753 1338.26 917.748 C 1328.44 907.08 1282.95 913.601 1271.66 906.732 z"/>
<path transform="translate(0,0)" fill="rgb(69,98,172)" d="M 1497.51 933.078 C 1510.53 935.065 1573.78 943.151 1579.75 952.048 C 1580.97 953.862 1580.66 955.227 1580 957.167 C 1579.39 958.949 1577.83 961.162 1576.06 961.967 C 1571.49 964.041 1502.09 950.034 1490.81 947.677 C 1495.78 944.576 1542.67 953.353 1546.53 955.915 C 1548.09 955.171 1571.45 956.357 1575.52 956.44 L 1576.14 955.134 C 1572.57 940.656 1507.15 941.881 1497.51 933.078 z"/>
<path transform="translate(0,0)" fill="url(#Gradient7)" d="M 1602.61 313.52 C 1613.97 283.408 1629.2 303.326 1645.89 312.18 C 1649.92 312.211 1651 312.782 1653.68 309.983 C 1657.31 313.097 1657.83 313.777 1660.49 317.77 C 1656.58 319.883 1657.42 318.805 1655.14 322.341 C 1659.6 327.697 1667.53 336.053 1668.76 342.676 C 1667.23 351.356 1650.95 370.904 1644.7 375.357 C 1636.49 377.422 1619.53 364.125 1612.9 359.129 L 1606.15 352.178 C 1602.34 346.322 1597.02 341.546 1591.87 333.607 L 1593.73 318.96 L 1602.61 313.52 z"/>
<path transform="translate(0,0)" fill="rgb(132,189,75)" d="M 1653.68 309.983 C 1657.31 313.097 1657.83 313.777 1660.49 317.77 C 1656.58 319.883 1657.42 318.805 1655.14 322.341 C 1653.75 321.395 1647.42 313.928 1645.89 312.18 C 1649.92 312.211 1651 312.782 1653.68 309.983 z"/>
<path transform="translate(0,0)" fill="rgb(143,57,41)" d="M 1630.85 318.623 C 1637.75 323.55 1637.16 348.477 1634.51 356.19 C 1627.58 350.918 1628.35 326.669 1630.85 318.623 z"/>
<path transform="translate(0,0)" fill="rgb(143,57,41)" d="M 1614 306.423 C 1620.58 312.286 1618.73 330.102 1615.66 337.72 C 1610.23 330.953 1609.34 313.719 1614 306.423 z"/>
<path transform="translate(0,0)" fill="rgb(192,62,32)" d="M 1646.77 331.181 C 1655.32 334.436 1652.85 344.077 1650.5 351.201 C 1647.85 350.564 1648.78 350.937 1646.66 348.77 C 1644.86 342.911 1645.85 337.184 1646.77 331.181 z"/>
<path transform="translate(0,0)" fill="url(#Gradient6)" d="M 606.477 936.939 C 620.689 933.269 657.213 928.495 672.268 926.469 C 714.649 920.766 764.117 913.783 806.814 911.841 L 806.896 912.81 C 798.588 915.433 790.76 911.9 785.962 916.973 C 784.414 920.195 784.911 921.512 785.509 924.948 C 787.9 927.641 807.404 923.858 812.478 924.332 L 812.724 926.202 C 798.493 928.969 763.024 931.549 747.273 933.299 C 717.409 936.767 687.608 940.755 657.883 945.26 C 637.182 948.274 614.236 951.248 593.844 955.701 L 593.732 953.906 L 597.564 952.875 L 597.899 951.478 C 596.307 951.213 595.876 951.018 594.381 950.524 C 592.692 947.409 592.501 946.995 592.262 943.471 C 595.837 938.221 601.038 941.719 606.477 936.939 z"/>
<path transform="translate(0,0)" fill="rgb(193,56,114)" d="M 806.814 911.841 C 811.529 910.267 844.808 908.031 851.957 907.665 C 890.631 905.681 935.143 900.871 973.463 900.971 C 980.434 902.829 997.418 902.207 1005.47 902.442 L 1005.88 914 C 997.605 913.903 972.11 912.109 967.75 916.171 C 949.091 918.925 927.984 917.882 909.297 919.347 C 877.053 921.874 845.007 924.18 812.724 926.202 L 812.478 924.332 C 807.404 923.858 787.9 927.641 785.509 924.948 C 784.911 921.512 784.414 920.195 785.962 916.973 C 790.76 911.9 798.588 915.433 806.896 912.81 L 806.814 911.841 z"/>
<path transform="translate(0,0)" fill="url(#Gradient5)" d="M 1449.15 154.437 C 1454.5 157.651 1458.5 177.438 1465.11 187.803 C 1471.39 191.23 1495.02 197.269 1496.92 202.005 C 1492.89 206.486 1473.58 211.586 1465.16 215.934 C 1457.91 228.622 1459.01 239.497 1453.66 249.182 C 1442.92 245.298 1444.27 235.921 1441.24 225.571 C 1436.16 208.237 1421.14 211.373 1407.66 204.154 C 1405.61 203.058 1405.39 203.108 1404.82 201.033 C 1409.11 193.912 1428.07 194.061 1436.01 186.729 C 1444.28 179.092 1443.08 159.516 1449.15 154.437 z"/>
<path transform="translate(0,0)" fill="rgb(47,139,200)" d="M 1572.27 232.341 C 1574.98 214.478 1593.35 182.352 1615.74 203.36 C 1618.02 205.906 1619.19 212.912 1618 216.016 C 1611.9 231.879 1598.86 241.222 1590.64 257.314 C 1586.54 265.345 1580.24 291.467 1577.16 295.493 C 1575.66 296.96 1576.57 296.434 1574.16 296.707 C 1563.51 290.066 1567.07 244.246 1572.27 232.341 z"/>
<path transform="translate(0,0)" fill="rgb(69,98,172)" d="M 1577.16 295.493 C 1575.66 296.96 1576.57 296.434 1574.16 296.707 C 1563.51 290.066 1567.07 244.246 1572.27 232.341 C 1572.69 236.979 1571.7 239.833 1570.57 244.371 C 1575.2 246.118 1584.61 250.406 1588.77 250.431 C 1591.18 248.349 1590.84 245.724 1592.37 245.102 C 1592.48 251.321 1573.98 285.628 1575.93 294.364 L 1577.16 295.493 z"/>
<path transform="translate(0,0)" fill="rgb(133,59,147)" d="M 1717.59 408.434 C 1731.92 408.834 1761.01 412.574 1750.47 436.985 C 1749 440.394 1744.39 443.463 1741.32 445.631 C 1723.39 445.019 1711.44 437.497 1689.64 436.855 C 1677.25 436.276 1656.97 442.731 1651.02 438.843 L 1650.72 436.767 C 1659.52 419.188 1699.33 409.5 1717.59 408.434 z"/>
<path transform="translate(0,0)" fill="rgb(240,123,46)" d="M 298.217 780.89 C 298.821 773.088 282.242 754.038 277.066 745.902 C 261.001 720.646 240.014 696.332 226.435 669.744 C 225.032 666.997 225.945 664.288 227.351 661.876 C 230.047 660.414 230.419 660.425 233.464 660.899 C 242.04 664.913 296.505 759.223 307.8 775.128 C 308.915 776.697 311.311 780.59 309.299 782.037 C 306.212 786.23 301.531 789.398 297.403 792.586 L 295.558 792.658 C 296.215 791.637 296.862 790.611 297.5 789.578 C 299.663 786.001 299.409 785.508 298.217 780.89 z"/>
<path transform="translate(0,0)" fill="rgb(240,123,46)" d="M 1358.37 474.691 C 1386.93 436.991 1374.59 432.415 1425.84 435.578 C 1428.79 436.12 1432.56 437.003 1435.47 436.907 C 1433.81 438.801 1428.77 444.176 1426.51 444.532 C 1424.44 447.102 1414.6 454.252 1411.63 456.15 C 1404.78 460.535 1393.33 476.787 1386.08 475.363 C 1380.98 474.658 1364.33 474.788 1358.37 474.691 z"/>
<path transform="translate(0,0)" fill="rgb(251,253,247)" d="M 1425.84 435.578 C 1428.79 436.12 1432.56 437.003 1435.47 436.907 C 1433.81 438.801 1428.77 444.176 1426.51 444.532 C 1424.44 447.102 1414.6 454.252 1411.63 456.15 C 1404.78 460.535 1393.33 476.787 1386.08 475.363 C 1397.17 465.67 1414.89 446.612 1425.84 435.578 z"/>
<path transform="translate(0,0)" fill="url(#Gradient4)" d="M 1653.68 309.983 C 1645.34 299.696 1621.84 293.108 1625.8 281.013 C 1634.69 272.007 1656.47 286.802 1663.38 293.643 L 1672.96 292.63 C 1674.2 293.826 1677.37 296.722 1678.2 297.955 C 1673.39 308.628 1682.89 311.956 1685.28 323.39 C 1685.97 329.845 1690.07 332.915 1688.38 341.539 C 1679.39 353.98 1666.99 333.295 1666.69 324.631 C 1666.59 321.657 1662.94 319.506 1660.49 317.77 C 1657.83 313.777 1657.31 313.097 1653.68 309.983 z"/>
<path transform="translate(0,0)" fill="rgb(132,189,75)" d="M 1672.96 292.63 C 1674.2 293.826 1677.37 296.722 1678.2 297.955 C 1673.39 308.628 1682.89 311.956 1685.28 323.39 C 1683.21 321.296 1680.89 316.973 1679.38 314.187 C 1675.08 306.279 1668.48 300.734 1663.38 293.643 L 1672.96 292.63 z"/>
<path transform="translate(0,0)" fill="rgb(240,123,46)" d="M 295.558 792.658 C 291.681 787.656 279.363 775.878 274.462 770.84 C 255.76 751.619 235.43 733.926 217.003 714.434 C 210.856 707.932 194.116 696.169 194.318 687.462 C 199.427 675.924 209.808 687.917 214.359 693.004 C 229.517 709.947 245.516 726.185 260.959 742.875 C 272.472 755.317 283.701 768.018 295.54 780.153 C 295.605 780.219 297.923 780.809 298.217 780.89 C 299.409 785.508 299.663 786.001 297.5 789.578 C 296.862 790.611 296.215 791.637 295.558 792.658 z"/>
<path transform="translate(0,0)" fill="rgb(235,65,56)" d="M 1586.84 370.395 C 1579.29 360.758 1566.33 341.837 1575.3 329.566 C 1586.08 324.403 1592.73 344.643 1596.09 352.266 C 1599.4 354.556 1600.45 356.267 1603.6 355.88 L 1606.15 352.178 L 1612.9 359.129 L 1606.65 365.273 C 1612.19 369.299 1635.27 381.657 1635.16 387.266 C 1634.77 409.033 1602.33 383.575 1595.22 378.818 C 1592.42 375.767 1589.84 373.257 1586.84 370.395 z"/>
<path transform="translate(0,0)" fill="rgb(82,167,79)" d="M 1606.15 352.178 L 1612.9 359.129 L 1606.65 365.273 C 1603.1 362.109 1597.37 356.875 1596.09 352.266 C 1599.4 354.556 1600.45 356.267 1603.6 355.88 L 1606.15 352.178 z"/>
<path transform="translate(0,0)" fill="rgb(203,202,202)" d="M 1527.59 621.926 C 1530.78 621.498 1532.7 620.891 1535.49 622.576 C 1540.76 628.436 1538.63 700.99 1534.91 702.798 C 1527.67 706.313 1493.74 704.177 1483.19 704.043 C 1471.54 703.895 1433.19 708.365 1426.1 700.527 L 1426.08 697.163 C 1441.34 696.267 1459.03 697.501 1474.95 695.81 C 1479.28 695.351 1479.67 697.655 1487.96 696.37 C 1497.22 695.065 1514.05 698.2 1523.19 694.915 L 1523.7 696.354 L 1526.03 696.155 C 1529.11 693.584 1529.78 691.739 1529.88 687.54 C 1530.37 666.683 1530.65 645.45 1529.52 624.622 C 1529.52 624.622 1527.76 622.159 1527.59 621.926 z"/>
<path transform="translate(0,0)" fill="rgb(133,59,147)" d="M 1760.76 318.199 C 1772.12 320.673 1768.15 332.405 1774.68 339.23 C 1780.42 345.228 1789.52 344.993 1796 348.921 L 1795.83 350.739 C 1791.58 354.458 1785.71 355.717 1780.48 358.316 C 1770.71 363.179 1771.31 373.089 1767.88 383.614 C 1754.79 379.954 1763.04 370.682 1754.62 361.312 C 1749.83 355.977 1737.92 355.359 1733.01 351.256 C 1734.02 345.746 1747.81 345.087 1753.17 340.773 C 1759.6 335.607 1759.58 326.406 1760.76 318.199 z"/>
<path transform="translate(0,0)" fill="url(#Gradient3)" d="M 1736.92 748.489 C 1740.81 752.307 1743.17 765.096 1748.62 768.842 C 1754.03 772.555 1759.84 771.661 1764.65 775.391 L 1764.81 777.271 C 1761.02 781.196 1754.06 782.641 1749.32 785.454 C 1740.8 790.506 1746.72 800.787 1737.67 805.911 C 1731.31 802.722 1733.81 797.878 1731.68 791.639 C 1728.34 781.894 1718.36 782.388 1710.48 778.484 L 1710.27 777.06 C 1714.99 772.228 1725.25 771.274 1729.05 766.121 C 1733.26 760.412 1731.58 755.348 1736.92 748.489 z"/>
<path transform="translate(0,0)" fill="url(#Gradient2)" d="M 1703.18 829.101 C 1716.51 828.522 1725.95 829.504 1737.84 836.356 C 1749.53 843.093 1760.81 853.996 1752.36 867.831 C 1748.79 870.127 1745.36 871.975 1740.99 871.36 C 1738.17 870.987 1735.58 869.617 1733.68 867.497 C 1729.57 862.949 1725.96 852.609 1721.63 846.987 C 1715.83 839.454 1708.54 836.308 1703.18 829.101 z"/>
<path transform="translate(0,0)" fill="rgb(69,98,172)" d="M 1505.85 243.117 C 1508.44 243.048 1513.09 242.807 1515.04 244.417 C 1528.15 255.255 1539.4 274.529 1529.49 290.157 L 1527.43 290.395 C 1519.44 276.758 1510.46 273.574 1500.29 262.654 C 1493.01 254.84 1498.62 247.683 1505.85 243.117 z"/>
<path transform="translate(0,0)" fill="rgb(235,65,56)" d="M 593.844 955.701 C 584.281 957.485 574.374 959.505 564.742 960.638 C 557.648 961.472 547.155 963.523 545.215 954.73 C 545.473 953.644 546.382 950.302 547.078 949.866 C 557.699 943.218 594.687 938.785 606.477 936.939 C 601.038 941.719 595.837 938.221 592.262 943.471 C 592.501 946.995 592.692 947.409 594.381 950.524 C 595.876 951.018 596.307 951.213 597.899 951.478 L 597.564 952.875 L 593.732 953.906 L 593.844 955.701 z"/>
<path transform="translate(0,0)" fill="rgb(97,85,167)" d="M 1403.71 333.329 C 1406.83 333.969 1409.28 334.646 1411.85 336.644 C 1415.4 339.459 1417.69 343.56 1418.23 348.056 C 1419.5 357.81 1413 363.29 1403.88 364.238 C 1380.37 360.717 1382.41 335.762 1403.71 333.329 z"/>
<path transform="translate(0,0)" fill="rgb(47,139,200)" d="M 1347.26 146.608 C 1349.23 148.322 1350.88 155.267 1352.67 158.229 C 1356.34 164.294 1364.91 161.454 1367.78 166.191 C 1364.59 172.159 1351.48 175.533 1346.42 187.202 L 1345 187.28 C 1342.95 185.449 1341.9 178.362 1340.52 174.399 C 1337.07 171.262 1328.16 168.346 1323.09 166.056 C 1348.64 159.3 1334.72 160.869 1346.67 147.268 L 1347.26 146.608 z"/>
<path transform="translate(0,0)" fill="rgb(249,166,33)" d="M 315.829 660.435 C 316.847 660.857 316.92 661.164 317.786 662.021 C 317.955 665.159 318.329 674.35 319.405 676.812 C 323.823 686.92 335.658 696.134 335.334 708.166 C 335.199 713.212 332.051 719.798 328.157 723.323 C 323.318 719.473 326.672 713.378 324.655 708.675 C 313.567 682.824 301.151 690.858 315.829 660.435 z"/>
<path transform="translate(0,0)" fill="rgb(254,253,254)" fill-opacity="0.298039" d="M 1631.99 579.048 C 1632.24 579.629 1633.53 585.935 1634.19 587.876 C 1643 582.962 1636.84 559.836 1643.44 548.418 L 1645.1 548.705 L 1645.02 554.288 C 1641.7 564.536 1642.15 577.336 1640.44 588.176 C 1638.44 600.826 1635.84 609.08 1640.16 621.532 C 1640.66 624.484 1641.01 625.792 1641.94 628.642 C 1642.14 637.798 1641.74 647.163 1642.14 656.17 L 1642.05 666.162 C 1633.54 657.856 1643.28 641.804 1639.31 631.597 C 1637.26 626.304 1634.03 627.437 1631.03 623.25 L 1629.78 623.275 C 1630 626.349 1629.51 629.249 1629.11 632.298 C 1628.72 622.028 1629.26 607.727 1629.69 597.328 L 1630.3 598.981 C 1631.04 597.345 1631.78 582.102 1631.99 579.048 z"/>
<path transform="translate(0,0)" fill="rgb(230,230,230)" fill-opacity="0.00784314" d="M 1629.11 632.298 C 1629.51 629.249 1630 626.349 1629.78 623.275 L 1631.03 623.25 C 1634.03 627.437 1637.26 626.304 1639.31 631.597 C 1643.28 641.804 1633.54 657.856 1642.05 666.162 L 1642.89 673.371 L 1643.48 679.021 L 1641.66 680.461 C 1639.87 677.88 1640.87 678.624 1637.92 677.636 C 1634.08 678.471 1632.06 680.042 1631.11 683.969 L 1629.03 684.416 C 1628.94 667.043 1628.97 649.67 1629.11 632.298 z"/>
<path transform="translate(0,0)" fill="rgb(97,85,167)" d="M 1336.7 291.415 C 1338 292.845 1343.45 304.091 1345.5 307.378 C 1349.3 308.433 1354.28 309.405 1357.14 311.908 C 1356.2 315.694 1345.1 319.664 1342.95 325 C 1342.29 326.626 1338.85 329.554 1337.31 330.766 L 1336.69 333.001 C 1334.64 331.712 1334.93 327.068 1333.61 323.713 C 1331.02 317.115 1322.32 315.212 1315.65 312.149 L 1332.16 306.975 C 1333.55 301.751 1335.06 296.563 1336.7 291.415 z"/>
<path transform="translate(0,0)" fill="rgb(249,166,33)" d="M 289.374 668.552 C 292.866 671.566 291.459 679.576 293.486 682.568 C 305.828 700.792 308.706 696.092 309.702 719.156 C 308.068 722.2 305.635 725.854 303.756 728.847 C 303.528 729.139 302.31 729.875 301.94 730.119 C 299.781 726.602 301.956 718.126 299.327 712.672 C 291.21 695.835 278.131 688.549 289.374 668.552 z"/>
<path transform="translate(0,0)" fill="rgb(203,202,202)" d="M 1435.47 436.907 C 1438.62 435.08 1437.25 435.326 1440.63 435.772 C 1449 447.146 1413.74 475.007 1404.98 483.276 C 1401.88 483.686 1400.29 484.138 1397.25 483.338 L 1396.63 481.928 C 1407.54 472.813 1417.89 463.01 1423.9 449.884 C 1424.75 448.026 1426.48 446.618 1426.51 444.532 C 1428.77 444.176 1433.81 438.801 1435.47 436.907 z"/>
<path transform="translate(0,0)" fill="rgb(133,59,147)" d="M 1045.03 930.288 C 1051.57 929.545 1057.52 934.145 1058.44 940.665 C 1059.36 947.186 1054.93 953.256 1048.44 954.36 C 1044.07 955.101 1039.65 953.414 1036.89 949.955 C 1034.13 946.497 1033.47 941.812 1035.16 937.724 C 1036.85 933.635 1040.63 930.787 1045.03 930.288 z"/>
<path transform="translate(0,0)" fill="rgb(97,85,167)" d="M 1102.35 930.463 C 1108.87 930.055 1114.52 934.92 1115.09 941.425 C 1115.66 947.93 1110.93 953.7 1104.44 954.427 C 1100.1 954.914 1095.84 953.009 1093.3 949.45 C 1090.77 945.891 1090.36 941.238 1092.24 937.294 C 1094.12 933.35 1097.99 930.735 1102.35 930.463 z"/>
<path transform="translate(0,0)" fill="rgb(203,202,202)" d="M 622.007 662.74 C 622.393 666.873 622.713 671.055 623.474 675.499 C 624.588 682.006 632.513 694.466 628.343 700.298 C 626.142 703.377 619.335 704.682 616.142 704.443 C 607.944 703.831 581.957 705.924 576.485 701.691 L 576.576 699.866 C 586.599 695.273 614.179 703.764 620.886 695.075 C 620.753 693.554 620.761 692.236 620.16 690.841 L 621.042 690.639 C 622.035 689.058 621.586 666.952 622.007 662.74 z"/>
<path transform="translate(0,0)" fill="rgb(230,230,230)" fill-opacity="0.964706" d="M 515.753 472.592 C 525.47 472.84 526.709 474.886 533.915 481.553 L 545.004 483.301 L 544.959 483.794 C 528.59 484.718 516.085 483.065 500.363 489.613 C 494.856 491.907 491.129 485.38 485.854 499.422 C 481.552 510.874 477.979 522.937 473.346 534.275 C 473.032 533.092 472.969 532.223 473.153 531.013 C 474.067 524.998 483.358 491.508 486.81 488.858 C 488.254 487.749 496.877 486.215 501.59 482.796 L 502.028 482.474 C 508.251 482.856 515.225 484.267 518.808 478.244 C 518.436 474.452 518.791 475.734 515.753 472.592 z"/>
<path transform="translate(0,0)" fill="rgb(203,202,202)" fill-opacity="0.2" d="M 1630.07 550.195 L 1631.57 550.444 L 1632.4 547.421 L 1632.71 548.322 C 1633.68 551.132 1633.93 552.199 1636.16 554.297 L 1638.02 554.892 C 1641.67 551.359 1639.75 548.796 1643.5 546.299 C 1644.57 547.312 1644.85 547.313 1645.1 548.705 L 1643.44 548.418 C 1636.84 559.836 1643 582.962 1634.19 587.876 C 1633.53 585.935 1632.24 579.629 1631.99 579.048 C 1631.78 582.102 1631.04 597.345 1630.3 598.981 L 1629.69 597.328 C 1629.57 581.616 1629.7 565.903 1630.07 550.195 z"/>
<path transform="translate(0,0)" fill="rgb(69,98,172)" d="M 1152.4 934.636 C 1155.88 933.076 1159.93 933.528 1162.98 935.817 C 1166.03 938.105 1167.6 941.869 1167.07 945.645 C 1166.55 949.42 1164.01 952.613 1160.45 953.98 C 1155.15 956.016 1149.2 953.464 1147.02 948.223 C 1144.84 942.982 1147.23 936.959 1152.4 934.636 z"/>
<path transform="translate(0,0)" fill="rgb(133,59,147)" d="M 989 934.289 C 994.461 932.483 1000.35 935.457 1002.14 940.924 C 1003.93 946.391 1000.93 952.27 995.46 954.04 C 990.013 955.802 984.167 952.825 982.387 947.384 C 980.607 941.943 983.564 936.087 989 934.289 z"/>
<path transform="translate(0,0)" fill="rgb(203,202,202)" d="M 1191.22 497.615 C 1195.7 503.067 1193.55 543.316 1193.94 552.616 C 1194.1 556.196 1193.52 557.142 1191.42 559.1 C 1185.15 553.638 1187.91 529.248 1187.47 520.619 C 1187.1 513.532 1189.54 504.563 1191.22 497.615 z"/>
<path transform="translate(0,0)" fill="rgb(203,202,202)" d="M 1808.22 694.467 L 1809.61 695.542 C 1809.1 700.412 1809.93 699.761 1807.19 702.868 C 1798.74 706.53 1769.62 703.641 1759.11 702.911 C 1758.82 701.467 1758.59 699.516 1758.37 698.017 L 1759.93 697.042 C 1773.92 700.103 1794.19 698.194 1808.22 694.467 z"/>
<path transform="translate(0,0)" fill="rgb(203,202,202)" d="M 1711.13 690.386 L 1712.37 691.298 C 1711.37 693.976 1709.92 700.872 1709.19 703.94 C 1700.75 704.861 1660.37 706.045 1656.07 699.967 C 1661.22 697.288 1692.37 698.774 1699.93 698.915 C 1703.44 696.73 1708.72 693.604 1711.13 690.386 z"/>
<path transform="translate(0,0)" fill="rgb(97,85,167)" d="M 1698.27 367.347 C 1710.81 370.73 1712.61 382.37 1699.47 387.585 C 1684.67 384.304 1682.57 370.785 1698.27 367.347 z"/>
<path transform="translate(0,0)" fill="rgb(47,139,200)" d="M 1203.15 937.538 C 1206.38 936.179 1210.09 936.679 1212.85 938.844 C 1215.6 941.009 1216.97 944.498 1216.41 947.958 C 1215.85 951.418 1213.47 954.305 1210.17 955.497 C 1205.25 957.278 1199.81 954.813 1197.9 949.941 C 1196 945.069 1198.33 939.566 1203.15 937.538 z"/>
<path transform="translate(0,0)" fill="rgb(240,123,46)" d="M 260.23 780.962 C 270.385 780.478 285.637 785.191 274.757 797.18 C 263.707 797.493 250.156 795.187 260.23 780.962 z"/>
<path transform="translate(0,0)" fill="rgb(193,56,114)" d="M 938.489 936.932 C 950.918 936.966 957.187 947.45 946.466 955.09 C 933.545 954.914 927.311 946.341 938.489 936.932 z"/>
<path transform="translate(0,0)" fill="rgb(203,202,202)" d="M 1020.1 497.428 C 1027.58 503.513 1024.83 532.867 1021.64 541.305 C 1013.83 537.002 1017.16 505.644 1020.1 497.428 z"/>
<path transform="translate(0,0)" fill="url(#Gradient1)" d="M 556.443 692.509 C 558.901 694.812 559.006 695.264 559.834 698.554 C 557.31 709.117 520.401 703.692 510.764 702.864 L 508.316 702.817 L 508.379 701.867 C 524.973 698.213 533.412 700.603 549.688 699.432 C 552.852 699.204 554.897 695.23 556.443 692.509 z"/>
<path transform="translate(0,0)" fill="rgb(30,148,162)" d="M 1252.2 941.94 C 1254.95 940.368 1258.33 940.411 1261.04 942.052 C 1263.75 943.693 1265.36 946.675 1265.24 949.84 C 1265.12 953.006 1263.29 955.857 1260.47 957.289 C 1256.25 959.427 1251.09 957.811 1248.85 953.646 C 1246.6 949.482 1248.09 944.288 1252.2 941.94 z"/>
<path transform="translate(0,0)" fill="rgb(251,253,247)" fill-opacity="0.721569" d="M 1645.02 554.288 C 1645.9 569.894 1646.69 585.505 1647.38 601.119 L 1645.62 596.341 L 1643.92 596.027 C 1639.32 599.917 1640.68 615.353 1640.16 621.532 C 1635.84 609.08 1638.44 600.826 1640.44 588.176 C 1642.15 577.336 1641.7 564.536 1645.02 554.288 z"/>
<path transform="translate(0,0)" fill="rgb(203,202,202)" d="M 1639.07 694.266 C 1640.07 698.836 1640 699.93 1636.89 702.992 C 1628.51 706.018 1605.99 704.439 1597.21 702.259 C 1595.5 700.689 1596.01 701.625 1595.6 699.384 C 1608.87 698.489 1629.66 701.519 1639.07 694.266 z"/>
<path transform="translate(0,0)" fill="rgb(235,65,56)" d="M 889.68 941.29 C 892.628 940.248 895.91 940.892 898.246 942.971 C 900.582 945.05 901.602 948.235 900.908 951.284 C 900.215 954.334 897.918 956.764 894.913 957.629 C 890.453 958.912 885.782 956.418 884.367 951.999 C 882.952 947.58 885.305 942.836 889.68 941.29 z"/>
<path transform="translate(0,0)" fill="rgb(251,253,247)" fill-opacity="0.929412" d="M 1640.16 621.532 C 1640.68 615.353 1639.32 599.917 1643.92 596.027 L 1645.62 596.341 L 1647.38 601.119 C 1647.61 615.652 1645.65 627.002 1644.86 641.076 L 1643.15 641.96 C 1643.03 636.579 1642.83 633.94 1641.94 628.642 C 1641.01 625.792 1640.66 624.484 1640.16 621.532 z"/>
<path transform="translate(0,0)" fill="rgb(97,85,167)" d="M 1787.92 794.615 C 1789.25 796.792 1791.15 800.875 1792.37 803.295 C 1795.09 804.605 1796.59 805.274 1799.09 807.086 C 1796.6 812.178 1792.33 808.52 1788.36 820.34 L 1788.2 820.388 C 1785.25 819.696 1786.05 814.263 1784.16 813.08 C 1781.63 811.495 1778.11 809.446 1775.49 807.872 C 1784.89 804.033 1785.56 804.867 1787.92 794.615 z"/>
<path transform="translate(0,0)" fill="rgb(21,176,141)" d="M 1301.94 946.61 C 1304.41 945.074 1307.53 945.022 1310.06 946.475 C 1312.59 947.928 1314.11 950.65 1314.03 953.563 C 1313.95 956.476 1312.27 959.109 1309.67 960.418 C 1305.88 962.321 1301.27 960.908 1299.2 957.211 C 1297.13 953.514 1298.34 948.843 1301.94 946.61 z"/>
<path transform="translate(0,0)" fill="rgb(240,123,46)" d="M 842.345 945.49 C 846.186 945.562 849.341 948.548 849.625 952.379 C 849.909 956.211 847.229 959.628 843.44 960.266 C 840.656 960.735 837.846 959.588 836.186 957.304 C 834.525 955.02 834.301 951.993 835.606 949.489 C 836.912 946.985 839.522 945.436 842.345 945.49 z"/>
<path transform="translate(0,0)" fill="rgb(21,176,141)" d="M 1353.69 951.667 C 1355.97 950.557 1358.67 950.764 1360.76 952.21 C 1362.84 953.656 1363.98 956.115 1363.74 958.641 C 1363.5 961.166 1361.92 963.365 1359.59 964.39 C 1356.1 965.936 1352.01 964.396 1350.4 960.927 C 1348.79 957.459 1350.25 953.34 1353.69 951.667 z"/>
<path transform="translate(0,0)" fill="rgb(203,202,202)" fill-opacity="0.839216" d="M 380.596 566.559 L 381.973 570.203 C 388.125 571.635 385.944 568.41 391.916 573.509 L 390.311 579.561 C 380.438 575.737 383.945 580.781 378.207 579.511 L 377.369 580.79 C 376.901 579.489 376.858 568.367 376.703 565.658 L 380.596 566.559 z"/>
<path transform="translate(0,0)" fill="rgb(240,123,46)" d="M 787.871 950.94 C 790.881 950.98 791.503 950.951 794.344 951.886 C 797.914 955.308 797.453 953.97 798.718 958.366 C 798.012 961.102 797.75 961.351 795.596 963.205 C 793.574 963.199 791.552 963.218 789.531 963.263 C 786.045 961.168 787.035 962.363 785.552 958.888 C 785.934 955.024 785.971 954.446 787.871 950.94 z"/>
<path transform="translate(0,0)" fill="rgb(254,253,254)" fill-opacity="0.211765" d="M 1480.93 690.275 C 1493.3 697.462 1508.22 692.122 1523.19 694.915 C 1514.05 698.2 1497.22 695.065 1487.96 696.37 C 1484.34 694.296 1483.35 693.549 1479.2 692.786 C 1480.25 691.835 1480.21 691.59 1480.93 690.275 z"/>
<path transform="translate(0,0)" fill="rgb(203,202,202)" fill-opacity="0.988235" d="M 622.767 616.571 C 637.113 625.104 625.295 629.289 622.89 636.908 C 622.641 630.551 622.798 623.025 622.767 616.571 z"/>
<path transform="translate(0,0)" fill="rgb(203,202,202)" fill-opacity="0.811765" d="M 1708.76 620.431 C 1712.9 619.687 1740.35 619.22 1744.33 621.693 C 1734.73 624.477 1721.5 621.512 1711.33 622.346 C 1711.33 622.346 1709.01 620.616 1708.76 620.431 z"/>
<path transform="translate(0,0)" fill="rgb(203,202,202)" d="M 1426.88 551.698 C 1427.72 546.872 1427.06 546.698 1430.12 543.983 C 1434.24 544.993 1434.3 552.377 1433.72 555.817 C 1432.24 557.176 1432.37 557.116 1430.41 557.544 C 1429.4 554.415 1429.29 553.884 1426.88 551.698 z"/>
<path transform="translate(0,0)" fill="rgb(254,253,254)" fill-opacity="0.0196078" d="M 1027.4 619.691 C 1030.37 623.466 1031.46 627.418 1033.72 629.534 C 1030.98 632.423 1031.6 631.059 1031 634.645 C 1027.14 632.96 1026.83 632.357 1024.54 628.818 L 1027.4 619.691 z"/>
<path transform="translate(0,0)" fill="rgb(254,253,254)" fill-opacity="0.0352941" d="M 739.297 523.345 C 739.717 521.613 739.699 517.799 740.158 515.087 C 742.324 515.963 742.009 516.684 743.178 519.429 C 742.198 525.693 741.465 531.086 740.851 537.403 L 739.297 523.345 z"/>
<path transform="translate(0,0)" fill="rgb(251,253,247)" fill-opacity="0.678431" d="M 1643.15 641.96 L 1644.86 641.076 L 1644.85 657.277 L 1643.4 658.02 C 1642.86 663.995 1643.19 667.925 1642.89 673.371 L 1642.05 666.162 L 1642.14 656.17 C 1643.18 652.594 1643.06 645.91 1643.15 641.96 z"/>
<path transform="translate(0,0)" fill="rgb(251,253,247)" fill-opacity="0.937255" d="M 1642.89 673.371 C 1643.19 667.925 1642.86 663.995 1643.4 658.02 L 1644.85 657.277 C 1645.05 662.543 1646.27 674.964 1643.48 679.021 L 1642.89 673.371 z"/>
<path transform="translate(0,0)" fill="rgb(230,230,230)" fill-opacity="0.129412" d="M 1711.13 690.386 C 1711.02 686.352 1710.41 679.891 1711.83 676.375 L 1712.32 676.456 C 1713.75 680.751 1713.15 686.857 1712.37 691.298 L 1711.13 690.386 z"/>
<path transform="translate(0,0)" fill="rgb(251,253,247)" fill-opacity="0.447059" d="M 1641.94 628.642 C 1642.83 633.94 1643.03 636.579 1643.15 641.96 C 1643.06 645.91 1643.18 652.594 1642.14 656.17 C 1641.74 647.163 1642.14 637.798 1641.94 628.642 z"/>
</svg>