<svg version="1.1" xmlns="http://www.w3.org/2000/svg" style="display: block;" viewBox="0 0 2048 2046" width="888" height="887" preserveAspectRatio="none">
<defs>
	<linearGradient id="Gradient1" gradientUnits="userSpaceOnUse" x1="1127.63" y1="357.428" x2="1118.9" y2="424.118">
		<stop class="stop0" offset="0" stop-opacity="1" stop-color="rgb(241,191,119)"/>
		<stop class="stop1" offset="1" stop-opacity="1" stop-color="rgb(251,219,168)"/>
	</linearGradient>
	<linearGradient id="Gradient2" gradientUnits="userSpaceOnUse" x1="1280.94" y1="1177.87" x2="1263.23" y2="878.958">
		<stop class="stop0" offset="0" stop-opacity="1" stop-color="rgb(150,208,223)"/>
		<stop class="stop1" offset="1" stop-opacity="1" stop-color="rgb(201,232,236)"/>
	</linearGradient>
	<linearGradient id="Gradient3" gradientUnits="userSpaceOnUse" x1="1020.56" y1="1331.16" x2="1017.27" y2="604.435">
		<stop class="stop0" offset="0" stop-opacity="1" stop-color="rgb(47,142,183)"/>
		<stop class="stop1" offset="1" stop-opacity="1" stop-color="rgb(148,206,202)"/>
	</linearGradient>
	<linearGradient id="Gradient4" gradientUnits="userSpaceOnUse" x1="733.941" y1="793.635" x2="712.02" y2="819.995">
		<stop class="stop0" offset="0" stop-opacity="1" stop-color="rgb(249,144,68)"/>
		<stop class="stop1" offset="1" stop-opacity="1" stop-color="rgb(239,100,48)"/>
	</linearGradient>
	<linearGradient id="Gradient5" gradientUnits="userSpaceOnUse" x1="1394.64" y1="755.482" x2="1358.35" y2="724.054">
		<stop class="stop0" offset="0" stop-opacity="1" stop-color="rgb(247,119,60)"/>
		<stop class="stop1" offset="1" stop-opacity="1" stop-color="rgb(249,165,83)"/>
	</linearGradient>
	<linearGradient id="Gradient6" gradientUnits="userSpaceOnUse" x1="770.793" y1="646.352" x2="751.069" y2="531.845">
		<stop class="stop0" offset="0" stop-opacity="1" stop-color="rgb(244,118,60)"/>
		<stop class="stop1" offset="1" stop-opacity="1" stop-color="rgb(255,177,79)"/>
	</linearGradient>
	<linearGradient id="Gradient7" gradientUnits="userSpaceOnUse" x1="689.496" y1="558.807" x2="620.726" y2="495.088">
		<stop class="stop0" offset="0" stop-opacity="1" stop-color="rgb(243,232,188)"/>
		<stop class="stop1" offset="1" stop-opacity="1" stop-color="rgb(255,253,231)"/>
	</linearGradient>
	<linearGradient id="Gradient8" gradientUnits="userSpaceOnUse" x1="1017.11" y1="827.789" x2="1015.66" y2="856.586">
		<stop class="stop0" offset="0" stop-opacity="1" stop-color="rgb(244,182,113)"/>
		<stop class="stop1" offset="1" stop-opacity="1" stop-color="rgb(253,214,161)"/>
	</linearGradient>
	<linearGradient id="Gradient9" gradientUnits="userSpaceOnUse" x1="1008.25" y1="811.32" x2="996.83" y2="701.725">
		<stop class="stop0" offset="0" stop-opacity="1" stop-color="rgb(250,209,141)"/>
		<stop class="stop1" offset="1" stop-opacity="1" stop-color="rgb(255,253,226)"/>
	</linearGradient>
	<linearGradient id="Gradient10" gradientUnits="userSpaceOnUse" x1="1121.09" y1="976.312" x2="1201.78" y2="935.582">
		<stop class="stop0" offset="0" stop-opacity="1" stop-color="rgb(233,160,111)"/>
		<stop class="stop1" offset="1" stop-opacity="1" stop-color="rgb(250,198,153)"/>
	</linearGradient>
	<linearGradient id="Gradient11" gradientUnits="userSpaceOnUse" x1="962.142" y1="1011.52" x2="966.794" y2="902.046">
		<stop class="stop0" offset="0" stop-opacity="1" stop-color="rgb(231,180,142)"/>
		<stop class="stop1" offset="1" stop-opacity="1" stop-color="rgb(254,248,234)"/>
	</linearGradient>
	<linearGradient id="Gradient12" gradientUnits="userSpaceOnUse" x1="1041.97" y1="964.035" x2="999.43" y2="721.726">
		<stop class="stop0" offset="0" stop-opacity="1" stop-color="rgb(243,118,59)"/>
		<stop class="stop1" offset="1" stop-opacity="1" stop-color="rgb(255,188,93)"/>
	</linearGradient>
	<linearGradient id="Gradient13" gradientUnits="userSpaceOnUse" x1="1000.62" y1="1075.26" x2="1025.45" y2="383.432">
		<stop class="stop0" offset="0" stop-opacity="1" stop-color="rgb(181,70,23)"/>
		<stop class="stop1" offset="1" stop-opacity="1" stop-color="rgb(218,127,54)"/>
	</linearGradient>
	<linearGradient id="Gradient14" gradientUnits="userSpaceOnUse" x1="107.151" y1="960.172" x2="325.332" y2="499.481">
		<stop class="stop0" offset="0" stop-opacity="1" stop-color="rgb(235,181,77)"/>
		<stop class="stop1" offset="1" stop-opacity="1" stop-color="rgb(243,219,165)"/>
	</linearGradient>
	<linearGradient id="Gradient15" gradientUnits="userSpaceOnUse" x1="1025.3" y1="600.955" x2="1022.64" y2="-1.49773">
		<stop class="stop0" offset="0" stop-opacity="1" stop-color="rgb(244,212,142)"/>
		<stop class="stop1" offset="1" stop-opacity="1" stop-color="rgb(247,239,208)"/>
	</linearGradient>
	<linearGradient id="Gradient16" gradientUnits="userSpaceOnUse" x1="933.811" y1="1695.59" x2="935.837" y2="1711.08">
		<stop class="stop0" offset="0" stop-opacity="1" stop-color="rgb(173,78,3)"/>
		<stop class="stop1" offset="1" stop-opacity="1" stop-color="rgb(195,101,10)"/>
	</linearGradient>
	<linearGradient id="Gradient17" gradientUnits="userSpaceOnUse" x1="2091.99" y1="868.652" x2="1798.38" y2="424.437">
		<stop class="stop0" offset="0" stop-opacity="1" stop-color="rgb(218,162,55)"/>
		<stop class="stop1" offset="1" stop-opacity="1" stop-color="rgb(248,225,173)"/>
	</linearGradient>
	<linearGradient id="Gradient18" gradientUnits="userSpaceOnUse" x1="1017.93" y1="1986.79" x2="1016.47" y2="911.619">
		<stop class="stop0" offset="0" stop-opacity="1" stop-color="rgb(219,105,13)"/>
		<stop class="stop1" offset="1" stop-opacity="1" stop-color="rgb(234,171,10)"/>
	</linearGradient>
	<linearGradient id="Gradient19" gradientUnits="userSpaceOnUse" x1="1028.24" y1="1369.09" x2="1008.48" y2="158.764">
		<stop class="stop0" offset="0" stop-opacity="1" stop-color="rgb(207,229,228)"/>
		<stop class="stop1" offset="1" stop-opacity="1" stop-color="rgb(255,255,248)"/>
	</linearGradient>
</defs>
<path transform="translate(0,0)" fill="url(#Gradient19)" d="M 0 0 L 224.371 0 L 1713.08 0 L 2048 0 L 2048 228 L 2048 1144.04 L 2048 1691.85 L 2048 2046 L 0 2046 L 0 1515.92 L 0 909.139 L 0 317.104 L 0 0 z M 448.497 1047.33 C 438.597 1048.94 399.944 1041.4 388.906 1039.18 C 286.038 1019.28 185.233 989.908 87.7813 951.429 C 62.748 941.56 40.1838 931.099 16.9292 917.549 C 14.8868 916.359 11.99 915.427 9.60199 915.393 L 8.65763 918.407 L 6.51685 919.002 C 5.349 911.854 5.84415 912.888 0 909.139 L 0 1515.92 L 0 2046 L 2048 2046 L 2048 1691.85 L 2048 1144.04 L 2048 228 C 2043.12 261.22 2045.19 291.559 2044.84 324.615 C 2044.75 333.239 2046.81 358.912 2040.36 360.196 C 2026.24 363.003 2031.27 375.323 2020.7 374.266 C 2018.74 371.961 2019.52 373.266 2019.14 369.782 C 2015.51 369.905 2014.79 374.65 2013.63 377.836 C 2012.08 375.235 2013.16 375.36 2010.65 373.166 L 2008.74 372.877 C 2002.48 379.272 2010.14 381.221 2000.39 381.471 C 1996.59 386.761 1999.39 395.78 1994.07 398.474 C 1989.34 400.868 1988.01 406.189 1985.71 411.218 C 1970.77 443.862 1964.48 462.258 1925 463.766 C 1917.07 464.068 1914.37 468.084 1904.01 468.346 L 1903.19 469.571 C 1900.03 474.205 1899.67 471.393 1894.24 474.458 L 1892.93 473.866 L 1892.54 476.919 L 1891.23 475.986 L 1890.54 477.917 L 1888.5 475.832 C 1887.59 477.639 1887.86 476.621 1887.86 478.931 C 1886.78 477.837 1887.24 478.482 1886.56 476.953 C 1864.76 494.714 1872.38 498.363 1840.13 502.8 L 1838.47 504.037 L 1837.46 503.588 C 1826.87 514.95 1816.41 526.141 1804.26 535.952 C 1804.2 536.003 1793.86 536.849 1792.66 537.73 C 1779.91 547.054 1773.67 548.555 1758.14 550.357 C 1756.76 550.518 1754.71 554.303 1753.74 555.753 L 1752.25 554.253 L 1750.34 555.841 L 1747.02 554.135 C 1745.52 554.85 1741.08 558.799 1739.65 561.414 C 1729.34 580.328 1705.77 582.26 1687.75 585.407 C 1682.14 586.387 1664.37 561.888 1658.08 561.012 C 1656.9 560.567 1653.95 559.733 1652.64 559.372 C 1649.1 554.725 1645.02 548.654 1640.52 545.203 L 1637.38 547.866 C 1634.73 544.92 1633.52 541.869 1631.76 538.319 L 1630.4 538.497 L 1627.61 543.811 C 1626.68 543.489 1625.19 541.128 1624.41 540.11 C 1623.6 543.214 1623.67 543.632 1625.03 546.444 L 1623.41 547.08 C 1621.03 545.143 1622.09 546.126 1620.79 542.72 L 1619.27 543.311 C 1625.02 553.236 1650.79 629.446 1648.23 638.537 C 1651.73 661.388 1657.08 680.351 1659.47 704.369 C 1660.84 719.368 1661.8 734.402 1662.36 749.453 C 1662.58 754.721 1662.58 766.032 1663.1 770.659 C 1660.47 872.023 1638.85 955.563 1590.14 1044.86 C 1509.85 1189.7 1366.52 1300.02 1207.72 1345.5 C 1077.68 1382.34 939.68 1380.12 810.889 1339.13 C 660.812 1290.2 525.573 1186.23 448.497 1047.33 z M 320.27 27.2995 L 320.377 26.8433 C 318.772 25.405 309.296 28.1901 305.185 27.9634 C 301.187 27.7429 298.82 27.5462 294.808 26.9872 C 293.41 29.1755 293.364 29.5114 292.484 31.9912 L 293.602 33.4949 C 297.316 34.0185 300.713 32.6797 303.745 30.673 C 307.989 27.8643 316.75 29.8888 320.27 27.2995 z"/>
<path transform="translate(0,0)" fill="url(#Gradient18)" d="M 1648.23 638.537 C 1650.79 629.446 1625.02 553.236 1619.27 543.311 L 1620.79 542.72 C 1622.09 546.126 1621.03 545.143 1623.41 547.08 L 1625.03 546.444 C 1623.67 543.632 1623.6 543.214 1624.41 540.11 C 1625.19 541.128 1626.68 543.489 1627.61 543.811 L 1630.4 538.497 L 1631.76 538.319 C 1633.52 541.869 1634.73 544.92 1637.38 547.866 L 1640.52 545.203 C 1645.02 548.654 1649.1 554.725 1652.64 559.372 C 1653.95 559.733 1656.9 560.567 1658.08 561.012 C 1664.37 561.888 1682.14 586.387 1687.75 585.407 C 1705.77 582.26 1729.34 580.328 1739.65 561.414 C 1741.08 558.799 1745.52 554.85 1747.02 554.135 L 1750.34 555.841 L 1752.25 554.253 L 1753.74 555.753 C 1754.71 554.303 1756.76 550.518 1758.14 550.357 C 1773.67 548.555 1779.91 547.054 1792.66 537.73 C 1793.86 536.849 1804.2 536.003 1804.26 535.952 C 1816.41 526.141 1826.87 514.95 1837.46 503.588 L 1838.47 504.037 L 1840.13 502.8 C 1872.38 498.363 1864.76 494.714 1886.56 476.953 C 1887.24 478.482 1886.78 477.837 1887.86 478.931 C 1887.86 476.621 1887.59 477.639 1888.5 475.832 L 1890.54 477.917 L 1891.23 475.986 L 1892.54 476.919 L 1892.93 473.866 L 1894.24 474.458 C 1899.67 471.393 1900.03 474.205 1903.19 469.571 L 1904.01 468.346 C 1914.37 468.084 1917.07 464.068 1925 463.766 C 1964.48 462.258 1970.77 443.862 1985.71 411.218 C 1988.01 406.189 1989.34 400.868 1994.07 398.474 C 1999.39 395.78 1996.59 386.761 2000.39 381.471 C 2010.14 381.221 2002.48 379.272 2008.74 372.877 L 2010.65 373.166 C 2013.16 375.36 2012.08 375.235 2013.63 377.836 C 2014.79 374.65 2015.51 369.905 2019.14 369.782 C 2019.52 373.266 2018.74 371.961 2020.7 374.266 C 2031.27 375.323 2026.24 363.003 2040.36 360.196 C 2046.81 358.912 2044.75 333.239 2044.84 324.615 C 2045.19 291.559 2043.12 261.22 2048 228 L 2048 1144.04 L 2048 1691.85 L 2048 2046 L 0 2046 L 0 1515.92 L 0 909.139 C 5.84415 912.888 5.349 911.854 6.51685 919.002 L 8.65763 918.407 L 9.60199 915.393 C 11.99 915.427 14.8868 916.359 16.9292 917.549 C 40.1838 931.099 62.748 941.56 87.7813 951.429 C 185.233 989.908 286.038 1019.28 388.906 1039.18 C 399.944 1041.4 438.597 1048.94 448.497 1047.33 C 525.573 1186.23 660.812 1290.2 810.889 1339.13 C 939.68 1380.12 1077.68 1382.34 1207.72 1345.5 C 1366.52 1300.02 1509.85 1189.7 1590.14 1044.86 C 1638.85 955.563 1660.47 872.023 1663.1 770.659 C 1662.58 766.032 1662.58 754.721 1662.36 749.453 C 1661.8 734.402 1660.84 719.368 1659.47 704.369 C 1657.08 680.351 1651.73 661.388 1648.23 638.537 z M 2031.3 1431.66 C 2033.31 1434.29 2033.48 1437.05 2034.15 1440.35 C 2034.6 1434.85 2033.07 1407.83 2032.96 1399.91 L 2031.78 1298.6 C 2028.72 1308.45 2027.21 1421.5 2031.3 1431.66 z M 1916.34 1914.03 C 1960.83 1872.38 1998.39 1802.08 2015.15 1743.81 C 2018.41 1732.45 2020.03 1717.46 2023.18 1707.74 L 2023.71 1706.14 C 2023.98 1702.28 2024.87 1697.56 2025.49 1693.67 C 2028.07 1688.81 2036.34 1594.73 2036.08 1586.41 L 2035.75 1587.69 C 2033.75 1595.57 2033.18 1606.85 2030.92 1612.69 L 2029.75 1612.84 C 2028.7 1610.62 2028.51 1610.48 2028.11 1608.1 C 2026.93 1626.88 2029.31 1643.35 2027.15 1663.07 C 2025.73 1676.07 2022.08 1692.11 2021.81 1703.7 C 2018.7 1765.39 1962.84 1864.77 1919.37 1907.76 L 1916.34 1914.03 z M 1668.74 2030.17 C 1665.22 2031.41 1662.71 2031.74 1659.01 2032.39 C 1669.45 2035.49 1776.27 2011.66 1783.1 2003.45 C 1775.63 2003.9 1769.83 2008.84 1761.78 2009.31 C 1743.07 2013.55 1727.36 2020.42 1707.16 2024.11 C 1695.49 2026.23 1678.68 2027.79 1668.74 2030.17 z"/>
<path transform="translate(0,0)" fill="rgb(176,109,55)" fill-opacity="0.894118" d="M 2031.3 1431.66 C 2027.21 1421.5 2028.72 1308.45 2031.78 1298.6 L 2032.96 1399.91 C 2033.07 1407.83 2034.6 1434.85 2034.15 1440.35 C 2033.48 1437.05 2033.31 1434.29 2031.3 1431.66 z"/>
<path transform="translate(0,0)" fill="rgb(164,88,42)" fill-opacity="0.729412" d="M 2021.81 1703.7 C 2022.88 1700.88 2023.85 1695.7 2024.55 1692.57 L 2025.49 1693.67 C 2024.87 1697.56 2023.98 1702.28 2023.71 1706.14 L 2023.18 1707.74 C 2020.03 1717.46 2018.41 1732.45 2015.15 1743.81 C 1998.39 1802.08 1960.83 1872.38 1916.34 1914.03 L 1919.37 1907.76 C 1962.84 1864.77 2018.7 1765.39 2021.81 1703.7 z"/>
<path transform="translate(0,0)" fill="rgb(176,109,55)" fill-opacity="0.886275" d="M 2028.11 1608.1 C 2028.51 1610.48 2028.7 1610.62 2029.75 1612.84 L 2030.92 1612.69 C 2033.18 1606.85 2033.75 1595.57 2035.75 1587.69 L 2036.08 1586.41 C 2036.34 1594.73 2028.07 1688.81 2025.49 1693.67 L 2024.55 1692.57 C 2023.85 1695.7 2022.88 1700.88 2021.81 1703.7 C 2022.08 1692.11 2025.73 1676.07 2027.15 1663.07 C 2029.31 1643.35 2026.93 1626.88 2028.11 1608.1 z"/>
<path transform="translate(0,0)" fill="rgb(164,88,42)" fill-opacity="0.835294" d="M 1761.78 2009.31 C 1769.83 2008.84 1775.63 2003.9 1783.1 2003.45 C 1776.27 2011.66 1669.45 2035.49 1659.01 2032.39 C 1662.71 2031.74 1665.22 2031.41 1668.74 2030.17 C 1678.68 2027.79 1695.49 2026.23 1707.16 2024.11 C 1727.36 2020.42 1743.07 2013.55 1761.78 2009.31 z"/>
<path transform="translate(0,0)" fill="rgb(237,194,109)" d="M 1648.23 638.537 C 1650.79 629.446 1625.02 553.236 1619.27 543.311 L 1620.79 542.72 C 1622.09 546.126 1621.03 545.143 1623.41 547.08 L 1625.03 546.444 C 1623.67 543.632 1623.6 543.214 1624.41 540.11 C 1625.19 541.128 1626.68 543.489 1627.61 543.811 L 1630.4 538.497 L 1631.76 538.319 C 1633.52 541.869 1634.73 544.92 1637.38 547.866 L 1640.52 545.203 C 1645.02 548.654 1649.1 554.725 1652.64 559.372 C 1653.95 559.733 1656.9 560.567 1658.08 561.012 C 1664.37 561.888 1682.14 586.387 1687.75 585.407 C 1705.77 582.26 1729.34 580.328 1739.65 561.414 C 1741.08 558.799 1745.52 554.85 1747.02 554.135 L 1750.34 555.841 L 1752.25 554.253 L 1753.74 555.753 C 1754.71 554.303 1756.76 550.518 1758.14 550.357 C 1773.67 548.555 1779.91 547.054 1792.66 537.73 C 1793.86 536.849 1804.2 536.003 1804.26 535.952 C 1816.41 526.141 1826.87 514.95 1837.46 503.588 L 1838.47 504.037 L 1840.13 502.8 C 1872.38 498.363 1864.76 494.714 1886.56 476.953 C 1887.24 478.482 1886.78 477.837 1887.86 478.931 C 1887.86 476.621 1887.59 477.639 1888.5 475.832 L 1890.54 477.917 L 1891.23 475.986 L 1892.54 476.919 L 1892.93 473.866 L 1894.24 474.458 C 1899.67 471.393 1900.03 474.205 1903.19 469.571 L 1904.01 468.346 C 1914.37 468.084 1917.07 464.068 1925 463.766 C 1964.48 462.258 1970.77 443.862 1985.71 411.218 C 1988.01 406.189 1989.34 400.868 1994.07 398.474 C 1999.39 395.78 1996.59 386.761 2000.39 381.471 C 2010.14 381.221 2002.48 379.272 2008.74 372.877 L 2010.65 373.166 C 2013.16 375.36 2012.08 375.235 2013.63 377.836 C 2014.79 374.65 2015.51 369.905 2019.14 369.782 C 2019.52 373.266 2018.74 371.961 2020.7 374.266 C 2031.27 375.323 2026.24 363.003 2040.36 360.196 C 2046.81 358.912 2044.75 333.239 2044.84 324.615 C 2045.19 291.559 2043.12 261.22 2048 228 L 2048 1144.04 L 2046.88 1143.63 L 2045.49 1145.92 C 2044.46 1140.27 2044.95 1097.71 2044.94 1089.81 L 2045.04 953.169 C 2045.06 944.896 2045.77 911.28 2044.45 904.652 C 2032.45 907.468 2036.76 921.484 2036.29 930.519 C 2036.46 948.501 2031.92 969.581 2032.75 987.298 C 2033.46 1002.32 2035.25 1011.39 2034.17 1027.38 L 2033.94 1024.19 C 2033.36 1029.39 2033.53 1046.29 2031.84 1048.82 C 2031.33 1045.27 2030.96 1028.56 2030.79 1024.35 C 2029.99 1004.35 2027.8 973.958 2030.58 954.51 L 2031.34 958.859 L 2031.71 954.646 C 2032.98 951.927 2033.77 949.009 2034.06 946.02 C 2035.41 932.951 2034.62 903.538 2034.53 889.569 C 2034.39 870.138 2035.31 842.81 2033.83 823.929 C 2032.02 826.028 2032.53 850.147 2032.55 854.593 C 2032.47 872.631 2031.93 890.665 2030.95 908.677 C 2020.28 911.972 1994.46 931.757 1984.34 933.415 C 1983.95 930.231 1984.33 922.536 1983.08 921.549 L 1983.17 936.291 C 1948.35 952.024 1913.31 966.11 1877.09 978.257 C 1868.77 981.05 1847.75 989.009 1839.86 990.46 C 1806.21 1001.5 1618 1052.95 1593.94 1045.83 C 1593.23 1045.62 1592.5 1045.47 1591.78 1045.29 L 1590.14 1044.86 C 1638.85 955.563 1660.47 872.023 1663.1 770.659 C 1662.58 766.032 1662.58 754.721 1662.36 749.453 C 1661.8 734.402 1660.84 719.368 1659.47 704.369 C 1657.08 680.351 1651.73 661.388 1648.23 638.537 z"/>
<path transform="translate(0,0)" fill="url(#Gradient17)" d="M 1648.23 638.537 C 1650.79 629.446 1625.02 553.236 1619.27 543.311 L 1620.79 542.72 C 1622.09 546.126 1621.03 545.143 1623.41 547.08 L 1625.03 546.444 C 1623.67 543.632 1623.6 543.214 1624.41 540.11 C 1625.19 541.128 1626.68 543.489 1627.61 543.811 L 1630.4 538.497 L 1631.76 538.319 C 1633.52 541.869 1634.73 544.92 1637.38 547.866 L 1640.52 545.203 C 1645.02 548.654 1649.1 554.725 1652.64 559.372 C 1653.95 559.733 1656.9 560.567 1658.08 561.012 C 1664.37 561.888 1682.14 586.387 1687.75 585.407 C 1705.77 582.26 1729.34 580.328 1739.65 561.414 C 1741.08 558.799 1745.52 554.85 1747.02 554.135 L 1750.34 555.841 L 1752.25 554.253 L 1753.74 555.753 C 1754.71 554.303 1756.76 550.518 1758.14 550.357 C 1773.67 548.555 1779.91 547.054 1792.66 537.73 C 1793.86 536.849 1804.2 536.003 1804.26 535.952 C 1816.41 526.141 1826.87 514.95 1837.46 503.588 L 1838.47 504.037 L 1840.13 502.8 C 1872.38 498.363 1864.76 494.714 1886.56 476.953 C 1887.24 478.482 1886.78 477.837 1887.86 478.931 C 1887.86 476.621 1887.59 477.639 1888.5 475.832 L 1890.54 477.917 L 1891.23 475.986 L 1892.54 476.919 L 1892.93 473.866 L 1894.24 474.458 C 1899.67 471.393 1900.03 474.205 1903.19 469.571 L 1904.01 468.346 C 1914.37 468.084 1917.07 464.068 1925 463.766 C 1964.48 462.258 1970.77 443.862 1985.71 411.218 C 1988.01 406.189 1989.34 400.868 1994.07 398.474 C 1999.39 395.78 1996.59 386.761 2000.39 381.471 C 2010.14 381.221 2002.48 379.272 2008.74 372.877 L 2010.65 373.166 C 2013.16 375.36 2012.08 375.235 2013.63 377.836 C 2014.79 374.65 2015.51 369.905 2019.14 369.782 C 2019.52 373.266 2018.74 371.961 2020.7 374.266 C 2031.27 375.323 2026.24 363.003 2040.36 360.196 C 2046.81 358.912 2044.75 333.239 2044.84 324.615 C 2045.19 291.559 2043.12 261.22 2048 228 L 2048 1144.04 L 2046.88 1143.63 L 2045.49 1145.92 C 2044.46 1140.27 2044.95 1097.71 2044.94 1089.81 L 2045.04 953.169 C 2045.06 944.896 2045.77 911.28 2044.45 904.652 C 2032.45 907.468 2036.76 921.484 2036.29 930.519 C 2036.46 948.501 2031.92 969.581 2032.75 987.298 C 2033.46 1002.32 2035.25 1011.39 2034.17 1027.38 L 2033.94 1024.19 C 2033.36 1029.39 2033.53 1046.29 2031.84 1048.82 C 2031.33 1045.27 2030.96 1028.56 2030.79 1024.35 C 2029.99 1004.35 2027.8 973.958 2030.58 954.51 L 2031.34 958.859 L 2031.71 954.646 C 2032.98 951.927 2033.77 949.009 2034.06 946.02 C 2035.41 932.951 2034.62 903.538 2034.53 889.569 C 2034.39 870.138 2035.31 842.81 2033.83 823.929 C 2032.02 826.028 2032.53 850.147 2032.55 854.593 C 2029.18 843.852 2030.64 743.447 2030.58 724.401 L 2028.9 567.549 L 2028.02 568.912 L 2026.9 568.636 C 2022.62 558.902 2023.73 514.71 2022.36 503.019 L 2021.18 502.203 C 2001.9 516.153 2005.5 516.895 1997.95 539.174 C 1994.98 547.941 1988.31 555.934 1984.53 562.278 C 1982.52 565.649 1983.51 584.338 1983.37 589.714 C 1982.67 614.816 1982.22 640.352 1982.84 665.485 C 1983.06 674.568 1984.21 689.863 1981.48 698.163 C 1981.53 678.248 1981.48 660.584 1979.81 640.65 C 1979.07 631.733 1980.99 619.052 1979.62 609.701 L 1977.85 609.144 C 1975.06 610.618 1974.32 610.647 1972.71 613.34 C 1953.14 618.87 1948.1 618.524 1927.84 618.962 C 1916.83 619.201 1895.31 630.326 1883.64 632.755 C 1876.29 634.933 1869.74 633.333 1865.52 634.984 C 1835.9 646.571 1807.45 667.591 1775.42 670.253 C 1770.92 673.247 1770.85 674.569 1767.73 676.746 C 1765.89 678.036 1757.78 681.192 1755.29 682.4 C 1736.92 691.319 1729.15 691.918 1709.59 693.731 L 1707.47 692.849 C 1706.85 690.077 1707.09 690.182 1708.25 687.509 C 1709.23 687.897 1697.63 683.207 1699.52 684.321 C 1691.42 679.555 1695.18 677.628 1684.99 674.034 C 1680.42 667.987 1685.64 665.704 1677.84 663.241 C 1670.03 660.775 1671.93 649.393 1664.52 647.473 L 1662.96 648.128 C 1660.18 645.608 1659.91 645.029 1657.96 641.985 C 1656.8 643.704 1657.26 642.9 1656.52 644.357 C 1655.03 642.516 1655.49 643.538 1655.08 641.326 L 1653.58 639.68 C 1652.87 641.001 1652.11 642.267 1651.28 643.517 C 1653.88 660.219 1672.17 763.191 1663.1 770.659 C 1662.58 766.032 1662.58 754.721 1662.36 749.453 C 1661.8 734.402 1660.84 719.368 1659.47 704.369 C 1657.08 680.351 1651.73 661.388 1648.23 638.537 z"/>
<path transform="translate(0,0)" fill="rgb(184,81,14)" d="M 0 1515.92 C 5.00875 1523.81 3.57478 1539.55 3.55344 1549.21 L 3.34634 1619.52 C 3.29692 1629.43 1.22737 1650.19 5.79256 1657.75 L 7.28326 1658.01 C 11.2319 1649.99 4.61348 1622.01 5.79565 1607.45 C 5.58419 1604.09 5.04768 1600.48 6.04168 1597.33 L 6.89917 1597.61 C 7.35993 1602.51 7.91306 1611.06 8.90435 1615.41 L 9.71531 1615.83 L 9.87827 1615.32 C 12.3422 1621.3 11.7222 1635.02 12.2703 1642.03 C 13.7526 1660.99 16.0407 1680.23 19.2246 1698.98 C 21.1524 1710.33 24.786 1721.7 26.6949 1733.11 C 34.0385 1772.6 60.7131 1820.63 79.6749 1855.62 C 83.5751 1857.73 97.4202 1877.31 99.4026 1881.38 C 111.838 1894.67 125.946 1910.68 139.143 1922.81 C 193.483 1972.33 260.359 2006 332.498 2020.17 C 351.522 2024.01 385.676 2027.96 405.936 2030.05 L 1340 2029.74 L 1448.5 2029.68 C 1474.63 2029.91 1501.41 2031.16 1527.5 2030.88 L 1623.5 2030.81 C 1635.9 2030.75 1656.92 2028.95 1668 2029.64 L 1668.74 2030.17 C 1665.22 2031.41 1662.71 2031.74 1659.01 2032.39 C 1669.45 2035.49 1776.27 2011.66 1783.1 2003.45 C 1836.67 1979.67 1875.78 1958.51 1916.34 1914.03 C 1960.83 1872.38 1998.39 1802.08 2015.15 1743.81 C 2018.41 1732.45 2020.03 1717.46 2023.18 1707.74 L 2023.71 1706.14 L 2024.92 1708.04 C 2019.95 1733.12 2014.88 1751.76 2005.95 1775.55 C 2003.33 1782.52 1999.79 1790.32 1997.62 1797.06 C 1998.54 1796.98 1999.45 1796.89 2000.36 1796.8 C 2000.71 1799.73 2000.15 1799.9 2001.55 1801.37 C 2009.19 1795.71 2039.16 1764.94 2042.68 1756.39 C 2049.07 1740.85 2041.01 1705.12 2045.79 1687.99 L 2047.14 1688.28 L 2048 1691.85 L 2048 2046 L 0 2046 L 0 1515.92 z"/>
<path transform="translate(0,0)" fill="rgb(176,109,55)" d="M 405.936 2030.05 L 1340 2029.74 L 1448.5 2029.68 C 1474.63 2029.91 1501.41 2031.16 1527.5 2030.88 L 1623.5 2030.81 C 1635.9 2030.75 1656.92 2028.95 1668 2029.64 C 1652.31 2031.65 1639.02 2030.6 1624.24 2031.98 C 1583.71 2035.78 1543.3 2035.41 1502.55 2035.26 L 1385.81 2035.19 L 926.039 2035.45 L 938.081 2036.57 C 924.535 2039.81 908.107 2034.77 895.206 2035.58 C 866.322 2037.4 838.57 2035.23 809.729 2035.1 L 541.722 2033.77 C 504.199 2033.52 456.44 2035.77 420.027 2032.99 C 416.341 2032.46 411.043 2032.36 406.75 2031.84 L 405.936 2030.05 z"/>
<path transform="translate(0,0)" fill="rgb(164,88,42)" d="M 99.4026 1881.38 C 111.838 1894.67 125.946 1910.68 139.143 1922.81 C 193.483 1972.33 260.359 2006 332.498 2020.17 C 351.522 2024.01 385.676 2027.96 405.936 2030.05 L 406.75 2031.84 C 411.043 2032.36 416.341 2032.46 420.027 2032.99 C 405.988 2033.79 392.009 2031.82 378.041 2030.67 C 295.691 2023.9 215.618 1991.54 152.076 1938.66 C 142.125 1930.38 100.29 1891.88 99.4026 1881.38 z"/>
<path transform="translate(0,0)" fill="rgb(176,109,55)" d="M 26.6949 1733.11 C 34.0385 1772.6 60.7131 1820.63 79.6749 1855.62 L 77.4986 1855.22 C 60.5954 1838.06 27.7397 1761.85 24.1056 1736.79 L 25.5747 1736.2 L 26.6949 1733.11 z"/>
<path transform="translate(0,0)" fill="rgb(176,109,55)" d="M 5.79565 1607.45 C 5.58419 1604.09 5.04768 1600.48 6.04168 1597.33 L 6.89917 1597.61 C 7.35993 1602.51 7.91306 1611.06 8.90435 1615.41 L 9.71531 1615.83 L 9.87827 1615.32 C 12.3422 1621.3 11.7222 1635.02 12.2703 1642.03 C 13.7526 1660.99 16.0407 1680.23 19.2246 1698.98 C 21.1524 1710.33 24.786 1721.7 26.6949 1733.11 L 25.5747 1736.2 L 24.1056 1736.79 C 15.9488 1713.19 11.9851 1676.77 9.89909 1651.75 C 8.72443 1637.67 8.71777 1621.15 5.79565 1607.45 z"/>
<path transform="translate(0,0)" fill="rgb(184,81,14)" d="M 9.87827 1615.32 C 7.74441 1607.82 7.93509 1556.23 7.91665 1545.92 C 7.30172 1548.94 7.62133 1549.14 6.05491 1551.5 C 5.4946 1538.8 3.91245 1526.67 5.01687 1513.75 C 5.47259 1508.41 5.17261 1496.97 6.06798 1492.03 L 7.09841 1492.03 C 8.09612 1494.84 7.30918 1498.94 7.01771 1502.19 L 8.70905 1503.12 C 9.26283 1502.88 9.81661 1502.64 10.3704 1502.4 C 12.119 1509.69 12.1724 1522.3 12.267 1530.04 C 12.8589 1578.47 10.9682 1626.46 17.7793 1674.6 C 19.2787 1685.2 18.2726 1682.57 27.4768 1690.09 C 33.2102 1694.24 35.2683 1702.06 39.0809 1707.85 C 60.5054 1740.4 65.7572 1769.87 92.5338 1799.42 L 96.6408 1799.62 L 99.1021 1802.53 L 99.7048 1802.08 L 98.1349 1796.3 C 104.645 1803.81 116.455 1826.17 123.88 1835.84 C 152.204 1872.75 181.804 1904 221.363 1928.46 C 268.732 1957.96 322.047 1976.61 377.479 1983.07 C 448.016 1991.64 527.794 1988.66 599.278 1989.04 L 978.883 1989.55 L 1382.01 1988.43 L 1492.19 1988.52 C 1563.22 1989.16 1639.42 1991.05 1708.69 1974.73 C 1778.84 1958.21 1847.05 1916.7 1893.54 1861.83 C 1910.55 1841.77 1923.63 1820.61 1937.39 1798.22 L 1938.05 1799.14 C 1936.59 1801.53 1936.52 1801.48 1935.84 1804.16 L 1937.39 1804.57 C 1953.12 1798.36 1968.03 1767.56 1978.6 1753.77 C 1983.72 1747.07 2012.38 1722.81 2013.6 1718.05 C 2025.09 1673.21 2024.59 1625.29 2026.66 1579.16 C 2027.66 1550.1 2025.26 1528.09 2028.11 1501.93 C 2029.02 1508.45 2028.96 1515.02 2028.97 1521.58 C 2029.04 1550.4 2029.81 1579.31 2028.11 1608.1 C 2026.93 1626.88 2029.31 1643.35 2027.15 1663.07 C 2025.73 1676.07 2022.08 1692.11 2021.81 1703.7 C 2018.7 1765.39 1962.84 1864.77 1919.37 1907.76 L 1916.34 1914.03 C 1875.78 1958.51 1836.67 1979.67 1783.1 2003.45 C 1775.63 2003.9 1769.83 2008.84 1761.78 2009.31 C 1743.07 2013.55 1727.36 2020.42 1707.16 2024.11 C 1695.49 2026.23 1678.68 2027.79 1668.74 2030.17 L 1668 2029.64 C 1656.92 2028.95 1635.9 2030.75 1623.5 2030.81 L 1527.5 2030.88 C 1501.41 2031.16 1474.63 2029.91 1448.5 2029.68 L 1340 2029.74 L 405.936 2030.05 C 385.676 2027.96 351.522 2024.01 332.498 2020.17 C 260.359 2006 193.483 1972.33 139.143 1922.81 C 125.946 1910.68 111.838 1894.67 99.4026 1881.38 C 97.4202 1877.31 83.5751 1857.73 79.6749 1855.62 C 60.7131 1820.63 34.0385 1772.6 26.6949 1733.11 C 24.786 1721.7 21.1524 1710.33 19.2246 1698.98 C 16.0407 1680.23 13.7526 1660.99 12.2703 1642.03 C 11.7222 1635.02 12.3422 1621.3 9.87827 1615.32 z"/>
<path transform="translate(0,0)" fill="rgb(145,91,70)" d="M 1761.78 2009.31 C 1775.93 2003.77 1795.19 1995.09 1809.05 1988.66 C 1820.48 1982.75 1831.77 1973.7 1842.89 1967.72 C 1872.4 1951.83 1893.84 1928.06 1919.37 1907.76 L 1916.34 1914.03 C 1875.78 1958.51 1836.67 1979.67 1783.1 2003.45 C 1775.63 2003.9 1769.83 2008.84 1761.78 2009.31 z"/>
<path transform="translate(0,0)" fill="rgb(198,118,19)" d="M 2031.84 1048.82 C 2033.53 1046.29 2033.36 1029.39 2033.94 1024.19 L 2034.17 1027.38 C 2035.25 1011.39 2033.46 1002.32 2032.75 987.298 C 2031.92 969.581 2036.46 948.501 2036.29 930.519 C 2036.76 921.484 2032.45 907.468 2044.45 904.652 C 2045.77 911.28 2045.06 944.896 2045.04 953.169 L 2044.94 1089.81 C 2044.95 1097.71 2044.46 1140.27 2045.49 1145.92 L 2046.88 1143.63 L 2048 1144.04 L 2048 1691.85 L 2047.14 1688.28 L 2045.79 1687.99 C 2041.01 1705.12 2049.07 1740.85 2042.68 1756.39 C 2039.16 1764.94 2009.19 1795.71 2001.55 1801.37 C 2000.15 1799.9 2000.71 1799.73 2000.36 1796.8 C 1999.45 1796.89 1998.54 1796.98 1997.62 1797.06 C 1999.79 1790.32 2003.33 1782.52 2005.95 1775.55 C 2014.88 1751.76 2019.95 1733.12 2024.92 1708.04 L 2023.71 1706.14 C 2023.98 1702.28 2024.87 1697.56 2025.49 1693.67 C 2028.07 1688.81 2036.34 1594.73 2036.08 1586.41 L 2035.75 1587.69 C 2033.75 1595.57 2033.18 1606.85 2030.92 1612.69 L 2029.75 1612.84 C 2028.7 1610.62 2028.51 1610.48 2028.11 1608.1 C 2029.81 1579.31 2029.04 1550.4 2028.97 1521.58 C 2028.96 1515.02 2029.02 1508.45 2028.11 1501.93 C 2028.47 1484.53 2027.73 1466.25 2027.85 1448.79 C 2027.9 1440.9 2026.77 1431.68 2027.34 1424.02 L 2027.96 1424.52 C 2027.95 1427.55 2027.53 1429.77 2029.22 1432.17 L 2031.3 1431.66 C 2033.31 1434.29 2033.48 1437.05 2034.15 1440.35 C 2034.6 1434.85 2033.07 1407.83 2032.96 1399.91 L 2031.78 1298.6 C 2032.95 1287.41 2031.69 1264.59 2031.11 1252.78 C 2030.43 1238.98 2032.95 1213.38 2031.55 1201.66 L 2030.61 1201.14 C 2029.4 1204.43 2029.87 1209.8 2029.66 1213.49 C 2028.35 1235.92 2030.68 1258.53 2030.22 1281.01 C 2030.09 1287.34 2030.55 1298.69 2029.75 1304.65 L 2028.7 1304.1 C 2027.57 1295.87 2028.81 1279.88 2028.69 1270.92 C 2028.59 1262.91 2027.19 1238.52 2027.5 1233.06 C 2028.74 1211.09 2027.92 1059.3 2031.84 1048.82 z"/>
<path transform="translate(0,0)" fill="rgb(157,126,97)" d="M 2028.11 1501.93 C 2028.47 1484.53 2027.73 1466.25 2027.85 1448.79 C 2027.9 1440.9 2026.77 1431.68 2027.34 1424.02 L 2027.96 1424.52 C 2027.95 1427.55 2027.53 1429.77 2029.22 1432.17 L 2031.3 1431.66 C 2033.31 1434.29 2033.48 1437.05 2034.15 1440.35 C 2038.03 1461.88 2036.12 1510.93 2036.18 1534.03 C 2036.22 1548.33 2036.66 1572.57 2036.08 1586.41 L 2035.75 1587.69 C 2033.75 1595.57 2033.18 1606.85 2030.92 1612.69 L 2029.75 1612.84 C 2028.7 1610.62 2028.51 1610.48 2028.11 1608.1 C 2029.81 1579.31 2029.04 1550.4 2028.97 1521.58 C 2028.96 1515.02 2029.02 1508.45 2028.11 1501.93 z"/>
<path transform="translate(0,0)" fill="rgb(244,162,84)" d="M 2032.55 854.593 C 2032.53 850.147 2032.02 826.028 2033.83 823.929 C 2035.31 842.81 2034.39 870.138 2034.53 889.569 C 2034.62 903.538 2035.41 932.951 2034.06 946.02 C 2033.77 949.009 2032.98 951.927 2031.71 954.646 C 2029.82 949.449 2031.24 944.688 2028.74 938.804 L 2027.76 938.466 C 2026.18 944.289 2027.18 953.501 2026.92 959.902 C 2025 1008.46 2029.41 1057.44 2026.1 1106.06 C 2025.25 1118.67 2026.46 1132.25 2025.78 1145.03 C 2023.78 1141.71 2025.95 1010.75 2024.29 996.26 C 2022.08 976.921 2027.48 938.817 2023.97 915.031 C 2010.77 922.785 1996.88 929.475 1983.17 936.291 L 1983.08 921.549 C 1984.33 922.536 1983.95 930.231 1984.34 933.415 C 1994.46 931.757 2020.28 911.972 2030.95 908.677 C 2031.93 890.665 2032.47 872.631 2032.55 854.593 z"/>
<path transform="translate(0,0)" fill="rgb(253,254,254)" d="M 866.322 1757.28 C 839.117 1723.35 851.506 1678.15 892.219 1663.06 C 920.211 1652.69 955.632 1654.02 983.165 1665.17 C 1000.26 1672.08 1009.07 1683.13 1000.29 1700.7 L 1001.28 1702.51 C 985.767 1717.97 985.701 1709.9 969.918 1708.16 C 956.417 1706.67 924.687 1705.91 912.821 1709.89 C 913.59 1712.13 913.708 1711.16 913.258 1713.08 L 908.63 1715.47 C 906.996 1713.57 905.923 1711.51 904.047 1711.22 C 899.037 1721.22 913.653 1727.45 916.353 1733.36 C 945.99 1748.25 997.983 1747.12 1010.51 1784.08 C 1022.26 1820.53 1003.57 1854.38 966.708 1864.62 C 934.033 1873.7 897.517 1870.42 867.072 1855.65 C 841.66 1843.33 841.456 1817.03 870.79 1810.61 C 880.933 1813.07 891.279 1818.55 900.693 1823.2 C 913.203 1829.38 942.743 1833.12 954.152 1824.15 L 953.813 1822.31 C 962.682 1816.86 966.916 1806.74 958.324 1798.93 C 943.335 1785.29 937.153 1788.81 920.298 1788.79 C 909.024 1788.78 873.128 1766.82 865.807 1759.26 L 866.322 1757.28 z"/>
<path transform="translate(0,0)" fill="url(#Gradient16)" d="M 916.353 1733.36 C 900.954 1725.85 895.438 1711.2 909.59 1700.83 C 931.564 1684.73 961.615 1704.69 983.645 1709.02 C 990.388 1710.34 995.687 1704.86 1000.29 1700.7 L 1001.28 1702.51 C 985.767 1717.97 985.701 1709.9 969.918 1708.16 C 956.417 1706.67 924.687 1705.91 912.821 1709.89 C 913.59 1712.13 913.708 1711.16 913.258 1713.08 L 908.63 1715.47 C 906.996 1713.57 905.923 1711.51 904.047 1711.22 C 899.037 1721.22 913.653 1727.45 916.353 1733.36 z"/>
<path transform="translate(0,0)" fill="rgb(184,81,14)" d="M 954.152 1824.15 L 953.813 1822.31 C 962.682 1816.86 966.916 1806.74 958.324 1798.93 C 943.335 1785.29 937.153 1788.81 920.298 1788.79 C 909.024 1788.78 873.128 1766.82 865.807 1759.26 L 866.322 1757.28 C 878.31 1766.78 881.814 1767.47 896.215 1773.9 C 915.661 1782.59 959.767 1782.99 964.677 1807.43 C 965.991 1813.97 960.483 1821.97 954.152 1824.15 z"/>
<path transform="translate(0,0)" fill="rgb(253,254,254)" d="M 1043.24 1855.06 C 1041.77 1844.13 1042.67 1828.96 1042.78 1817.54 L 1042.76 1767.6 L 1042.82 1707.37 C 1042.85 1686.66 1036.91 1660.15 1065.31 1659.28 C 1087.04 1658.62 1108.73 1659.02 1130.47 1659.17 C 1145.1 1659.27 1159.92 1658.2 1174.41 1659.69 C 1196.4 1663.03 1199.28 1681.7 1185.22 1696.45 L 1184.18 1697.52 L 1185.33 1698.46 C 1183.21 1699.24 1159.12 1706.57 1158.41 1706.64 C 1138.03 1708.64 1117.1 1709.35 1096.75 1710.91 C 1094.31 1711.1 1094.08 1716.04 1092.67 1718.03 L 1092.01 1718.03 C 1091.7 1728.06 1091.89 1737.19 1092.13 1747.18 C 1115.45 1747.83 1140.02 1746.09 1162.95 1747.79 C 1184.24 1749.38 1185.95 1769.66 1172.93 1783.84 L 1174.33 1784.37 C 1163.13 1789.9 1162.16 1791.57 1149.94 1794.8 C 1136.72 1798.3 1101.79 1795.17 1093.66 1799.96 C 1093.31 1802.48 1093.17 1804.24 1093 1806.75 L 1091.9 1807.48 C 1090.66 1822.3 1092.2 1839.64 1090.87 1856.02 C 1077.31 1872.6 1055.7 1873.24 1043.24 1855.06 z"/>
<path transform="translate(0,0)" fill="rgb(184,81,14)" d="M 1091.72 1698.37 C 1113.78 1698.57 1165.05 1700.6 1184.18 1697.52 L 1185.33 1698.46 C 1183.21 1699.24 1159.12 1706.57 1158.41 1706.64 C 1138.03 1708.64 1117.1 1709.35 1096.75 1710.91 C 1094.31 1711.1 1094.08 1716.04 1092.67 1718.03 L 1092.01 1718.03 C 1091.58 1713.03 1091.78 1703.7 1091.72 1698.37 z"/>
<path transform="translate(0,0)" fill="rgb(184,81,14)" d="M 1172.93 1783.84 L 1174.33 1784.37 C 1163.13 1789.9 1162.16 1791.57 1149.94 1794.8 C 1136.72 1798.3 1101.79 1795.17 1093.66 1799.96 C 1093.31 1802.48 1093.17 1804.24 1093 1806.75 L 1091.9 1807.48 C 1091.45 1803.76 1091.75 1791.1 1091.75 1786.71 C 1110.55 1786.25 1157.95 1788.36 1172.93 1783.84 z"/>
<path transform="translate(0,0)" fill="rgb(253,254,254)" d="M 626.102 1556.85 C 623.823 1542.59 611.748 1468.78 618.056 1460.64 C 621.393 1456.34 626.994 1453.86 632.306 1453.32 C 637.787 1452.77 646.386 1453.09 650.787 1456.97 C 653.728 1459.56 654.65 1463.64 655.405 1467.33 C 658.826 1484.06 658.924 1502.54 660.863 1519.57 C 664.051 1547.57 669.576 1576.64 669.941 1604.75 C 670.007 1609.83 669.944 1615.27 666.037 1619.02 C 661.303 1623.55 653.223 1625.01 646.908 1624.53 C 627.69 1623.09 611.73 1592.45 596.816 1581.69 C 592.19 1583.66 575.343 1557.32 569.698 1555.58 C 566.286 1554.53 561.205 1558.46 558.067 1560.5 C 556.458 1564.08 558.551 1572.76 559.135 1577.37 L 557.79 1578.64 C 558.368 1592.1 567.07 1623.18 557.797 1633.24 C 553.323 1638.08 545.779 1639.15 539.505 1639 C 534.574 1638.89 529.062 1637.31 525.858 1633.3 C 521.297 1627.59 505.44 1490.66 506.986 1477.67 C 515.189 1465.58 535.792 1465.19 546.128 1473.74 C 559.363 1484.68 572.113 1499.16 583.622 1511.89 C 597.372 1527.26 611.537 1542.25 626.102 1556.85 z"/>
<path transform="translate(0,0)" fill="rgb(184,81,14)" d="M 552.529 1533.39 C 561.546 1542.61 589.88 1572.16 596.816 1581.69 C 592.19 1583.66 575.343 1557.32 569.698 1555.58 C 566.286 1554.53 561.205 1558.46 558.067 1560.5 C 556.458 1564.08 558.551 1572.76 559.135 1577.37 L 557.79 1578.64 C 555.751 1571.33 553.422 1542.16 552.529 1533.39 z"/>
<path transform="translate(0,0)" fill="rgb(253,254,254)" d="M 1469.81 1460.29 C 1476.95 1460.72 1485.19 1460.93 1491.98 1465.21 C 1509.66 1476.32 1546.71 1565.03 1556.53 1572.22 C 1559.79 1569.66 1563.42 1487.89 1572.26 1480.65 C 1581.41 1473.16 1598.81 1476.75 1606.18 1486.12 C 1607.01 1491.11 1607 1497.01 1606.4 1502.06 C 1602.21 1537.65 1596.11 1573.01 1591.67 1608.57 C 1590.39 1618.78 1589.45 1629.35 1586.82 1639.29 C 1585.66 1643.67 1581.01 1645.83 1577.32 1647.59 C 1568.02 1648.45 1558.1 1647.3 1552.16 1639.42 C 1541.74 1625.61 1533.42 1608.42 1525.07 1593.2 C 1513.61 1572.37 1501.98 1551.65 1490.16 1531.03 C 1485.66 1561.3 1485.34 1593.32 1477.84 1622.92 C 1473.84 1632.55 1456.29 1630.44 1449.5 1626.91 C 1437.84 1620.86 1440.78 1608.13 1442.24 1596.51 C 1447.33 1555.96 1452.48 1515.1 1457.21 1474.48 C 1458.26 1465.44 1461.38 1462.64 1469.81 1460.29 z"/>
<path transform="translate(0,0)" fill="rgb(253,254,254)" d="M 799.996 1503.98 L 800.002 1502.05 C 799.983 1487.76 792.867 1447.21 801.892 1441.76 C 846.107 1415.06 839.686 1477.72 840.151 1489.96 C 840.856 1506.26 841.765 1522.55 842.88 1538.83 C 843.147 1543.02 843.923 1558.23 844.73 1561.21 L 846.043 1560.93 C 848.839 1568.53 852.449 1591.41 847.919 1598.52 C 841.67 1608.33 818.831 1615.73 809.72 1605.19 L 810.446 1603.93 C 801.851 1590.21 806.329 1570.75 803.253 1555.31 L 802.278 1556.34 C 801.1 1551.53 800.436 1550.19 801.09 1545.43 L 799.649 1543.75 C 794.913 1543.62 792.104 1543.81 787.995 1541.26 C 779.306 1541.1 743.817 1542.76 737.152 1546.49 C 735.664 1551.21 739.343 1554.5 737.565 1558.77 L 736.15 1558.12 L 736.155 1559.29 C 736.315 1572.91 743.034 1601.26 733.61 1611.84 C 724.744 1620.3 701.744 1619.44 700.235 1604.61 C 695.279 1555.92 691.693 1506.65 689.918 1457.79 C 689.427 1444.26 723.202 1441.81 726.268 1451.08 C 731.407 1466.62 731.343 1492.19 732.366 1509.04 C 754.982 1507.49 777.361 1505.32 799.996 1503.98 z"/>
<path transform="translate(0,0)" fill="rgb(198,118,19)" d="M 844.73 1561.21 L 846.043 1560.93 C 848.839 1568.53 852.449 1591.41 847.919 1598.52 C 841.67 1608.33 818.831 1615.73 809.72 1605.19 L 810.446 1603.93 C 816.483 1607.51 821.543 1608.6 828.645 1608.15 C 851.143 1606.71 845.363 1576.62 844.73 1561.21 z"/>
<path transform="translate(0,0)" fill="rgb(184,81,14)" d="M 735.225 1543.04 C 751.46 1540.58 783.984 1538.98 802.013 1537.25 C 802.918 1543.25 803.012 1549.25 803.253 1555.31 L 802.278 1556.34 C 801.1 1551.53 800.436 1550.19 801.09 1545.43 L 799.649 1543.75 C 794.913 1543.62 792.104 1543.81 787.995 1541.26 C 779.306 1541.1 743.817 1542.76 737.152 1546.49 C 735.664 1551.21 739.343 1554.5 737.565 1558.77 L 736.15 1558.12 L 735.225 1543.04 z"/>
<path transform="translate(0,0)" fill="rgb(253,254,254)" d="M 1334.7 1446.22 C 1343.55 1445.71 1368.07 1444.71 1372.03 1452.22 C 1386.12 1479 1395.28 1518.01 1405.5 1546.47 C 1413.29 1568.16 1417.43 1583.01 1423.06 1604.48 C 1423.95 1607.9 1424.7 1612.87 1422.87 1615.84 C 1417.08 1624.09 1401.55 1625.12 1393.38 1620.15 C 1382.77 1612.94 1379.92 1595.98 1377.38 1584.21 L 1353.99 1581.59 L 1308.13 1576.95 C 1295.49 1600.05 1298.1 1615.28 1266.1 1610.25 C 1262.07 1607.15 1255.79 1602.16 1257.52 1596 C 1261.4 1584.44 1270.74 1562.22 1277.12 1552.56 C 1289.52 1533.8 1319.32 1456.44 1334.7 1446.22 z"/>
<path transform="translate(0,0)" fill="rgb(198,118,19)" d="M 1348.3 1488.7 C 1353.56 1497.5 1364.48 1539.1 1367.2 1550.52 L 1344.76 1548.79 C 1337.8 1547.84 1328.97 1547.35 1321.84 1546.75 C 1329.62 1529.04 1339.49 1505.54 1348.3 1488.7 z"/>
<path transform="translate(0,0)" fill="rgb(253,254,254)" d="M 1650.7 1489.25 C 1696.4 1486.91 1675.19 1528.48 1672.03 1559.28 C 1693.22 1563.07 1717.72 1567.6 1738.58 1572.69 C 1742.23 1556.89 1743.07 1523.46 1755 1512.55 C 1761.89 1506.26 1780.71 1512.36 1786.3 1520.31 C 1790.77 1538.73 1769.14 1615.72 1768.06 1638.12 C 1767.66 1646.46 1763.02 1664.41 1760.31 1672.76 C 1758.95 1676.93 1751.46 1679.85 1747.59 1681.16 C 1725.89 1679.85 1719.94 1672.35 1723.99 1651.75 C 1726.95 1636.69 1729.54 1621.27 1732.6 1606.16 C 1711.26 1601.01 1687.13 1596.74 1665.47 1592.46 C 1662.05 1608.5 1660.22 1624.97 1656.84 1640.99 C 1653.33 1656.91 1644.29 1662.85 1628.55 1657.87 C 1615.79 1653.82 1614.64 1645.4 1616.77 1633.33 C 1624.68 1588.44 1632.03 1543.07 1640.83 1498.4 C 1641.7 1494.02 1646.96 1490.95 1650.7 1489.25 z"/>
<path transform="translate(0,0)" fill="rgb(253,254,254)" d="M 1112.42 1432.15 C 1152.01 1430.96 1137.44 1469.54 1137.08 1498.96 C 1158.62 1500.45 1183.02 1500.66 1204.88 1501.28 C 1204.91 1486.08 1200.48 1443.51 1216.43 1437.3 C 1222.93 1434.77 1244.7 1437.14 1245.17 1446.45 C 1247.59 1494.61 1243.22 1543.97 1241.51 1592.24 C 1241.17 1602.03 1233.95 1605.89 1225.46 1607.81 C 1192.04 1608.38 1203.27 1581.99 1202.8 1559.15 C 1202.64 1551.43 1203.3 1543.13 1203.51 1535.35 C 1181.04 1534.37 1158.57 1533.53 1136.09 1532.83 C 1135.84 1547.96 1136.21 1581.54 1133 1594.7 C 1128.97 1598.92 1127.63 1599.69 1122.63 1602.83 C 1120.2 1603 1117.75 1603.1 1115.31 1603.1 C 1105.19 1603.06 1101.83 1600.41 1095.02 1593.57 C 1094.33 1581.45 1096.68 1447.91 1099.79 1440.59 C 1102.01 1435.36 1107.53 1433.86 1112.42 1432.15 z"/>
<path transform="translate(0,0)" fill="rgb(253,254,254)" d="M 971.04 1506.2 L 972.109 1505.24 C 985.405 1493.15 999.486 1475.73 1011.88 1462.3 C 1019.75 1453.77 1028.27 1441.68 1037.82 1435.22 C 1042.44 1432.1 1047.95 1430.57 1053.51 1430.86 C 1060 1431.19 1074.15 1437.36 1070.71 1444.14 C 1060.23 1464.83 1034.4 1488.93 1019.36 1506.49 C 1033.11 1524.62 1046.56 1542.88 1060.63 1560.82 C 1065.25 1566.72 1078.05 1582.34 1076.94 1590.22 C 1075.42 1600.98 1058.44 1604.61 1049.74 1601.65 C 1033.66 1596.89 1026.8 1578.15 1016.37 1566.72 L 1014.54 1567.11 C 1009.09 1561.17 1001.2 1546.54 995.845 1542.87 C 992.804 1543.33 993.847 1543.11 990.997 1544.66 L 986.228 1543.64 C 976.952 1552.5 975.441 1551.84 975.454 1565.02 C 975.458 1569.24 976.151 1570.18 973.882 1572.48 C 972.575 1586.09 977.401 1600.56 957.573 1603.12 C 924.285 1607.4 934.787 1572.26 932.154 1550.8 C 932.443 1542.89 931.817 1529.89 931.667 1521.58 C 931.377 1509.65 927.251 1445.26 933.595 1438.59 C 938.301 1433.65 947.076 1431.2 953.739 1431.47 C 958.383 1431.66 962.745 1433.44 965.872 1436.93 C 968.626 1440.01 970.145 1444.23 970.772 1448.26 C 972.99 1462.53 971.521 1490.76 971.04 1506.2 z"/>
<path transform="translate(0,0)" fill="rgb(184,81,14)" d="M 974.08 1554.2 C 978.852 1547.9 986.45 1540.05 991.93 1534.06 C 998.072 1541.6 1012.05 1558.51 1016.37 1566.72 L 1014.54 1567.11 C 1009.09 1561.17 1001.2 1546.54 995.845 1542.87 C 992.804 1543.33 993.847 1543.11 990.997 1544.66 L 986.228 1543.64 C 976.952 1552.5 975.441 1551.84 975.454 1565.02 C 975.458 1569.24 976.151 1570.18 973.882 1572.48 C 973.292 1566.44 973.802 1560.29 974.08 1554.2 z"/>
<path transform="translate(0,0)" fill="rgb(253,254,254)" d="M 351.432 1625.41 C 355.539 1598.04 360.048 1570.73 364.958 1543.49 C 367.362 1529.65 369.433 1514.73 373.29 1501.28 C 377.128 1488.64 402.881 1483.34 410.584 1494.47 C 412.252 1496.88 411.602 1505.09 411.008 1508.43 C 402.812 1554.56 392.734 1600.54 383.456 1646.5 C 382.284 1652.3 380.988 1657.8 379.238 1663.44 L 379.986 1664.63 C 378.426 1670.17 370.738 1670.31 365.653 1674.1 L 366.16 1675.73 C 364.435 1676.9 360.391 1680.04 358.833 1680.74 C 348.286 1685.51 327.88 1666.49 324.667 1658.51 L 325.962 1657.16 C 308.912 1625.6 286.01 1595.68 267.889 1564.55 C 261.818 1554.13 254.111 1544.33 249.434 1533.13 C 243.511 1517.33 273.042 1510.85 282.651 1515.56 C 289.15 1518.75 297.089 1531.71 300.438 1538.01 C 315.914 1567.15 336.621 1596.24 351.432 1625.41 z"/>
<path transform="translate(0,0)" fill="rgb(184,81,14)" d="M 379.238 1663.44 L 379.986 1664.63 C 378.426 1670.17 370.738 1670.31 365.653 1674.1 L 366.16 1675.73 C 364.435 1676.9 360.391 1680.04 358.833 1680.74 C 348.286 1685.51 327.88 1666.49 324.667 1658.51 L 325.962 1657.16 C 332.2 1665.75 336.256 1672.38 347.818 1674.56 C 356.84 1676.26 368.804 1671.81 375.906 1666.28 C 377.051 1665.37 378.162 1664.42 379.238 1663.44 z"/>
<path transform="translate(0,0)" fill="rgb(253,254,254)" d="M 450.384 1479.19 C 456.88 1478.74 469.263 1478.33 471.848 1486.88 C 475.058 1498.32 476.491 1510.47 478.169 1522.27 C 483.358 1558.94 489.749 1595.52 494.166 1632.28 C 495.636 1644.52 488.432 1646.5 478.678 1649.62 C 470.735 1650.19 459.002 1650.93 455.939 1640.84 C 452.917 1630.89 451.582 1619.26 449.956 1608.91 C 446.838 1589.14 443.952 1569.33 441.3 1549.49 C 438.765 1531.44 435.717 1513.28 434.151 1495.14 C 433.326 1485.59 442.998 1481.52 450.384 1479.19 z"/>
<path transform="translate(0,0)" fill="rgb(253,254,254)" d="M 477.503 1422.28 C 496.857 1421.74 493.437 1433.51 488.353 1448.19 C 483.449 1463.64 462.609 1464.94 450.201 1459.53 C 422.973 1447.67 430.547 1465.72 419.116 1469.86 C 406.038 1470.22 397.954 1468.01 403.126 1452.13 C 405.842 1443.75 411.837 1436.82 419.745 1432.93 C 431.462 1427.21 451.932 1434.78 463.555 1438.89 C 467.918 1431.87 470.386 1426.33 477.503 1422.28 z"/>
<path transform="translate(0,0)" fill="rgb(253,254,254)" d="M 1368.1 1393.09 C 1413.74 1393.66 1385.24 1420.51 1362.9 1430.99 C 1356.17 1432.92 1344.48 1434.44 1339.86 1428.08 C 1337.21 1416.31 1358.28 1397.25 1368.1 1393.09 z"/>
<path transform="translate(0,0)" fill="rgb(176,109,55)" d="M 932.154 1550.8 C 931.819 1554.26 931.739 1558.68 931.569 1562.23 L 930.643 1563.59 L 931.354 1563.67 L 931.17 1564.46 C 930.223 1561.45 930.021 1549.83 929.855 1545.96 L 929.278 1545.96 C 929.241 1549.84 929.422 1561.62 928.572 1564.64 C 928.084 1558.6 927.972 1519.76 930.342 1516.48 L 931.667 1521.58 C 931.817 1529.89 932.443 1542.89 932.154 1550.8 z"/>
<path transform="translate(0,0)" fill="url(#Gradient15)" d="M 0 0 L 224.371 0 L 1713.08 0 L 2048 0 L 2048 228 C 2043.12 261.22 2045.19 291.559 2044.84 324.615 C 2044.75 333.239 2046.81 358.912 2040.36 360.196 C 2026.24 363.003 2031.27 375.323 2020.7 374.266 C 2018.74 371.961 2019.52 373.266 2019.14 369.782 C 2015.51 369.905 2014.79 374.65 2013.63 377.836 C 2012.08 375.235 2013.16 375.36 2010.65 373.166 L 2008.74 372.877 C 2002.48 379.272 2010.14 381.221 2000.39 381.471 C 1996.59 386.761 1999.39 395.78 1994.07 398.474 C 1989.34 400.868 1988.01 406.189 1985.71 411.218 C 1970.77 443.862 1964.48 462.258 1925 463.766 C 1917.07 464.068 1914.37 468.084 1904.01 468.346 L 1903.19 469.571 C 1900.03 474.205 1899.67 471.393 1894.24 474.458 L 1892.93 473.866 L 1892.54 476.919 L 1891.23 475.986 L 1890.54 477.917 L 1888.5 475.832 C 1887.59 477.639 1887.86 476.621 1887.86 478.931 C 1886.78 477.837 1887.24 478.482 1886.56 476.953 C 1864.76 494.714 1872.38 498.363 1840.13 502.8 L 1838.47 504.037 L 1837.46 503.588 C 1826.87 514.95 1816.41 526.141 1804.26 535.952 C 1804.2 536.003 1793.86 536.849 1792.66 537.73 C 1779.91 547.054 1773.67 548.555 1758.14 550.357 C 1756.76 550.518 1754.71 554.303 1753.74 555.753 L 1752.25 554.253 L 1750.34 555.841 L 1747.02 554.135 C 1745.52 554.85 1741.08 558.799 1739.65 561.414 C 1729.34 580.328 1705.77 582.26 1687.75 585.407 C 1682.14 586.387 1664.37 561.888 1658.08 561.012 C 1656.9 560.567 1653.95 559.733 1652.64 559.372 C 1649.1 554.725 1645.02 548.654 1640.52 545.203 L 1637.38 547.866 C 1634.73 544.92 1633.52 541.869 1631.76 538.319 L 1630.4 538.497 L 1627.61 543.811 C 1626.68 543.489 1625.19 541.128 1624.41 540.11 C 1623.6 543.214 1623.67 543.632 1625.03 546.444 L 1623.41 547.08 C 1621.03 545.143 1622.09 546.126 1620.79 542.72 L 1619.27 543.311 C 1625.02 553.236 1650.79 629.446 1648.23 638.537 C 1638.84 598.835 1625.55 560.156 1608.56 523.063 C 1542.24 376.925 1406.08 255.479 1256.32 200.013 C 1088.95 137.545 903.697 143.562 740.731 216.758 C 585.277 286.413 464.676 416.077 406.449 576.162 C 397.453 607.62 390.653 628.923 384.527 661.73 C 365.096 765.859 374.987 873.34 413.094 972.175 C 424.64 1001.68 435.096 1019.61 448.497 1047.33 C 438.597 1048.94 399.944 1041.4 388.906 1039.18 C 286.038 1019.28 185.233 989.908 87.7813 951.429 C 62.748 941.56 40.1838 931.099 16.9292 917.549 C 14.8868 916.359 11.99 915.427 9.60199 915.393 L 8.65763 918.407 L 6.51685 919.002 C 5.349 911.854 5.84415 912.888 0 909.139 L 0 317.104 L 0 0 z M 320.27 27.2995 L 320.377 26.8433 C 318.772 25.405 309.296 28.1901 305.185 27.9634 C 301.187 27.7429 298.82 27.5462 294.808 26.9872 C 293.41 29.1755 293.364 29.5114 292.484 31.9912 L 293.602 33.4949 C 297.316 34.0185 300.713 32.6797 303.745 30.673 C 307.989 27.8643 316.75 29.8888 320.27 27.2995 z"/>
<path transform="translate(0,0)" fill="rgb(251,246,223)" fill-opacity="0.988235" d="M 294.808 26.9872 C 298.82 27.5462 301.187 27.7429 305.185 27.9634 C 309.296 28.1901 318.772 25.405 320.377 26.8433 L 320.27 27.2995 C 316.75 29.8888 307.989 27.8643 303.745 30.673 C 300.713 32.6797 297.316 34.0185 293.602 33.4949 L 292.484 31.9912 C 293.364 29.5114 293.41 29.1755 294.808 26.9872 z"/>
<path transform="translate(0,0)" fill="url(#Gradient14)" d="M 0 317.104 L 1.23323 314.902 L 2.34042 314.868 C 5.61872 328.862 0.164034 379.632 5.20956 387.816 L 7.24897 389.069 C 14.2382 384.704 11.8019 365.317 14.6768 357.51 C 16.3418 372.317 11.481 388.233 10.9739 402.044 C 10.6844 409.927 8.86494 442.34 10.4402 448.108 L 11.1465 447.807 C 11.2022 436.596 9.07492 414.203 17.354 406.117 C 22.5578 401.035 27.3097 406.131 30.9291 409.588 C 46.0182 424.001 54.1561 449.004 59.159 468.843 C 60.1794 472.89 59.7669 485.791 60.9899 488.336 C 66.2981 499.379 78.7017 519.159 93.234 515.608 C 109.326 511.677 122.469 509.501 136.571 520.101 C 149.685 530.338 163.78 534.382 179.146 540.575 C 182.38 541.879 193.485 544.588 195.629 546.06 C 205.712 552.983 216.039 565.532 228.854 567.879 C 229.528 568.002 237.573 569.801 237.99 569.938 C 240.954 571.761 243.616 577.597 246.689 577.875 C 258.394 578.937 276.154 582.236 287.008 586.753 C 300.82 592.502 303.55 599.004 320.284 601.967 C 337.623 605.037 345.892 605.649 360.228 592.166 C 368.37 584.472 376.622 575.67 384.756 567.816 C 388.757 563.952 393.91 556.631 397.944 552.959 C 403.434 547.961 408.806 548.413 413.825 541.326 C 420.073 550.819 405.036 564.696 405.904 575.499 L 406.449 576.162 C 397.453 607.62 390.653 628.923 384.527 661.73 C 365.096 765.859 374.987 873.34 413.094 972.175 C 424.64 1001.68 435.096 1019.61 448.497 1047.33 C 438.597 1048.94 399.944 1041.4 388.906 1039.18 C 286.038 1019.28 185.233 989.908 87.7813 951.429 C 62.748 941.56 40.1838 931.099 16.9292 917.549 C 14.8868 916.359 11.99 915.427 9.60199 915.393 L 8.65763 918.407 L 6.51685 919.002 C 5.349 911.854 5.84415 912.888 0 909.139 L 0 317.104 z"/>
<path transform="translate(0,0)" fill="rgb(251,246,223)" d="M 224.371 0 L 1713.08 0 C 1706.17 4.1504 1704.14 22.2989 1701.18 22.5658 C 1677.76 24.6708 1651.97 45.907 1631.5 47.5382 L 1629.11 45.2533 C 1623.46 53.2854 1618.46 45.2586 1611.65 46.846 C 1605.14 48.3602 1597.24 52.905 1590.64 54.7653 C 1584.96 56.3586 1579.43 53.7804 1572.49 58.6798 C 1577.97 59.6857 1583.17 58.0533 1588.29 59.3339 C 1571.8 60.1453 1553.64 59.6823 1536.95 59.7274 L 1432.72 59.7712 L 1060.41 59.4087 L 662.789 59.701 L 504.749 59.6301 C 485.598 59.5091 466.676 60.2056 447.517 59.5666 L 447.921 59.1152 C 449.974 59.1541 454.468 59.5005 456.106 58.8893 C 441.412 49.5431 409.132 49.889 391.715 50.7389 C 387.709 50.097 383.153 42.1574 380.218 41.0906 C 372.775 38.3855 357.275 35.4801 350.917 31.5919 C 341.112 25.5953 326.033 32.6498 320.607 29.289 L 320.27 27.2995 L 320.377 26.8433 C 318.772 25.405 309.296 28.1901 305.185 27.9634 C 301.187 27.7429 298.82 27.5462 294.808 26.9872 C 290.307 27.9757 243.831 25.0373 236.657 24.7947 C 230.378 18.4334 224.705 9.15464 224.371 0 z"/>
<path transform="translate(0,0)" fill="rgb(253,254,254)" d="M 1468.27 10.5055 C 1475.3 8.83783 1509.68 10.6652 1517.51 11.5102 C 1504.75 12.2581 1482.18 12.3647 1469.5 11.8762 L 1468.27 10.5055 z"/>
<path transform="translate(0,0)" fill="rgb(251,246,223)" d="M 685.085 290.351 C 819.752 202.215 996.304 176.706 1152.69 209.19 C 1219.85 223.796 1284.19 249.212 1343.19 284.445 C 1347.34 286.905 1368.49 299.654 1370.14 302.215 C 1381.58 308.7 1398.89 322.446 1409.3 330.781 C 1475.96 383.544 1530.01 450.503 1567.52 526.786 C 1575.21 542.324 1585.78 565.23 1590.6 581.981 C 1600.83 605.062 1607.24 633.774 1612.38 658.458 C 1667.41 922.899 1516.32 1174.45 1273.7 1281.69 C 1120.43 1347.95 947.351 1351.8 791.28 1292.42 C 648.184 1237.01 522.832 1127.13 460.557 985.617 C 416.92 888.36 403.44 780.255 421.855 675.259 C 426.851 645.556 435.505 608.296 447.34 580.459 C 447.461 579.698 447.593 578.716 447.847 578.011 C 484.542 476.167 554.52 385.29 640.894 320.477 C 655.009 309.885 669.957 298.342 685.085 290.351 z"/>
<path transform="translate(0,0)" fill="url(#Gradient13)" d="M 721.564 396.04 C 731.895 397.896 742.522 392.337 752.368 392.326 L 752.854 395.461 C 755.835 397.385 756.959 398.161 759.615 400.485 C 763.773 399.549 770.454 402.774 772.522 406.629 C 771.423 411.81 769.039 413.849 769.521 417.883 C 765.058 426.843 757.792 434.918 752.552 443.564 C 733.252 475.409 719.403 507.759 719.384 545.754 C 753.867 530.964 764.759 503.929 784.482 474.85 C 794.584 459.958 805.663 486.503 808.461 494.357 C 822.841 534.724 819.73 580.788 801.085 619.277 C 781.377 660.358 760.236 679.844 722.265 702.109 C 726.841 716.435 727.04 722.268 727.88 737.628 C 742.252 748.558 757.214 758.838 768.577 772.948 C 811.94 724.931 858.593 702.463 919.551 685.211 C 917.116 679.365 914.797 673.409 911.856 667.814 C 898.927 665.204 884.595 660.941 877.361 649.177 C 866.277 631.154 872.07 609.095 890.06 598.872 C 899.877 593.272 911.569 591.967 922.38 595.267 C 942.295 601.482 952.824 621.056 946.179 640.92 C 944.616 645.591 942.26 650.211 940.011 654.569 C 943.666 663.603 946.303 670.179 950.909 678.82 C 992.863 672.627 1044.32 669.839 1086.04 679.189 L 1096.23 655.683 C 1084.32 634.105 1085.03 610.74 1109.22 598.335 C 1118.79 593.422 1129.93 592.567 1140.14 595.962 C 1160.65 602.709 1169.53 624.242 1162.21 644.356 C 1157.05 658.533 1140 665.205 1126.05 667.486 C 1122.48 673.752 1120.22 678.26 1117.2 684.825 C 1175.02 702.709 1227.63 724.541 1267.7 772.731 C 1283.48 756.969 1292.65 750.338 1308.97 736.546 C 1310.07 724.844 1310.75 713.07 1314.4 701.862 C 1303.24 695.108 1292.52 688.755 1282.32 680.501 C 1254.42 657.927 1232.57 622.423 1224.1 587.507 C 1215.96 553.913 1218.19 508.63 1236.45 478.39 C 1238.66 474.735 1240.02 472.969 1243.48 470.634 C 1245.82 470.245 1246.92 469.665 1249.13 471.444 C 1259.5 479.76 1265.82 496.963 1273.41 507.888 C 1286.36 526.533 1297.27 536.09 1316.81 546.369 C 1316.9 509.133 1305.13 480.568 1286.53 448.616 C 1281.93 440.7 1274.22 430.424 1270.32 423.127 C 1270.88 417.261 1265.29 415.051 1263.57 408.018 C 1265.47 405.849 1267.53 403.727 1269.51 401.623 L 1270.22 404.157 L 1271.92 404.164 C 1274.55 402.23 1275.32 398.396 1276.42 395.119 C 1286.08 392.66 1295.92 395.571 1305.35 393.936 C 1318.03 395.456 1333.38 400.326 1345.07 405.532 C 1364.12 411.634 1401.76 434.638 1415.17 449.702 C 1421.87 455.266 1427.87 462.448 1433.35 469.181 C 1477.1 522.866 1493.75 600.459 1460.95 663.757 C 1453.77 677.614 1445.28 686.092 1434.36 696.828 C 1435.92 731.964 1425.06 767.796 1401.51 794.519 C 1392.58 804.662 1384.35 809.961 1375.53 818.063 C 1345.3 845.835 1324.56 849.7 1287 860.36 C 1284.46 866.613 1281.03 875.752 1277.96 881.456 C 1322.78 883.23 1359.73 893.663 1390.99 927.596 C 1401.67 939.179 1428.44 977.645 1414.96 992.578 C 1406.04 996.832 1398.72 986.148 1393.13 979.741 C 1383.86 969.126 1376.01 957.224 1365.48 947.667 C 1340.47 921.435 1297.97 918.588 1262.72 917.877 C 1260.08 920.699 1257.2 923.662 1254.7 926.588 C 1265.42 932.054 1276.62 936.285 1286.98 941.927 C 1317.69 958.658 1342.65 984.976 1352.93 1018.85 C 1356.65 1031.09 1358.36 1040.02 1360.51 1052.62 C 1353.44 1055.09 1344.81 1060.14 1338.07 1063.82 C 1318.27 1073.59 1290 1080.25 1267.99 1084.92 C 1259.86 1085.44 1248.09 1086.12 1240.09 1087.49 C 1230.32 1089.88 1202.43 1088.4 1191.6 1087.92 C 1139.19 1085.58 1086.8 1071.47 1034.19 1079.57 C 1011.88 1083 990.13 1090.12 968.752 1097.11 C 964.909 1094.99 960.754 1092.37 957.004 1090.07 C 918.417 1066.34 876.036 1049.4 831.881 1039.41 C 823.185 1037.44 814.198 1035.85 805.532 1033.4 C 794.497 1031.4 783.413 1031.9 773.197 1029.9 C 772.467 1030.28 719.61 1030.93 711.782 1031.33 C 701.862 1032.55 691.09 1033.33 681.083 1034.13 C 689.846 978.172 732.293 947.164 781.554 927.699 C 779.1 923.55 777.176 921.623 774.024 918.101 C 713.399 920.297 681.248 925.605 645.702 976.452 C 640.652 983.676 628.858 998.222 619.28 992.003 C 610.705 977.152 633.676 942.242 643.502 930.965 C 674.398 895.505 711.027 884.682 756.446 881.473 L 749.885 861.455 C 730.589 852.725 705.986 850.131 687.372 837.662 C 631.765 800.413 602.771 764.845 601.742 696.27 C 516.269 608.046 568.994 467.621 667.395 416.312 C 683.258 408.041 703.894 398.732 721.564 396.04 z"/>
<path transform="translate(0,0)" fill="rgb(251,246,223)" d="M 852.436 994.615 C 908.626 1028.98 955.007 1044.36 1021.96 1043.22 C 1086.4 1042.13 1130.01 1029.03 1184.22 995.167 C 1229.69 1025.43 1235.85 1033.63 1240.09 1087.49 C 1230.32 1089.88 1202.43 1088.4 1191.6 1087.92 C 1139.19 1085.58 1086.8 1071.47 1034.19 1079.57 C 1011.88 1083 990.13 1090.12 968.752 1097.11 C 964.909 1094.99 960.754 1092.37 957.004 1090.07 C 918.417 1066.34 876.036 1049.4 831.881 1039.41 C 823.185 1037.44 814.198 1035.85 805.532 1033.4 C 819.996 1015.43 832.279 1006.39 852.436 994.615 z"/>
<path transform="translate(0,0)" fill="rgb(244,162,84)" d="M 1341.76 505.746 L 1342.99 504.119 C 1341.62 497.559 1335.19 489.096 1339.72 484.543 C 1371.86 452.209 1391.61 507.293 1408.47 519.207 C 1429.47 554.643 1442.54 600.627 1432.3 641.531 C 1431.86 643.349 1431.28 645.133 1430.59 646.87 L 1429.74 645.176 L 1428.13 645.362 C 1419.15 655.299 1405.55 658.645 1392.62 661.517 C 1366.85 667.24 1328.71 650.063 1322.64 622.811 C 1317.15 598.186 1339.28 574.018 1344.05 550.709 C 1347.06 536.048 1343.96 520.521 1341.76 505.746 z"/>
<path transform="translate(0,0)" fill="rgb(251,246,223)" d="M 1393.7 531.686 C 1394.42 531.644 1395.14 531.617 1395.85 531.605 C 1408.81 531.438 1416.32 544.608 1404.14 554.348 C 1403.05 554.622 1402.13 554.897 1400.98 554.953 C 1398.2 555.073 1395.48 554.132 1393.36 552.32 C 1386.91 546.804 1388.52 537.526 1393.7 531.686 z"/>
<path transform="translate(0,0)" fill="rgb(251,246,223)" d="M 1227.37 959.657 C 1303.61 986.625 1309.12 988.581 1338.07 1063.82 C 1318.27 1073.59 1290 1080.25 1267.99 1084.92 C 1271.82 1031.95 1260.24 1001.24 1214.44 972.684 C 1218.28 968.489 1223.29 963.733 1227.37 959.657 z"/>
<path transform="translate(0,0)" fill="rgb(251,246,223)" d="M 1303.4 421.235 C 1312.43 423.504 1320.9 426.045 1329.81 428.718 C 1345.74 435.606 1357.64 440.994 1372.12 451.219 C 1375.96 453.934 1389.87 465.969 1392.17 467.214 C 1426.79 502.556 1448.42 541.378 1448.48 592.346 C 1448.5 615.111 1441.84 643.743 1426.09 660.924 L 1430.59 646.87 C 1431.28 645.133 1431.86 643.349 1432.3 641.531 C 1442.54 600.627 1429.47 554.643 1408.47 519.207 C 1391.61 507.293 1371.86 452.209 1339.72 484.543 C 1335.19 489.096 1341.62 497.559 1342.99 504.119 L 1341.76 505.746 C 1334.42 476.905 1327.63 465.146 1315.15 439.236 C 1311.15 433.558 1307.18 427.118 1303.4 421.235 z"/>
<path transform="translate(0,0)" fill="rgb(237,194,109)" d="M 1315.15 439.236 C 1346.91 454.018 1393.15 487.83 1408.47 519.207 C 1391.61 507.293 1371.86 452.209 1339.72 484.543 C 1335.19 489.096 1341.62 497.559 1342.99 504.119 L 1341.76 505.746 C 1334.42 476.905 1327.63 465.146 1315.15 439.236 z"/>
<path transform="translate(0,0)" fill="rgb(251,246,223)" d="M 809.724 959.634 L 821.733 972.291 C 798.363 986.704 780.207 1002.61 773.197 1029.9 C 772.467 1030.28 719.61 1030.93 711.782 1031.33 C 712.458 1029.78 713.159 1028.24 713.886 1026.72 C 725.597 1002.05 735.07 990.132 760.668 978.823 C 777.04 971.589 792.842 965.682 809.724 959.634 z"/>
<path transform="translate(0,0)" fill="rgb(244,162,84)" d="M 1345.07 405.532 C 1364.12 411.634 1401.76 434.638 1415.17 449.702 C 1405.68 446.703 1400.85 435.131 1391.37 436.747 C 1388.17 437.293 1383.33 447.629 1380.77 447.729 L 1380.4 445.729 C 1377.5 445.514 1374.73 447.003 1373.67 449.817 C 1377.49 452.835 1392.76 463.49 1392.17 467.214 C 1389.87 465.969 1375.96 453.934 1372.12 451.219 C 1357.64 440.994 1345.74 435.606 1329.81 428.718 C 1340.99 428.545 1350.25 439.418 1358.15 436.181 C 1359 433.679 1361.94 427.509 1363.33 424.621 C 1368.91 413.09 1348.57 412.97 1345.07 405.532 z"/>
<path transform="translate(0,0)" fill="url(#Gradient12)" d="M 777.284 812.284 C 781.229 801.747 792.181 786.929 800.418 779.126 C 854.986 727.426 937.126 701.933 1011.08 700.779 C 1075.94 699.768 1133.19 712.655 1189.37 744.84 C 1201.25 751.65 1215.63 760.802 1225.2 770.185 C 1237.83 780.26 1252.35 795.939 1258.64 810.982 C 1274.33 843.543 1231.21 916.638 1206.66 938.67 C 1181.52 964.328 1158.41 980.828 1125.2 994.449 C 1069.55 1017.43 1008.07 1022.26 949.516 1008.26 C 882.689 991.758 831.765 951.242 796.478 893.063 C 783.403 876.879 770.79 833.119 777.284 812.284 z"/>
<path transform="translate(0,0)" fill="url(#Gradient11)" d="M 796.478 893.063 C 800.594 892.448 818.299 902.534 823.681 904.615 C 827.45 906.071 833.191 907.612 836.627 908.92 C 838.396 910.01 839.961 910.977 841.79 911.963 L 842.073 912.925 C 843.162 916.513 843.144 916.847 845.4 919.676 C 855.441 921.45 908.95 919.526 916.623 915.92 C 916.785 913.218 916.895 914.26 915.789 911.66 C 924.854 904.664 930.56 919.432 935.433 918.202 C 940.98 916.802 983.369 917.464 986.546 919.425 L 986.689 921.235 C 1027.41 919.337 1067.81 920.301 1108.24 927.203 C 1114.01 928.188 1122.04 935.118 1127.07 936.352 C 1128.09 934.994 1129.35 933.517 1130.43 932.181 C 1133.32 941.341 1133.83 940.901 1134.68 950.455 C 1155.64 945.667 1170.66 935.577 1193.7 930.608 C 1199.83 933.168 1201.63 934.293 1206.66 938.67 C 1181.52 964.328 1158.41 980.828 1125.2 994.449 C 1069.55 1017.43 1008.07 1022.26 949.516 1008.26 C 882.689 991.758 831.765 951.242 796.478 893.063 z"/>
<path transform="translate(0,0)" fill="url(#Gradient10)" d="M 1193.7 930.608 C 1199.83 933.168 1201.63 934.293 1206.66 938.67 C 1181.52 964.328 1158.41 980.828 1125.2 994.449 C 1126.2 990.328 1128.17 986.048 1129.17 981.692 C 1132.17 968.55 1131.9 953.466 1131.33 940.039 C 1127.05 939.518 1117.47 947.905 1113.42 950.979 C 1118.97 945.595 1122.16 942.288 1127.07 936.352 C 1128.09 934.994 1129.35 933.517 1130.43 932.181 C 1133.32 941.341 1133.83 940.901 1134.68 950.455 C 1155.64 945.667 1170.66 935.577 1193.7 930.608 z"/>
<path transform="translate(0,0)" fill="url(#Gradient9)" d="M 777.284 812.284 C 781.229 801.747 792.181 786.929 800.418 779.126 C 854.986 727.426 937.126 701.933 1011.08 700.779 C 1075.94 699.768 1133.19 712.655 1189.37 744.84 C 1201.25 751.65 1215.63 760.802 1225.2 770.185 C 1229.57 778.361 1233.97 776.906 1233.36 785.826 L 1232.12 787.504 C 1225.83 786.411 1220.37 776.061 1214.12 777.378 C 1196.57 766.11 1176.73 754.96 1157.39 747.291 C 1086.5 719.178 999.36 717.938 925.504 734.163 C 875.55 745.138 815.77 776.377 780.043 813.21 L 778.208 813.652 L 777.284 812.284 z"/>
<path transform="translate(0,0)" fill="rgb(251,246,223)" d="M 1107.57 866.391 C 1118.79 869.919 1127.7 873.569 1133.4 884.891 C 1140.47 898.925 1137.04 918.423 1130.43 932.181 C 1129.35 933.517 1128.09 934.994 1127.07 936.352 C 1122.04 935.118 1114.01 928.188 1108.24 927.203 C 1067.81 920.301 1027.41 919.337 986.689 921.235 L 986.546 919.425 C 983.369 917.464 940.98 916.802 935.433 918.202 C 930.56 919.432 924.854 904.664 915.789 911.66 C 916.895 914.26 916.785 913.218 916.623 915.92 C 908.95 919.526 855.441 921.45 845.4 919.676 C 843.144 916.847 843.162 916.513 842.073 912.925 L 841.79 911.963 C 839.961 910.977 838.396 910.01 836.627 908.92 C 906.563 908.466 978.127 906.805 1046.46 889.48 C 1067.4 884.17 1086.48 871.626 1107.57 866.391 z"/>
<path transform="translate(0,0)" fill="rgb(237,194,109)" d="M 1225.2 770.185 C 1237.83 780.26 1252.35 795.939 1258.64 810.982 C 1257.91 811.064 1257.17 811.146 1256.44 811.228 C 1244.99 800.612 1225.73 785.966 1214.12 777.378 C 1220.37 776.061 1225.83 786.411 1232.12 787.504 L 1233.36 785.826 C 1233.97 776.906 1229.57 778.361 1225.2 770.185 z"/>
<path transform="translate(0,0)" fill="rgb(184,81,14)" d="M 950.641 823.432 C 944.204 816.348 932.689 804.631 945.477 796.927 C 946.656 796.216 947.126 796.005 948.478 795.713 C 958.531 800.266 967.8 806.757 976.588 812.235 C 1000.34 827.036 1045.41 826.632 1067.1 807.729 C 1092.8 785.334 1109.26 802.286 1083.89 825.309 C 1088.85 834.51 1067.6 846.542 1060.73 849.811 C 1030.65 864.109 991.472 861.821 963.987 842.672 C 959.199 839.335 952.228 835.326 949.682 829.983 C 950.696 828.074 950.681 828.276 952.395 827.013 L 949.225 823.99 L 950.641 823.432 z"/>
<path transform="translate(0,0)" fill="url(#Gradient8)" d="M 1083.89 825.309 C 1088.85 834.51 1067.6 846.542 1060.73 849.811 C 1030.65 864.109 991.472 861.821 963.987 842.672 C 959.199 839.335 952.228 835.326 949.682 829.983 C 950.696 828.074 950.681 828.276 952.395 827.013 L 949.225 823.99 L 950.641 823.432 C 967.293 836.077 981.183 843.95 1002.42 846.398 C 1032.87 849.908 1059.36 844.354 1083.89 825.309 z"/>
<path transform="translate(0,0)" fill="rgb(238,122,57)" d="M 1124.84 759.073 C 1150.82 756.575 1172.15 779.835 1146.26 796.723 C 1125.75 802.583 1097.66 774.905 1124.84 759.073 z"/>
<path transform="translate(0,0)" fill="rgb(251,246,223)" d="M 896.632 757.053 C 900.763 756.776 910.514 758.15 911.72 762.288 C 915.483 775.194 898.093 783.481 889.868 786.464 C 861.723 790.852 875.253 765.103 896.632 757.053 z"/>
<path transform="translate(0,0)" fill="rgb(251,246,223)" d="M 851.448 787.823 C 865.682 794.533 860.488 803.472 848.561 808.342 C 843.503 806.827 840.769 804.883 840.284 799.475 C 842.777 792.959 845.454 791.747 851.448 787.823 z"/>
<path transform="translate(0,0)" fill="rgb(237,194,109)" d="M 1196.25 883.824 C 1199.77 885.011 1201.63 886.513 1202.72 890.064 C 1201.98 895.621 1199.21 897.576 1195.17 901.363 L 1186.23 893.865 C 1190.19 888.955 1191.56 887.789 1196.25 883.824 z"/>
<path transform="translate(0,0)" fill="rgb(244,162,84)" d="M 609.536 660.511 C 599.715 647.363 593.684 631.999 590.757 615.819 C 574.738 527.271 645.483 437.861 732.987 422.328 C 728.774 428.342 723.707 435.216 720.046 441.452 C 710.383 462.735 702.951 479.084 696.338 501.804 C 693.192 517.51 689.585 532.125 692.08 548.243 C 696.443 576.434 725.315 602.257 709.855 631.745 C 690.626 668.424 639.004 672.17 609.289 646.558 C 609.083 646.382 606.942 646.679 606.471 646.854 L 609.536 660.511 z"/>
<path transform="translate(0,0)" fill="url(#Gradient7)" d="M 609.536 660.511 C 599.715 647.363 593.684 631.999 590.757 615.819 C 574.738 527.271 645.483 437.861 732.987 422.328 C 728.774 428.342 723.707 435.216 720.046 441.452 C 691.287 453.914 651.787 481.545 636.508 508.974 C 608.331 548.499 592.492 598.737 606.471 646.854 L 609.536 660.511 z"/>
<path transform="translate(0,0)" fill="rgb(237,194,109)" d="M 720.046 441.452 C 710.383 462.735 702.951 479.084 696.338 501.804 C 693.827 497.557 701.899 482.687 702.109 476.08 C 698.356 471.128 691.461 469.847 685.227 462.189 C 671.1 474.148 657.052 485.853 645.269 500.24 C 642.76 503.304 639.87 507.935 636.508 508.974 C 651.787 481.545 691.287 453.914 720.046 441.452 z"/>
<path transform="translate(0,0)" fill="rgb(251,246,223)" d="M 637.374 530.94 C 654.05 533.35 648.966 548.318 637.59 555.437 C 621.738 550.399 624.637 538.224 637.374 530.94 z"/>
<path transform="translate(0,0)" fill="rgb(237,194,109)" d="M 647.526 498.25 C 651.475 498.271 653.222 499.051 655.076 502.608 C 655.656 508.965 651.658 513.286 647.979 518.277 C 643.607 517.684 642.854 516.993 640.765 513.518 C 640.384 507.418 644.092 503.255 647.526 498.25 z"/>
<path transform="translate(0,0)" fill="url(#Gradient6)" d="M 786.464 523.725 C 788.779 526.035 788.365 534.746 788.471 538.054 C 790.086 588.454 767.637 637.338 725.084 665.405 C 720.278 668.575 716.011 672.065 710.53 674.1 L 710.511 673.372 C 713.316 671.586 716.076 669.731 718.788 667.808 C 721.89 666.203 736.666 655.993 737.823 653.574 L 735.898 652.508 L 733.089 653.564 C 731.996 651.275 735.484 644.313 736.184 641.444 C 743.207 612.667 739.331 597.677 727.1 573.246 C 758.279 556.846 764.81 551.015 786.464 523.725 z"/>
<path transform="translate(0,0)" fill="rgb(244,162,84)" d="M 630.52 711.511 C 634.908 712.012 636.142 712.353 640.424 713.611 C 654.749 716.319 662.489 716.472 677.147 716.228 C 685.413 714.647 697.644 710.022 698.648 723.074 C 699.847 738.66 695.585 750.322 686.415 762.79 L 683.638 766.978 C 681.507 768.633 668.361 783.125 665.681 786.014 C 641.677 759.985 635.853 747.595 630.52 711.511 z"/>
<path transform="translate(0,0)" fill="rgb(238,122,57)" d="M 630.52 711.511 C 634.908 712.012 636.142 712.353 640.424 713.611 C 640.694 721.685 668.644 753.251 675.407 759.613 C 678.09 762.135 680.835 764.591 683.638 766.978 C 681.507 768.633 668.361 783.125 665.681 786.014 C 641.677 759.985 635.853 747.595 630.52 711.511 z"/>
<path transform="translate(0,0)" fill="rgb(251,246,223)" d="M 677.147 716.228 C 685.413 714.647 697.644 710.022 698.648 723.074 C 699.847 738.66 695.585 750.322 686.415 762.79 C 684.059 758.016 687.155 745.109 686.141 739.237 C 684.656 730.642 679.68 724.483 677.147 716.228 z"/>
<path transform="translate(0,0)" fill="url(#Gradient5)" d="M 1341.32 712.257 C 1347.59 713.739 1353.89 715.115 1360.21 716.385 C 1378.35 717.767 1387.4 716.028 1405.5 712.466 C 1399.97 743.568 1394.2 762.919 1371.19 785.3 C 1363.78 779.076 1352.45 768.282 1347.79 759.803 C 1346.28 757.44 1344.82 755.043 1343.41 752.616 C 1335.51 738.806 1337.54 726.525 1341.32 712.257 z"/>
<path transform="translate(0,0)" fill="rgb(251,246,223)" d="M 1341.32 712.257 C 1347.59 713.739 1353.89 715.115 1360.21 716.385 L 1361.5 717.618 C 1358.73 723.021 1354.34 726.477 1351.87 732.227 C 1349.26 738.299 1349.82 755.994 1347.79 759.803 C 1346.28 757.44 1344.82 755.043 1343.41 752.616 C 1335.51 738.806 1337.54 726.525 1341.32 712.257 z"/>
<path transform="translate(0,0)" fill="rgb(244,162,84)" d="M 1248.97 522.445 C 1270.44 550.771 1278.14 557.065 1310.62 572.435 C 1306.14 581.434 1298.33 596.029 1296.12 605.344 L 1294.33 607.489 C 1287.51 607.068 1267.77 591.365 1255.67 589.765 C 1248.82 565.837 1245.84 547.643 1248.97 522.445 z"/>
<path transform="translate(0,0)" fill="url(#Gradient4)" d="M 710.296 777.525 L 718.49 766.106 C 725.574 770.315 746.883 785.196 751.125 793.678 C 751.55 794.527 748.574 799.749 747.856 801.116 C 747.608 809.546 745.092 819.971 744.723 831.009 C 725.892 824.995 701.419 818.852 690.147 801.817 C 694.868 795.232 704.401 783.065 710.296 777.525 z"/>
<path transform="translate(0,0)" fill="rgb(237,194,109)" d="M 710.296 777.525 L 718.49 766.106 C 725.574 770.315 746.883 785.196 751.125 793.678 C 751.55 794.527 748.574 799.749 747.856 801.116 C 744.328 800.684 717.868 781.857 710.296 777.525 z"/>
<path transform="translate(0,0)" fill="rgb(244,162,84)" d="M 1285.04 791.694 C 1294.26 782.917 1307 773.7 1317.13 764.882 C 1319.62 769.284 1322.3 773.521 1324.97 777.817 C 1328.98 781.911 1331.21 785.642 1334.79 789.778 C 1339.74 794.902 1342.38 797.96 1346.72 803.607 C 1330.1 819.398 1313.58 825.856 1291.19 830.818 C 1290.93 826.875 1290.11 817.672 1290.27 814.139 C 1289.59 809.461 1288.87 806.095 1289.24 801.353 C 1288.17 798.192 1286.45 794.766 1285.04 791.694 z"/>
<path transform="translate(0,0)" fill="rgb(238,122,57)" d="M 1334.79 789.778 C 1339.74 794.902 1342.38 797.96 1346.72 803.607 C 1330.1 819.398 1313.58 825.856 1291.19 830.818 C 1290.93 826.875 1290.11 817.672 1290.27 814.139 L 1291.89 815.506 C 1297.55 813.898 1320.81 795.223 1334.79 789.778 z"/>
<path transform="translate(0,0)" fill="rgb(237,194,109)" d="M 1285.04 791.694 C 1294.26 782.917 1307 773.7 1317.13 764.882 C 1319.62 769.284 1322.3 773.521 1324.97 777.817 C 1313.02 782.434 1293.38 800.25 1289.24 801.353 C 1288.17 798.192 1286.45 794.766 1285.04 791.694 z"/>
<path transform="translate(0,0)" fill="rgb(238,122,57)" d="M 1255.67 589.765 C 1267.77 591.365 1287.51 607.068 1294.33 607.489 L 1296.12 605.344 C 1298.11 609.511 1296.99 611.015 1297.35 615.83 C 1298.14 626.443 1299.47 637.921 1301.91 648.235 C 1302.25 649.681 1308.93 658.437 1310.18 660.112 L 1309.48 661.476 L 1307.43 661.608 C 1281.73 645.209 1265.4 618.162 1255.67 589.765 z"/>
<path transform="translate(0,0)" fill="rgb(251,246,223)" d="M 1116.82 610.885 C 1131.59 611.479 1135.85 621.46 1122.41 630.945 C 1108.51 630.82 1104.74 619.53 1116.82 610.885 z"/>
<path transform="translate(0,0)" fill="rgb(251,246,223)" d="M 902.973 610.922 C 917.129 613.927 917.647 624.383 904.599 631.04 C 890.333 626.964 889.793 617.87 902.973 610.922 z"/>
<path transform="translate(0,0)" fill="url(#Gradient3)" d="M 1590.6 581.981 C 1600.83 605.062 1607.24 633.774 1612.38 658.458 C 1667.41 922.899 1516.32 1174.45 1273.7 1281.69 C 1120.43 1347.95 947.351 1351.8 791.28 1292.42 C 648.184 1237.01 522.832 1127.13 460.557 985.617 C 416.92 888.36 403.44 780.255 421.855 675.259 C 426.851 645.556 435.505 608.296 447.34 580.459 C 448.397 588.298 437.575 607.028 440.871 611.706 C 444.822 610.439 447.518 610.252 450.751 607.522 C 453.083 608.662 452.487 608.092 454.758 608.654 C 465.002 611.186 469.492 621.374 468.504 630.434 C 472.413 627.655 473.505 605.742 477.898 606.85 C 473.33 624.682 467.853 641.677 463.78 659.784 C 449.9 721.499 446.425 817.059 465.597 878.027 C 476.47 851.595 497.311 830.504 523.611 819.315 C 565.551 801.008 617.857 815.866 638.1 858.476 C 640.5 863.527 641.221 869.097 639.258 874.372 C 628.076 881.114 606.615 878.927 596.348 890.949 C 554.155 940.356 618.376 1015.71 661.073 1037.98 C 666.126 1037.39 676.873 1036.5 681.083 1034.13 C 691.09 1033.33 701.862 1032.55 711.782 1031.33 C 719.61 1030.93 772.467 1030.28 773.197 1029.9 C 783.413 1031.9 794.497 1031.4 805.532 1033.4 C 814.198 1035.85 823.185 1037.44 831.881 1039.41 C 876.036 1049.4 918.417 1066.34 957.004 1090.07 C 960.754 1092.37 964.909 1094.99 968.752 1097.11 C 990.13 1090.12 1011.88 1083 1034.19 1079.57 C 1086.8 1071.47 1139.19 1085.58 1191.6 1087.92 C 1202.43 1088.4 1230.32 1089.88 1240.09 1087.49 C 1248.09 1086.12 1259.86 1085.44 1267.99 1084.92 C 1290 1080.25 1318.27 1073.59 1338.07 1063.82 C 1344.81 1060.14 1353.44 1055.09 1360.51 1052.62 C 1364.78 1051.03 1373.18 1045.15 1377.14 1042.37 C 1404.07 1023.52 1430.02 995.914 1445.11 966.565 C 1454.17 948.931 1457.5 927.284 1450.78 908.236 C 1439.78 877.086 1415.74 883.121 1399.03 875.097 C 1397 871.29 1397.3 863.592 1398.97 859.722 C 1416.65 818.55 1465.46 802.497 1506.02 816.548 C 1540.75 828.578 1557.52 848.101 1572.9 879.226 C 1575.95 858.579 1580.72 839.35 1582.61 818.051 C 1590.05 734.423 1579.75 677.132 1556.49 598.683 L 1557.13 597.915 C 1561.84 601.626 1563.4 629.775 1570.6 633.271 C 1578.05 629.983 1576.4 613.987 1599.75 614.485 C 1599.31 610.165 1591.56 589.405 1589.7 583.51 L 1590.6 581.981 z"/>
<path transform="translate(0,0)" fill="rgb(158,212,225)" d="M 577.19 1099.14 C 603.721 1091.17 625.849 1079.64 655.165 1072.76 C 750.66 1050.35 837.466 1061.29 923.574 1107.81 C 959.651 1127.3 992.386 1149.06 1028.31 1167.1 C 1134.82 1220.6 1227.4 1228.38 1340.64 1194.66 C 1349.94 1191.84 1359.18 1188.81 1368.35 1185.59 C 1350.59 1199.76 1306.24 1228.13 1285.22 1234.68 C 1264.74 1250.19 1186.21 1277.59 1160.27 1280.82 C 1089.64 1289.61 1008.62 1254.27 949.92 1216.52 C 915.349 1194.28 880.742 1170.86 843.004 1153.94 C 771.044 1121.58 699.667 1120.03 625.833 1148.8 C 615.585 1139.74 606.167 1131.25 596.839 1121.23 C 589.321 1113.56 583.719 1107.71 577.19 1099.14 z"/>
<path transform="translate(0,0)" fill="rgb(253,254,254)" d="M 577.19 1099.14 C 603.721 1091.17 625.849 1079.64 655.165 1072.76 C 750.66 1050.35 837.466 1061.29 923.574 1107.81 C 959.651 1127.3 992.386 1149.06 1028.31 1167.1 C 1134.82 1220.6 1227.4 1228.38 1340.64 1194.66 C 1349.94 1191.84 1359.18 1188.81 1368.35 1185.59 C 1350.59 1199.76 1306.24 1228.13 1285.22 1234.68 C 1278.75 1233.06 1248.6 1238.67 1239.49 1239.4 C 1230.04 1240.15 1219.73 1241.01 1209.92 1241.37 C 1187.12 1242.03 1164.31 1240.71 1141.75 1237.43 C 1032.76 1221.95 966.398 1156.61 869.827 1114.33 C 786.171 1077.71 680.412 1087.31 596.839 1121.23 C 589.321 1113.56 583.719 1107.71 577.19 1099.14 z"/>
<path transform="translate(0,0)" fill="url(#Gradient2)" d="M 1440.17 855.723 C 1455.49 845.328 1469.33 841.667 1487.82 845.173 C 1526.21 852.45 1548.31 887.027 1551.24 924.165 C 1552.91 945.441 1547.68 959.961 1539.19 979.295 C 1525.57 1006.51 1502.84 1046.84 1483.47 1069.96 C 1447.82 1112.54 1392.29 1144.64 1340.02 1162.1 C 1242.36 1194.71 1144.04 1189.98 1051.62 1143.38 C 1036.73 1135.87 1020.68 1127.13 1006.31 1118.67 C 1041.69 1108.38 1075.79 1107.44 1112.14 1111.92 C 1116.59 1112.46 1127.39 1113.83 1131.35 1115.02 C 1154.65 1117.64 1179.55 1120.56 1202.93 1120.77 C 1299.7 1121.63 1400.87 1090.61 1458.97 1008.21 C 1474.07 986.786 1481.41 969.869 1486.26 944.73 C 1486.11 943.297 1486.75 931.774 1486.66 928.731 C 1485.82 901.259 1480.08 884.562 1460.67 865.556 C 1453.9 862.023 1447.33 858.4 1440.17 855.723 z"/>
<path transform="translate(0,0)" fill="rgb(253,254,254)" d="M 1486.26 944.73 C 1487.65 942.499 1487.18 943.668 1487.73 941.252 C 1488.98 951.292 1480.53 969.593 1482.07 971.468 C 1494.59 969.779 1490.68 951.183 1491.09 941.027 L 1491.52 941.066 C 1495.93 979.06 1475.93 1021.04 1453.54 1050.61 C 1384.88 1141.28 1253.85 1159.22 1150.65 1127.59 C 1145.39 1125.98 1124.89 1119.1 1122.11 1115.8 C 1125.04 1114.93 1128.25 1115.09 1131.35 1115.02 C 1154.65 1117.64 1179.55 1120.56 1202.93 1120.77 C 1299.7 1121.63 1400.87 1090.61 1458.97 1008.21 C 1474.07 986.786 1481.41 969.869 1486.26 944.73 z"/>
<path transform="translate(0,0)" fill="rgb(253,254,254)" d="M 1440.17 855.723 C 1455.49 845.328 1469.33 841.667 1487.82 845.173 C 1526.21 852.45 1548.31 887.027 1551.24 924.165 C 1552.91 945.441 1547.68 959.961 1539.19 979.295 L 1537.2 980.269 L 1535.7 979.628 C 1534.83 976.873 1537.68 958.548 1537.81 953.978 C 1539.25 903.137 1512.85 867.007 1460.67 865.556 C 1453.9 862.023 1447.33 858.4 1440.17 855.723 z"/>
<path transform="translate(0,0)" fill="rgb(158,212,225)" d="M 651.756 1169.43 L 653.198 1169.35 C 671.891 1168.23 693.21 1162.24 714.041 1161 C 797.365 1156.01 848.456 1191.01 914.834 1232.56 C 918.03 1233.14 931.064 1241.51 934.716 1243.83 C 969.253 1265.94 1005.99 1284.4 1044.34 1298.92 C 936.234 1297.97 854.713 1286.98 755.878 1237.45 C 732.244 1225.61 698.889 1207.18 678.522 1190.57 C 668.396 1183.81 660.606 1177.88 651.756 1169.43 z"/>
<path transform="translate(0,0)" fill="rgb(253,254,254)" d="M 651.756 1169.43 L 653.198 1169.35 C 671.891 1168.23 693.21 1162.24 714.041 1161 C 797.365 1156.01 848.456 1191.01 914.834 1232.56 C 913.661 1233.21 912.505 1233.9 911.058 1233.44 C 872.356 1221.1 832.52 1204.34 792.972 1195.31 C 767.226 1189.44 702.198 1182.17 678.522 1190.57 C 668.396 1183.81 660.606 1177.88 651.756 1169.43 z"/>
<path transform="translate(0,0)" fill="rgb(158,212,225)" d="M 495.293 972.148 C 491.465 963.891 488.733 955.169 487.166 946.204 C 478.823 897.022 510.286 841.628 565.091 843.694 C 577.395 844.157 586.789 849.177 596.537 856.268 C 589.523 859.126 585.66 860.786 579.093 864.464 C 553.943 885.995 550.961 906.29 549.873 937.506 C 557.268 988.256 581.568 1017.78 619.963 1050.41 C 612.129 1053.39 604.201 1056.12 596.191 1058.6 C 589.341 1062.22 569.593 1069.73 561.438 1073.12 C 536.718 1052.23 522.075 1024.32 507.021 996.191 C 503.574 989.75 497.64 978.765 495.293 972.148 z"/>
<path transform="translate(0,0)" fill="rgb(253,254,254)" d="M 495.293 972.148 C 491.465 963.891 488.733 955.169 487.166 946.204 C 478.823 897.022 510.286 841.628 565.091 843.694 C 577.395 844.157 586.789 849.177 596.537 856.268 C 589.523 859.126 585.66 860.786 579.093 864.464 C 546.207 858.149 507.928 892.766 501.69 922.913 C 499.566 933.18 498.12 943.476 498.168 954.016 C 497.803 959.467 499.631 969.03 495.293 972.148 z"/>
<path transform="translate(0,0)" fill="rgb(253,254,254)" d="M 596.191 1058.6 C 573.322 1044.43 549.812 992.826 545.76 966.729 C 544.892 961.136 542.085 938.825 545.059 934.609 C 545.102 940.801 543.922 955.748 547.219 959.626 L 548.939 958.709 C 552.255 950.126 547.144 938.255 548.192 931.217 L 549.873 937.506 C 557.268 988.256 581.568 1017.78 619.963 1050.41 C 612.129 1053.39 604.201 1056.12 596.191 1058.6 z"/>
<path transform="translate(0,0)" fill="rgb(237,194,109)" d="M 685.085 290.351 C 819.752 202.215 996.304 176.706 1152.69 209.19 C 1219.85 223.796 1284.19 249.212 1343.19 284.445 C 1347.34 286.905 1368.49 299.654 1370.14 302.215 L 1368.83 302.995 C 1364.29 299.981 1344.92 286.254 1341.07 286.284 C 1331.47 297.781 1354.35 301.872 1316.87 309.664 C 1321.41 313.682 1347.55 328.744 1347.84 331.142 L 1347.35 331.649 C 1335.84 325.098 1324.81 316.96 1312.93 310.301 C 1267.13 284.151 1217.96 264.384 1166.81 251.547 C 1002.8 211.44 845.8 236.34 701.894 323.624 C 704.759 319.35 734.659 301.058 739.778 299.397 C 736.957 295.968 725.953 293.498 722.539 290.605 C 717.484 286.323 720.253 277.495 716.929 273.805 C 709.284 274.265 694.03 290.286 685.085 290.351 z"/>
<path transform="translate(0,0)" fill="rgb(187,191,156)" d="M 685.085 290.351 C 694.03 290.286 709.284 274.265 716.929 273.805 C 720.253 277.495 717.484 286.323 722.539 290.605 C 725.953 293.498 736.957 295.968 739.778 299.397 C 734.659 301.058 704.759 319.35 701.894 323.624 C 606.976 387.163 542.132 457.959 495.019 563.302 C 488.307 578.312 483.91 592.074 477.898 606.85 C 473.505 605.742 472.413 627.655 468.504 630.434 C 469.492 621.374 465.002 611.186 454.758 608.654 C 452.487 608.092 453.083 608.662 450.751 607.522 C 447.518 610.252 444.822 610.439 440.871 611.706 C 437.575 607.028 448.397 588.298 447.34 580.459 C 447.461 579.698 447.593 578.716 447.847 578.011 C 484.542 476.167 554.52 385.29 640.894 320.477 C 655.009 309.885 669.957 298.342 685.085 290.351 z"/>
<path transform="translate(0,0)" fill="rgb(187,191,156)" d="M 1347.35 331.649 L 1347.84 331.142 C 1347.55 328.744 1321.41 313.682 1316.87 309.664 C 1354.35 301.872 1331.47 297.781 1341.07 286.284 C 1344.92 286.254 1364.29 299.981 1368.83 302.995 L 1370.14 302.215 C 1381.58 308.7 1398.89 322.446 1409.3 330.781 C 1475.96 383.544 1530.01 450.503 1567.52 526.786 C 1575.21 542.324 1585.78 565.23 1590.6 581.981 L 1589.7 583.51 C 1591.56 589.405 1599.31 610.165 1599.75 614.485 C 1576.4 613.987 1578.05 629.983 1570.6 633.271 C 1563.4 629.775 1561.84 601.626 1557.13 597.915 L 1556.49 598.683 C 1553.34 592.083 1549.99 582.256 1547.07 575.102 C 1541.4 561.096 1535.13 547.339 1528.28 533.868 C 1485.99 451.29 1423.11 384.392 1347.35 331.649 z"/>
<path transform="translate(0,0)" fill="rgb(244,162,84)" d="M 721.564 396.04 C 739.451 390.998 798.315 379.489 769.521 417.883 C 769.039 413.849 771.423 411.81 772.522 406.629 C 770.454 402.774 763.773 399.549 759.615 400.485 C 756.959 398.161 755.835 397.385 752.854 395.461 L 752.368 392.326 C 742.522 392.337 731.895 397.896 721.564 396.04 z"/>
<path transform="translate(0,0)" fill="rgb(244,162,84)" d="M 1270.32 423.127 C 1266.32 420.576 1258.86 404.267 1259.64 399.475 C 1262.18 383.73 1295.28 391.995 1305.35 393.936 C 1295.92 395.571 1286.08 392.66 1276.42 395.119 C 1275.32 398.396 1274.55 402.23 1271.92 404.164 L 1270.22 404.157 L 1269.51 401.623 C 1267.53 403.727 1265.47 405.849 1263.57 408.018 C 1265.29 415.051 1270.88 417.261 1270.32 423.127 z"/>
<path transform="translate(0,0)" fill="rgb(244,162,84)" d="M 1115.41 336.602 C 1134.93 333.173 1154.78 340.534 1167.34 355.86 C 1179.9 371.185 1183.22 392.093 1176.03 410.557 C 1168.84 429.022 1152.25 442.174 1132.63 444.965 C 1102.98 449.184 1075.42 428.839 1070.72 399.256 C 1066.01 369.672 1085.91 341.785 1115.41 336.602 z"/>
<path transform="translate(0,0)" fill="url(#Gradient1)" d="M 1119.28 358.336 C 1139.57 354.509 1157.58 362.965 1161.33 384.482 C 1167.15 417.879 1126.72 438.434 1101.27 417.634 C 1092.76 410.68 1083.56 388.06 1088.15 378.838 C 1091.92 375.579 1091.76 377.565 1095.69 374.259 C 1099.8 363.493 1107.47 357.202 1119.28 358.336 z"/>
<path transform="translate(0,0)" fill="rgb(251,246,223)" d="M 1095.69 374.259 C 1099.8 363.493 1107.47 357.202 1119.28 358.336 C 1145.02 371.699 1103.57 402.182 1095.69 374.259 z"/>
<path transform="translate(0,0)" fill="rgb(244,162,84)" d="M 1046.02 475.001 C 1070.95 470.3 1094.95 486.738 1099.58 511.678 C 1104.21 536.618 1087.7 560.576 1062.75 565.135 C 1037.9 569.676 1014.06 553.251 1009.45 528.411 C 1004.84 503.571 1021.19 479.683 1046.02 475.001 z"/>
<path transform="translate(0,0)" fill="rgb(237,194,109)" d="M 1030.55 507.227 C 1035.39 496.096 1042.31 490.6 1054.36 493.458 C 1069.2 492.951 1082.81 504.071 1082.97 519.533 C 1083.01 527.25 1079.89 534.648 1074.33 540.005 C 1068.71 545.458 1061.07 548.309 1053.25 547.867 C 1032.91 546.863 1019.23 525.595 1030.55 507.227 z"/>
<path transform="translate(0,0)" fill="rgb(253,254,254)" d="M 1030.55 507.227 C 1035.39 496.096 1042.31 490.6 1054.36 493.458 C 1060.04 499.989 1060.98 508.066 1053.53 513.726 C 1049.98 516.38 1045.46 517.381 1041.12 516.474 C 1035.58 515.259 1033.14 511.906 1030.55 507.227 z"/>
<path transform="translate(0,0)" fill="rgb(158,212,225)" d="M 1504.84 702.303 C 1521.1 699.412 1536.62 710.292 1539.44 726.567 C 1542.26 742.841 1531.32 758.311 1515.03 761.066 C 1498.84 763.806 1483.48 752.94 1480.68 736.76 C 1477.87 720.58 1488.67 705.176 1504.84 702.303 z"/>
<path transform="translate(0,0)" fill="rgb(253,254,254)" d="M 1507.86 718.923 C 1513.99 717.93 1519.77 722.08 1520.78 728.205 C 1521.79 734.329 1517.66 740.12 1511.54 741.156 C 1505.39 742.196 1499.57 738.041 1498.55 731.887 C 1497.53 725.732 1501.7 719.921 1507.86 718.923 z"/>
<path transform="translate(0,0)" fill="rgb(244,162,84)" d="M 913.745 426.794 C 929.652 424.902 944.134 436.127 946.269 452.004 C 948.404 467.88 937.402 482.532 921.56 484.91 C 911.094 486.482 900.593 482.291 894.085 473.946 C 887.576 465.601 886.069 454.395 890.142 444.627 C 894.215 434.859 903.235 428.043 913.745 426.794 z"/>
<path transform="translate(0,0)" fill="rgb(251,246,223)" d="M 912.189 442.7 C 918.259 440.335 925.108 443.242 927.623 449.251 C 930.138 455.261 927.402 462.179 921.457 464.843 C 917.477 466.626 912.844 466.111 909.354 463.498 C 905.863 460.885 904.063 456.585 904.652 452.265 C 905.241 447.944 908.126 444.283 912.189 442.7 z"/>
<path transform="translate(0,0)" fill="rgb(158,212,225)" d="M 522.673 707.903 C 538.113 704.862 553.092 714.921 556.121 730.363 C 559.15 745.805 549.08 760.777 533.636 763.794 C 518.208 766.809 503.255 756.752 500.229 741.326 C 497.203 725.9 507.249 710.94 522.673 707.903 z"/>
<path transform="translate(0,0)" fill="rgb(253,254,254)" d="M 523.612 723.997 C 538.141 723.997 544.561 734.605 530.219 743.975 C 517.1 744.313 511.095 732.36 523.612 723.997 z"/>
<path transform="translate(0,0)" fill="rgb(237,194,109)" d="M 964.252 310.025 C 977.635 306.419 991.417 314.297 995.1 327.659 C 998.783 341.02 990.985 354.847 977.646 358.608 C 964.196 362.4 950.229 354.524 946.516 341.052 C 942.802 327.581 950.76 313.66 964.252 310.025 z"/>
<path transform="translate(0,0)" fill="rgb(251,246,223)" d="M 967.854 323.573 C 973.039 322.008 978.514 324.932 980.097 330.112 C 981.68 335.292 978.775 340.776 973.601 342.377 C 968.401 343.986 962.883 341.064 961.293 335.858 C 959.702 330.653 962.643 325.146 967.854 323.573 z"/>
</svg>